<?xml version="1.0" encoding="utf-8"?>
<!-- Generator: Adobe Illustrator 25.2.3, SVG Export Plug-In . SVG Version: 6.00 Build 0)  -->
<svg version="1.1" id="Layer_1" xmlns="http://www.w3.org/2000/svg" xmlns:xlink="http://www.w3.org/1999/xlink" x="0px" y="0px"
	 viewBox="0 0 596 120" enable-background="new 0 0 596 120" xml:space="preserve">
<g>
	<g>
		<path id="circle8858-1-3-7-6-9-7-2_3_" fill="#00B4FF" d="M60,7.48c29.006,0,52.52,23.514,52.52,52.52S89.006,112.52,60,112.52
			S7.48,89.006,7.48,60S30.994,7.48,60,7.48 M60,0C26.916,0,0,26.916,0,60c0,33.084,26.916,60,60,60s60-26.916,60-60
			C120,26.916,93.084,0,60,0L60,0z"/>
		<path id="path8860-5-4-8-2-7-1-8_2_" fill="#FFFFFF" d="M68.595,59.998c0,4.745-3.847,8.592-8.592,8.592h0
			c-4.745,0-8.592-3.847-8.592-8.592v0c0-4.745,3.847-8.592,8.592-8.592C64.748,51.406,68.595,55.253,68.595,59.998z"/>
		<g>
			<path id="path8862-5-5-9-1-9-2-7_2_" fill="#FFFFFF" d="M98.144,37.974c-1.868-3.214-4.136-6.179-6.75-8.824l-9.933,5.735
				c-3.096-2.645-6.615-4.671-10.371-6.011c-3.391,3.437-6.085,7.277-8.027,11.454C74.12,39.576,85.54,43.577,96.142,51.86
				l6.252-3.609C101.417,44.66,99.989,41.207,98.144,37.974L98.144,37.974z"/>
			<path id="path8866-7-5-5-0-3-5-6_2_" fill="#FFFFFF" d="M60.005,104.042c3.718-0.011,7.42-0.492,11.017-1.433v-11.47
				c3.838-1.359,7.352-3.393,10.391-5.976c-1.281-4.655-3.26-8.909-5.906-12.679c-4.877,9.952-14.052,17.841-26.527,22.881v7.219
				C52.579,103.533,56.283,104.024,60.005,104.042z"/>
			<path id="path8870-5-3-9-3-0-0-9_2_" fill="#FFFFFF" d="M21.858,37.979c-1.85,3.225-3.283,6.672-4.267,10.257l9.933,5.735
				c-0.742,4.004-0.737,8.064-0.02,11.987c4.672,1.218,9.345,1.631,13.933,1.225c-6.18-9.2-8.425-21.09-6.552-34.413l-6.252-3.609
				C26.012,31.802,23.735,34.765,21.858,37.979z"/>
		</g>
		<g>
			<path id="path8864-4-8-1-2-7-3-1_2_" fill="#00B4FF" d="M98.147,82.018c1.85-3.225,3.283-6.672,4.267-10.257l-9.933-5.735
				c0.742-4.004,0.737-8.064,0.02-11.987c-4.672-1.218-9.345-1.631-13.933-1.225c6.18,9.2,8.425,21.09,6.552,34.413l6.252,3.609
				C93.993,88.195,96.27,85.232,98.147,82.018L98.147,82.018z"/>
			<path id="path8868-6-7-4-7-5-7-1_2_" fill="#00B4FF" d="M21.861,82.022c1.868,3.214,4.136,6.179,6.75,8.824l9.933-5.735
				c3.096,2.645,6.615,4.671,10.371,6.011c3.391-3.437,6.085-7.277,8.027-11.454c-11.057,0.753-22.477-3.249-33.079-11.532
				l-6.252,3.609C18.588,75.337,20.016,78.79,21.861,82.022L21.861,82.022z"/>
			<path id="path8872-6-3-2-1-4-2-1_2_" fill="#00B4FF" d="M60,15.955c-3.718,0.011-7.42,0.492-11.017,1.433v11.47
				c-3.838,1.359-7.352,3.393-10.391,5.976c1.281,4.655,3.26,8.909,5.906,12.679c4.877-9.952,14.052-17.841,26.527-22.881v-7.219
				C67.426,16.463,63.722,15.973,60,15.955L60,15.955z"/>
		</g>
	</g>
	<path fill="#FFFFFF" d="M263.072,75.468v6.011c-12.74-1.17-21.497-8.104-21.497-24.828V31.105h6.478v25.619
		C248.052,68.691,253.63,74.284,263.072,75.468z M285.231,31.105v25.619c0,12.311-5.808,17.838-15.019,18.796v6.049
		c12.795-0.895,21.497-7.76,21.497-24.918V31.105H285.231z M215.287,57.313v-3.092c0-17.742-12.221-24.221-29.227-24.221
		c-16.857,0-28.711,6.479-28.711,24.221v3.092c0,17.816,11.853,24.368,28.711,24.368c2.136,0,4.197-0.073,6.111-0.294L208.588,90
		l2.797-4.638l-11.412-5.598l-8.866-4.324c-1.598,0.182-3.28,0.278-5.047,0.278c-13.545,0-22.159-5.374-22.159-18.405v-3.092
		c0-12.957,8.614-18.257,22.159-18.257c13.767,0,22.675,5.3,22.675,18.257v3.092c0,7.292-2.867,12.111-7.736,15.008l6.69,3.263
		C212.447,71.699,215.287,65.824,215.287,57.313z M362.464,80.503h7.141l-23.999-49.914h-6.694L362.464,80.503z M327.716,65.633
		l10.275-21.863l-3.342-7.083l-21.067,43.817h7.14l4.565-9.644h25.487l-2.466-5.226H327.716z M513.762,80.503h7.141l-23.999-49.914
		h-6.694L513.762,80.503z M479.013,65.633l10.275-21.863l-3.342-7.083l-21.067,43.817h7.14l4.565-9.644h25.487l-2.466-5.226H479.013
		z M581.718,62.171c8.171-1.693,12.515-7.508,12.515-15.975c0-10.969-6.257-15.091-17.964-15.091h-29.816v49.398h6.331V36.993h22.97
		c6.993,0,11.926,1.841,11.926,9.203s-4.933,10.749-11.926,10.749h-15.829v5.743h14.871l13.031,17.815h7.582L581.718,62.171z
		 M418.198,75.865c-13.399,0-20.393-3.387-25.841-8.761l-3.091,5.301c7.141,6.92,15.459,9.276,29.227,9.276
		c2.242,0,4.415-0.126,6.5-0.364l-2.648-5.611C421.039,75.806,419.662,75.865,418.198,75.865z M443.818,66.147
		c0-8.835-6.552-11.927-19.215-13.031l-14.062-1.399c-9.202-0.957-12.883-3.092-12.883-7.877c0-3.369,2.004-5.628,6.401-6.888
		l-2.489-5.277c-6.588,1.964-10.463,5.808-10.463,12.312c0,7.288,4.785,12.221,18.036,13.472l15.755,1.546
		c8.982,0.958,12.368,2.945,12.368,7.583c0,3.684-2.934,6.473-8.312,7.992l2.575,5.456
		C438.833,77.897,443.818,73.533,443.818,66.147z M415.548,35.742c11.043,0,18.626,2.503,25.252,7.878l2.577-5.375
		C434.837,31.619,425.929,30,415.991,30c-2.819,0-5.457,0.127-7.882,0.402l2.598,5.506C412.193,35.806,413.78,35.742,415.548,35.742
		z"/>
</g>
</svg>
