<?xml version="1.0" encoding="utf-8"?>
<!-- Generator: Adobe Illustrator 25.2.3, SVG Export Plug-In . SVG Version: 6.00 Build 0)  -->
<svg version="1.1" id="Layer_1" xmlns="http://www.w3.org/2000/svg" xmlns:xlink="http://www.w3.org/1999/xlink" x="0px" y="0px"
	 viewBox="0 0 356 360" enable-background="new 0 0 356 360" xml:space="preserve">
<g>
	<g>
		<path fill="#FFFFFF" d="M43.375,303.358c0,3.819-2.286,6.3-7.083,6.3H21.374v-21.902h14.362c4.309,0,6.169,2.122,6.169,5.19
			c0,2.546-1.501,4.341-3.427,5.027C41.253,298.299,43.375,300.356,43.375,303.358z M35.312,290.367H24.181v6.92h10.772
			c2.155,0,4.08-1.273,4.08-3.786C39.033,291.347,37.661,290.367,35.312,290.367z M40.502,302.966c0-2.285-1.762-3.623-3.982-3.623
			H24.181v7.703h11.686C39.261,307.046,40.502,305.218,40.502,302.966z"/>
		<path fill="#FFFFFF" d="M76.761,307.046v2.612H56.067v-21.902h20.597v2.611H58.939v6.855h14.525v2.285H58.939v7.539H76.761z"/>
		<path fill="#FFFFFF" d="M99.834,301.236v8.422h-2.872v-8.486l-10.837-13.415h3.362l8.911,11.131l8.845-11.131h3.362
			L99.834,301.236z"/>
		<path fill="#FFFFFF" d="M118.861,299.376v-1.37c0-7.867,5.255-10.739,12.731-10.739c7.539,0,12.957,2.872,12.957,10.739v1.37
			c0,7.899-5.418,10.805-12.957,10.805C124.116,310.181,118.861,307.275,118.861,299.376z M141.644,299.376v-1.37
			c0-5.745-3.949-8.095-10.052-8.095c-6.007,0-9.826,2.349-9.826,8.095v1.37c0,5.778,3.819,8.16,9.826,8.16
			C137.694,307.536,141.644,305.154,141.644,299.376z"/>
		<path fill="#FFFFFF" d="M178.784,287.756v21.902h-2.872l-15.765-17.855v17.855h-2.807v-21.902h2.872l15.732,17.854v-17.854
			H178.784z"/>
		<path fill="#FFFFFF" d="M216.677,298.038v1.305c0,7.801-5.158,10.315-12.405,10.315h-11.195v-21.902h11.195
			C211.519,287.756,216.677,290.498,216.677,298.038z M213.772,298.038c0-5.386-3.395-7.638-9.5-7.638h-8.323v16.614h8.323
			c6.105,0,9.5-2.057,9.5-7.671V298.038z"/>
		<path fill="#FFFFFF" d="M264.522,290.367h-9.76v19.291h-2.872v-19.291h-9.76v-2.611h22.392V290.367z"/>
		<path fill="#FFFFFF" d="M298.856,287.756v21.902h-2.872v-10.086h-16.843v10.086h-2.872v-21.902h2.872v9.237h16.843v-9.237H298.856
			z"/>
		<path fill="#FFFFFF" d="M333.843,307.046v2.612h-20.695v-21.902h20.597v2.611H316.02v6.855h14.525v2.285H316.02v7.539H333.843z"/>
		<path fill="#FFFFFF" d="M23.92,340.219v7.247h13.938v2.415H23.92v9.596h-2.872v-21.902h20.008v2.644H23.92z"/>
		<path fill="#FFFFFF" d="M65.501,351.578h-9.76v7.899h-2.807v-21.902h13.219c5.191,0,7.964,1.828,7.964,6.691
			c0,3.754-1.925,6.332-5.548,7.083l6.071,8.127h-3.362L65.501,351.578z M55.741,349.032h10.185c3.1,0,5.287-1.502,5.287-4.765
			c0-3.265-2.187-4.081-5.287-4.081H55.741V349.032z"/>
		<path fill="#FFFFFF" d="M103.588,355.201h-14.46l-2.023,4.276h-3.166l10.641-22.13h3.558l10.641,22.13h-3.166L103.588,355.201z
			 M102.511,352.884l-6.169-13.057l-6.137,13.057H102.511z"/>
		<path fill="#FFFFFF" d="M148.89,337.576v21.902h-2.807v-17.169l-10.413,15.667h-2.089l-10.151-15.602v17.103h-2.807v-21.902h3.035
			l10.968,16.908l11.228-16.908H148.89z"/>
		<path fill="#FFFFFF" d="M183.876,356.866v2.612h-20.695v-21.902h20.597v2.611h-17.725v6.855h14.526v2.285h-14.526v7.539H183.876z"
			/>
		<path fill="#FFFFFF" d="M230.874,337.576l-8.29,22.032h-3.069l-7.017-18.572l-7.017,18.572h-3.036l-8.096-22.032h3.233
			l6.429,18.54l6.757-18.54h3.46l6.821,18.572l6.562-18.572H230.874z"/>
		<path fill="#FFFFFF" d="M240.891,349.195v-1.37c0-7.867,5.254-10.739,12.729-10.739c7.54,0,12.958,2.872,12.958,10.739v1.37
			c0,7.899-5.418,10.805-12.958,10.805C246.145,360,240.891,357.094,240.891,349.195z M263.673,349.195v-1.37
			c0-5.745-3.949-8.095-10.053-8.095c-6.007,0-9.824,2.349-9.824,8.095v1.37c0,5.778,3.817,8.16,9.824,8.16
			C259.724,357.356,263.673,354.973,263.673,349.195z"/>
		<path fill="#FFFFFF" d="M291.935,351.578h-9.76v7.899h-2.807v-21.902h13.219c5.191,0,7.964,1.828,7.964,6.691
			c0,3.754-1.925,6.332-5.548,7.083l6.07,8.127h-3.362L291.935,351.578z M282.175,349.032h10.185c3.102,0,5.287-1.502,5.287-4.765
			c0-3.265-2.186-4.081-5.287-4.081h-10.185V349.032z"/>
		<path fill="#FFFFFF" d="M322.549,347.531l-6.855,5.614v6.333h-2.872v-21.902h2.872v12.24l15.244-12.207h3.655l-9.857,8.095
			l10.215,13.774h-3.524L322.549,347.531z"/>
	</g>
	<g>
		<path id="path8860-5-4-8-2-7-1-8_12_" fill="#FFFFFF" d="M188.416,71.725c0,5.751-4.662,10.413-10.413,10.413h0
			c-5.751,0-10.413-4.662-10.413-10.413v0c0-5.751,4.662-10.413,10.413-10.413C183.754,61.313,188.416,65.975,188.416,71.725z"/>
		<g>
			<path id="path8862-5-5-9-1-9-2-7_12_" fill="#FFFFFF" d="M224.226,45.035c-2.264-3.896-5.013-7.489-8.18-10.694l-12.038,6.95
				c-3.752-3.205-8.017-5.66-12.569-7.284c-4.11,4.165-7.375,8.819-9.728,13.88c13.4-0.912,27.24,3.938,40.087,13.976l7.576-4.374
				C228.192,53.137,226.462,48.952,224.226,45.035L224.226,45.035z"/>
			<path id="path8866-7-5-5-0-3-5-6_12_" fill="#FFFFFF" d="M178.006,125.101c4.506-0.013,8.992-0.597,13.351-1.737v-13.9
				c4.652-1.647,8.91-4.112,12.593-7.243c-1.552-5.642-3.95-10.796-7.157-15.365c-5.91,12.061-17.03,21.621-32.147,27.729v8.748
				C169.007,124.485,173.496,125.079,178.006,125.101z"/>
			<path id="path8870-5-3-9-3-0-0-9_12_" fill="#FFFFFF" d="M131.777,45.04c-2.241,3.909-3.979,8.085-5.171,12.431l12.038,6.95
				c-0.9,4.852-0.894,9.773-0.024,14.527c5.662,1.477,11.325,1.977,16.885,1.484c-7.49-11.149-10.21-25.559-7.94-41.705
				l-7.576-4.374C136.81,37.555,134.051,41.145,131.777,45.04z"/>
		</g>
		<g>
			<path id="path8864-4-8-1-2-7-3-1_12_" fill="#00B4FF" d="M224.229,98.411c2.241-3.909,3.979-8.085,5.171-12.431l-12.038-6.95
				c0.9-4.852,0.894-9.773,0.024-14.527c-5.662-1.477-11.325-1.977-16.885-1.484c7.49,11.149,10.21,25.559,7.94,41.705l7.576,4.374
				C219.196,105.896,221.955,102.306,224.229,98.411L224.229,98.411z"/>
			<path id="path8868-6-7-4-7-5-7-1_12_" fill="#00B4FF" d="M131.78,98.416c2.264,3.896,5.013,7.489,8.18,10.694l12.038-6.95
				c3.752,3.205,8.016,5.66,12.569,7.284c4.11-4.165,7.375-8.819,9.728-13.88c-13.4,0.912-27.24-3.938-40.087-13.976l-7.576,4.374
				C127.814,90.314,129.544,94.499,131.78,98.416L131.78,98.416z"/>
			<path id="path8872-6-3-2-1-4-2-1_12_" fill="#00B4FF" d="M178,18.35c-4.506,0.013-8.992,0.597-13.351,1.737v13.9
				c-4.652,1.647-8.91,4.112-12.593,7.243c1.552,5.642,3.95,10.796,7.157,15.365c5.91-12.061,17.03-21.621,32.147-27.729v-8.748
				C186.999,18.966,182.51,18.372,178,18.35L178,18.35z"/>
		</g>
		<path fill="#00B4FF" d="M178,9.175c34.491,0,62.552,28.061,62.552,62.552S212.491,134.279,178,134.279
			s-62.552-28.061-62.552-62.552S143.509,9.175,178,9.175 M178,0c-39.614,0-71.727,32.113-71.727,71.727
			s32.113,71.727,71.727,71.727s71.727-32.113,71.727-71.727S217.614,0,178,0L178,0z"/>
	</g>
	<path fill="#FFFFFF" d="M96.6,211.987v4.319c-9.154-0.84-15.446-5.823-15.446-17.839v-18.355h4.654v18.408
		C85.808,207.118,89.815,211.137,96.6,211.987z M112.521,180.112v18.408c0,8.846-4.173,12.817-10.791,13.505v4.346
		c9.193-0.643,15.446-5.575,15.446-17.904v-18.355H112.521z M62.266,198.943v-2.222c0-12.748-8.781-17.403-21-17.403
		c-12.112,0-20.629,4.655-20.629,17.403v2.222c0,12.801,8.517,17.509,20.629,17.509c1.535,0,3.015-0.053,4.391-0.211l11.796,6.189
		l2.009-3.332l-8.2-4.022l-6.371-3.107c-1.148,0.131-2.356,0.2-3.626,0.2c-9.732,0-15.921-3.861-15.921-13.224v-2.222
		c0-9.31,6.189-13.118,15.921-13.118c9.892,0,16.292,3.808,16.292,13.118v2.222c0,5.239-2.06,8.702-5.558,10.783l4.807,2.345
		C60.225,209.279,62.266,205.058,62.266,198.943z M168.013,215.605h5.131L155.9,179.741h-4.809L168.013,215.605z M143.046,204.921
		l7.383-15.709l-2.401-5.089l-15.137,31.483h5.13l3.28-6.929h18.313l-1.772-3.755H143.046z M276.722,215.605h5.131l-17.244-35.864
		h-4.809L276.722,215.605z M251.755,204.921l7.383-15.709l-2.401-5.089l-15.137,31.483h5.13l3.28-6.929h18.313l-1.772-3.755H251.755
		z M325.549,202.434c5.871-1.217,8.992-5.395,8.992-11.478c0-7.882-4.496-10.843-12.907-10.843h-21.423v35.493h4.549v-31.262h16.504
		c5.025,0,8.569,1.322,8.569,6.612c0,5.29-3.544,7.723-8.569,7.723h-11.373v4.126h10.685l9.363,12.8h5.448L325.549,202.434z
		 M208.059,212.273c-9.628,0-14.652-2.433-18.567-6.295l-2.221,3.809c5.131,4.972,11.108,6.665,20.999,6.665
		c1.611,0,3.172-0.091,4.67-0.262l-1.903-4.031C210.1,212.231,209.11,212.273,208.059,212.273z M226.467,205.291
		c0-6.348-4.708-8.569-13.806-9.363l-10.104-1.005c-6.612-0.688-9.256-2.222-9.256-5.66c0-2.421,1.44-4.044,4.599-4.949
		l-1.788-3.792c-4.734,1.411-7.518,4.173-7.518,8.847c0,5.236,3.438,8.781,12.959,9.68l11.32,1.111
		c6.453,0.688,8.887,2.116,8.887,5.449c0,2.647-2.108,4.651-5.972,5.742l1.85,3.92C222.885,213.733,226.467,210.597,226.467,205.291
		z M206.154,183.444c7.935,0,13.383,1.798,18.144,5.661l1.852-3.862c-6.136-4.76-12.536-5.924-19.677-5.924
		c-2.025,0-3.921,0.091-5.663,0.289l1.867,3.956C203.744,183.49,204.885,183.444,206.154,183.444z"/>
	<path fill="#00B4FF" d="M0.51,251.892c29.582-0.537,59.163-0.789,88.745-0.997L178,250.591l88.745,0.299l44.373,0.363l44.373,0.638
		l-44.373,0.638l-44.373,0.363L178,253.192l-88.745-0.304C59.673,252.68,30.092,252.429,0.51,251.892z"/>
</g>
</svg>
