<svg xmlns="http://www.w3.org/2000/svg" width="512" height="512" viewBox="0 0 512 512"><title>ionicons-v5-d</title><path d="M68.4,192A20.38,20.38,0,0,0,48,212.2a17.87,17.87,0,0,0,.8,5.5L100.5,400a40.46,40.46,0,0,0,39.1,29.5H372.4A40.88,40.88,0,0,0,411.7,400l51.7-182.3.6-5.5A20.38,20.38,0,0,0,443.6,192H68.4ZM261.72,352.07A42.07,42.07,0,1,1,304,310,42.27,42.27,0,0,1,261.72,352.07Z" style="fill:none;stroke:#000;stroke-linejoin:round;stroke-width:32px"/><polyline points="160 192 256 64 352 192" style="fill:none;stroke:#000;stroke-linejoin:round;stroke-width:32px"/></svg>