<svg xmlns="http://www.w3.org/2000/svg" width="512" height="512" viewBox="0 0 512 512"><title>ionicons-v5-g</title><path d="M392,208H368v-5.74A63.93,63.93,0,0,0,321.65,96a111,111,0,0,0-27.59-47.29A108.62,108.62,0,0,0,216,16c-29.91,0-57.78,12.28-79,34.68a56,56,0,0,0-67.51,77.54A63.91,63.91,0,0,0,80,231.39V440a56.06,56.06,0,0,0,56,56H312a56.06,56.06,0,0,0,56-56v-8h24a72.08,72.08,0,0,0,72-72V280A72.08,72.08,0,0,0,392,208ZM176,416a16,16,0,0,1-32,0V256a16,16,0,0,1,32,0Zm64,0a16,16,0,0,1-32,0V256a16,16,0,0,1,32,0Zm64,0a16,16,0,0,1-32,0V256a16,16,0,0,1,32,0Zm16-224c-8.33,0-20.55-5.18-26.69-11.31A16,16,0,0,0,282,176H160a16,16,0,0,0-15,10.53C138.17,205.21,121.4,208,112,208a32,32,0,0,1,0-64c.09,0,9.12.34,16.4,5.8a16,16,0,1,0,19.2-25.6A63.69,63.69,0,0,0,112,112a63.55,63.55,0,0,0-14,1.57A24,24,0,0,1,120,80a23.78,23.78,0,0,1,19.38,9.84,51.35,51.35,0,0,1,4.71,7.9A16,16,0,0,0,176,96c0-6.77-3.61-15.17-10.76-25-.46-.63-1-1.25-1.45-1.86C178.39,55.44,196.64,48,216,48a76.86,76.86,0,0,1,55.23,23.18A80.2,80.2,0,0,1,292.61,142a16,16,0,0,0,12.73,18.71,16.29,16.29,0,0,0,3,.28,16,16,0,0,0,15.7-13A111.78,111.78,0,0,0,326,128.57,32,32,0,0,1,320,192ZM432,360a40,40,0,0,1-40,40H368V240h24a40,40,0,0,1,40,40Z"/></svg>