<svg xmlns="http://www.w3.org/2000/svg" width="512" height="512" viewBox="0 0 512 512"><title>ionicons-v5-h</title><path d="M370,378c28.89,23.52,46,46.07,46,86" style="fill:none;stroke:#000;stroke-linecap:round;stroke-linejoin:round;stroke-width:32px"/><path d="M142,378c-28.89,23.52-46,46.06-46,86" style="fill:none;stroke:#000;stroke-linecap:round;stroke-linejoin:round;stroke-width:32px"/><path d="M384,208c28.89-23.52,32-56.07,32-96" style="fill:none;stroke:#000;stroke-linecap:round;stroke-linejoin:round;stroke-width:32px"/><path d="M128,206c-28.89-23.52-32-54.06-32-94" style="fill:none;stroke:#000;stroke-linecap:round;stroke-linejoin:round;stroke-width:32px"/><line x1="464" y1="288.13" x2="384" y2="288.13" style="fill:none;stroke:#000;stroke-linecap:round;stroke-linejoin:round;stroke-width:32px"/><line x1="128" y1="288.13" x2="48" y2="288.13" style="fill:none;stroke:#000;stroke-linecap:round;stroke-linejoin:round;stroke-width:32px"/><line x1="256" y1="192" x2="256" y2="448" style="fill:none;stroke:#000;stroke-linecap:round;stroke-linejoin:round;stroke-width:32px"/><path d="M256,448h0c-70.4,0-128-57.6-128-128V223.93c0-65.07,57.6-96,128-96h0c70.4,0,128,25.6,128,96V320C384,390.4,326.4,448,256,448Z" style="fill:none;stroke:#000;stroke-linecap:round;stroke-linejoin:round;stroke-width:32px"/><path d="M179.43,143.52A49.08,49.08,0,0,1,176,127.79,80,80,0,0,1,255.79,48h.42A80,80,0,0,1,336,127.79a41.91,41.91,0,0,1-3.12,14.3" style="fill:none;stroke:#000;stroke-linecap:round;stroke-linejoin:round;stroke-width:32px"/></svg>