<svg xmlns="http://www.w3.org/2000/svg" width="512" height="512" viewBox="0 0 512 512"><title>ionicons-v5-e</title><rect x="48" y="80" width="416" height="384" rx="48" ry="48" style="fill:none;stroke:#000;stroke-linejoin:round;stroke-width:32px"/><path d="M397.82,80H114.18C77.69,80,48,110.15,48,147.2V208H64c0-16,16-32,32-32H416c16,0,32,16,32,32h16V147.2C464,110.15,434.31,80,397.82,80Z"/><circle cx="296" cy="232" r="24"/><circle cx="376" cy="232" r="24"/><circle cx="296" cy="312" r="24"/><circle cx="376" cy="312" r="24"/><circle cx="136" cy="312" r="24"/><circle cx="216" cy="312" r="24"/><circle cx="136" cy="392" r="24"/><circle cx="216" cy="392" r="24"/><circle cx="296" cy="392" r="24"/><line x1="128" y1="48" x2="128" y2="80" style="fill:none;stroke:#000;stroke-linecap:round;stroke-linejoin:round;stroke-width:32px"/><line x1="384" y1="48" x2="384" y2="80" style="fill:none;stroke:#000;stroke-linecap:round;stroke-linejoin:round;stroke-width:32px"/></svg>