<svg xmlns="http://www.w3.org/2000/svg" width="512" height="512" viewBox="0 0 512 512"><title>ionicons-v5-g</title><path d="M451,374c-15.88-16-54.34-39.35-73-48.76C353.7,313,351.7,312,332.6,326.19c-12.74,9.47-21.21,17.93-36.12,14.75s-47.31-21.11-75.68-49.39-47.34-61.62-50.53-76.48,5.41-23.23,14.79-36c13.22-18,12.22-21,.92-45.3-8.81-18.9-32.84-57-48.9-72.8C119.9,44,119.9,47,108.83,51.6A160.15,160.15,0,0,0,83,65.37C67,76,58.12,84.83,51.91,98.1s-9,44.38,23.07,102.64,54.57,88.05,101.14,134.49S258.5,406.64,310.85,436c64.76,36.27,89.6,29.2,102.91,23s22.18-15,32.83-31a159.09,159.09,0,0,0,13.8-25.8C465,391.17,468,391.17,451,374Z" style="fill:none;stroke:#000;stroke-miterlimit:10;stroke-width:32px"/></svg>