<svg xmlns="http://www.w3.org/2000/svg" width="512" height="512" viewBox="0 0 512 512"><title>ionicons-v5-e</title><circle cx="256" cy="272" r="64"/><path d="M432,144H373c-3,0-6.72-1.94-9.62-5L337.44,98.06a15.52,15.52,0,0,0-1.37-1.85C327.11,85.76,315,80,302,80H210c-13,0-25.11,5.76-34.07,16.21a15.52,15.52,0,0,0-1.37,1.85l-25.94,41c-2.22,2.42-5.34,5-8.62,5v-8a16,16,0,0,0-16-16H100a16,16,0,0,0-16,16v8H80a48.05,48.05,0,0,0-48,48V384a48.05,48.05,0,0,0,48,48H432a48.05,48.05,0,0,0,48-48V192A48.05,48.05,0,0,0,432,144ZM256,368a96,96,0,1,1,96-96A96.11,96.11,0,0,1,256,368Z"/></svg>