<svg xmlns="http://www.w3.org/2000/svg" width="512" height="512" viewBox="0 0 512 512"><title>ionicons-v5-h</title><path d="M469.71,234.6c-7.33-9.73-34.56-16.43-46.08-33.94s-20.95-55.43-50.27-70S288,112,256,112s-88,4-117.36,18.63-38.75,52.52-50.27,70S49.62,224.87,42.29,234.6,29.8,305.84,32.94,336s9,48,9,48h86c14.08,0,18.66-5.29,47.46-8C207,373,238,372,256,372s50,1,81.58,4c28.8,2.73,33.53,8,47.46,8h85s5.86-17.84,9-48S477,244.33,469.71,234.6Z" style="fill:none;stroke:#000;stroke-linecap:round;stroke-linejoin:round;stroke-width:32px"/><rect x="400" y="384" width="56" height="16" style="fill:none;stroke:#000;stroke-linecap:round;stroke-linejoin:round;stroke-width:32px"/><rect x="56" y="384" width="56" height="16" style="fill:none;stroke:#000;stroke-linecap:round;stroke-linejoin:round;stroke-width:32px"/><path d="M364.47,309.16c-5.91-6.83-25.17-12.53-50.67-16.35S279,288,256.2,288s-33.17,1.64-57.61,4.81-42.79,8.81-50.66,16.35C136.12,320.6,153.42,333.44,167,335c13.16,1.5,39.47.95,89.31.95s76.15.55,89.31-.95C359.18,333.35,375.24,321.4,364.47,309.16Z"/><path d="M431.57,243.05a3.23,3.23,0,0,0-3.1-3c-11.81-.42-23.8.42-45.07,6.69a93.88,93.88,0,0,0-30.08,15.06c-2.28,1.78-1.47,6.59,1.39,7.1A455.32,455.32,0,0,0,407.53,272c10.59,0,21.52-3,23.55-12.44A52.41,52.41,0,0,0,431.57,243.05Z"/><path d="M80.43,243.05a3.23,3.23,0,0,1,3.1-3c11.81-.42,23.8.42,45.07,6.69a93.88,93.88,0,0,1,30.08,15.06c2.28,1.78,1.47,6.59-1.39,7.1A455.32,455.32,0,0,1,104.47,272c-10.59,0-21.52-3-23.55-12.44A52.41,52.41,0,0,1,80.43,243.05Z"/><line x1="432" y1="192" x2="448" y2="192" style="fill:none;stroke:#000;stroke-linecap:round;stroke-linejoin:round;stroke-width:32px"/><line x1="64" y1="192" x2="80" y2="192" style="fill:none;stroke:#000;stroke-linecap:round;stroke-linejoin:round;stroke-width:32px"/><path d="M78,211s46.35-12,178-12,178,12,178,12" style="fill:none;stroke:#000;stroke-linecap:round;stroke-linejoin:round;stroke-width:32px"/></svg>