<svg xmlns="http://www.w3.org/2000/svg" width="512" height="512" viewBox="0 0 512 512"><title>ionicons-v5-l</title><path d="M448,400H64a16,16,0,0,1,0-32H448a16,16,0,0,1,0,32Z"/><path d="M416,448H96a16,16,0,0,1,0-32H416a16,16,0,0,1,0,32Z"/><path d="M32,272H16v48a32,32,0,0,0,32,32H96V336A64.07,64.07,0,0,0,32,272Z"/><path d="M480,240h16V176H480a96.11,96.11,0,0,1-96-96V64H128V80a96.11,96.11,0,0,1-96,96H16v64c5,0,10.34,0,16,0a96.11,96.11,0,0,1,96,96v16H384V336A96.11,96.11,0,0,1,480,240ZM256,304a96,96,0,1,1,96-96A96.11,96.11,0,0,1,256,304Z"/><circle cx="256" cy="208" r="64"/><path d="M416,336v16h48a32,32,0,0,0,32-32V272H480A64.07,64.07,0,0,0,416,336Z"/><path d="M480,144h16V96a32,32,0,0,0-32-32H416V80A64.07,64.07,0,0,0,480,144Z"/><path d="M96,80V64H48A32,32,0,0,0,16,96v48H32A64.07,64.07,0,0,0,96,80Z"/></svg>