<svg xmlns="http://www.w3.org/2000/svg" width="512" height="512" viewBox="0 0 512 512"><title>ionicons-v5-l</title><path d="M472,432H424a24,24,0,0,1-24-24V104a24,24,0,0,1,24-24h48a24,24,0,0,1,24,24V408A24,24,0,0,1,472,432Z"/><path d="M344,432H296a24,24,0,0,1-24-24V184a24,24,0,0,1,24-24h48a24,24,0,0,1,24,24V408A24,24,0,0,1,344,432Z"/><path d="M216,432H168a24,24,0,0,1-24-24V248a24,24,0,0,1,24-24h48a24,24,0,0,1,24,24V408A24,24,0,0,1,216,432Z"/><path d="M88,432H40a24,24,0,0,1-24-24V312a24,24,0,0,1,24-24H88a24,24,0,0,1,24,24v96A24,24,0,0,1,88,432Z"/></svg>