<svg xmlns="http://www.w3.org/2000/svg" width="512" height="512" viewBox="0 0 512 512"><title>ionicons-v5-s</title><path d="M87.49,380c1.19-4.38-1.44-10.47-3.95-14.86A44.86,44.86,0,0,0,81,361.34a199.81,199.81,0,0,1-33-110C47.65,139.09,140.73,48,255.83,48,356.21,48,440,117.54,459.58,209.85A199,199,0,0,1,464,251.49c0,112.41-89.49,204.93-204.59,204.93-18.3,0-43-4.6-56.47-8.37s-26.92-8.77-30.39-10.11a31.09,31.09,0,0,0-11.12-2.07,30.71,30.71,0,0,0-12.09,2.43L81.51,462.78A16,16,0,0,1,76.84,464a9.6,9.6,0,0,1-9.57-9.74,15.85,15.85,0,0,1,.6-3.29Z" style="fill:none;stroke:#000;stroke-linecap:round;stroke-miterlimit:10;stroke-width:32px"/></svg>