<svg xmlns="http://www.w3.org/2000/svg" width="512" height="512" viewBox="0 0 512 512"><title>ionicons-v5-s</title><path d="M87.48,380c1.2-4.38-1.43-10.47-3.94-14.86A42.63,42.63,0,0,0,81,361.34a199.81,199.81,0,0,1-33-110C47.64,139.09,140.72,48,255.82,48,356.2,48,440,117.54,459.57,209.85A199,199,0,0,1,464,251.49c0,112.41-89.49,204.93-204.59,204.93-18.31,0-43-4.6-56.47-8.37s-26.92-8.77-30.39-10.11a31.14,31.14,0,0,0-11.13-2.07,30.7,30.7,0,0,0-12.08,2.43L81.5,462.78A15.92,15.92,0,0,1,76.84,464a9.61,9.61,0,0,1-9.58-9.74,15.85,15.85,0,0,1,.6-3.29Z" style="fill:none;stroke:#000;stroke-linecap:round;stroke-miterlimit:10;stroke-width:32px"/><circle cx="160" cy="256" r="32"/><circle cx="256" cy="256" r="32"/><circle cx="352" cy="256" r="32"/></svg>