<svg xmlns="http://www.w3.org/2000/svg" width="512" height="512" viewBox="0 0 512 512"><title>ionicons-v5-s</title><rect x="240" y="-31.53" width="32" height="575.06" transform="translate(-106.04 256) rotate(-45)"/><path d="M38.72,212.78C13.39,235.88,0,267.42,0,304c0,36,14.38,68.88,40.49,92.59C65.64,419.43,99.56,432,136,432H364.12L110.51,178.39C82.5,183.78,57.42,195.72,38.72,212.78Z"/><path d="M476.59,407.23C499.76,388.78,512,361.39,512,328c0-61.85-48.44-95.34-97.75-102.64-6.52-41.18-24.05-76.4-51.11-102.46A153.57,153.57,0,0,0,256,80c-30.47,0-58.9,8.62-83.07,25L475.75,407.86C476,407.65,476.32,407.45,476.59,407.23Z"/></svg>