<svg xmlns="http://www.w3.org/2000/svg" width="512" height="512" viewBox="0 0 512 512"><title>ionicons-v5-m</title><path d="M96,208H48a16,16,0,0,1,0-32H96a16,16,0,0,1,0,32Z"/><line x1="90.25" y1="90.25" x2="124.19" y2="124.19"/><path d="M124.19,140.19a15.91,15.91,0,0,1-11.31-4.69L78.93,101.56a16,16,0,0,1,22.63-22.63l33.94,33.95a16,16,0,0,1-11.31,27.31Z"/><path d="M192,112a16,16,0,0,1-16-16V48a16,16,0,0,1,32,0V96A16,16,0,0,1,192,112Z"/><line x1="293.89" y1="90.25" x2="259.95" y2="124.19"/><path d="M260,140.19a16,16,0,0,1-11.31-27.31l33.94-33.95a16,16,0,0,1,22.63,22.63L271.27,135.5A15.94,15.94,0,0,1,260,140.19Z"/><line x1="124.19" y1="259.95" x2="90.25" y2="293.89"/><path d="M90.25,309.89a16,16,0,0,1-11.32-27.31l33.95-33.94a16,16,0,0,1,22.62,22.63l-33.94,33.94A16,16,0,0,1,90.25,309.89Z"/><path d="M219,151.83a26,26,0,0,0-36.77,0l-30.43,30.43a26,26,0,0,0,0,36.77L208.76,276a4,4,0,0,0,5.66,0L276,214.42a4,4,0,0,0,0-5.66Z"/><path d="M472.31,405.11,304.24,237a4,4,0,0,0-5.66,0L237,298.58a4,4,0,0,0,0,5.66L405.12,472.31a26,26,0,0,0,36.76,0l30.43-30.43h0A26,26,0,0,0,472.31,405.11Z"/></svg>