<svg xmlns="http://www.w3.org/2000/svg" width="512" height="512" viewBox="0 0 512 512"><title>ionicons-v5-n</title><path d="M459.94,53.25a16.06,16.06,0,0,0-23.22-.56L424.35,65a8,8,0,0,0,0,11.31l11.34,11.32a8,8,0,0,0,11.34,0l12.06-12C465.19,69.54,465.76,59.62,459.94,53.25Z"/><path d="M399.34,90,218.82,270.2a9,9,0,0,0-2.31,3.93L208.16,299a3.91,3.91,0,0,0,4.86,4.86l24.85-8.35a9,9,0,0,0,3.93-2.31L422,112.66A9,9,0,0,0,422,100L412.05,90A9,9,0,0,0,399.34,90Z"/><path d="M386.34,193.66,264.45,315.79A41.08,41.08,0,0,1,247.58,326l-25.9,8.67a35.92,35.92,0,0,1-44.33-44.33l8.67-25.9a41.08,41.08,0,0,1,10.19-16.87L318.34,125.66A8,8,0,0,0,312.69,112H104a56,56,0,0,0-56,56V408a56,56,0,0,0,56,56H344a56,56,0,0,0,56-56V199.31A8,8,0,0,0,386.34,193.66Z"/></svg>