<svg xmlns="http://www.w3.org/2000/svg" width="512" height="512" viewBox="0 0 512 512"><title>ionicons-v5-h</title><path d="M448,341.37V170.61A32,32,0,0,0,432.11,143l-152-88.46a47.94,47.94,0,0,0-48.24,0L79.89,143A32,32,0,0,0,64,170.61V341.37A32,32,0,0,0,79.89,369l152,88.46a48,48,0,0,0,48.24,0l152-88.46A32,32,0,0,0,448,341.37Z" style="fill:none;stroke:#000;stroke-linecap:round;stroke-linejoin:round;stroke-width:32px"/><polyline points="69 153.99 256 263.99 443 153.99" style="fill:none;stroke:#000;stroke-linecap:round;stroke-linejoin:round;stroke-width:32px"/><line x1="256" y1="463.99" x2="256" y2="263.99" style="fill:none;stroke:#000;stroke-linecap:round;stroke-linejoin:round;stroke-width:32px"/></svg>