<svg xmlns="http://www.w3.org/2000/svg" width="512" height="512" viewBox="0 0 512 512"><title>ionicons-v5-h</title><circle cx="104" cy="152" r="56" style="fill:none;stroke:#000;stroke-linecap:round;stroke-linejoin:round;stroke-width:32px"/><circle cx="104" cy="360" r="56" style="fill:none;stroke:#000;stroke-linecap:round;stroke-linejoin:round;stroke-width:32px"/><path d="M157,175,146,190,183,205s3.46-6.42,7-10Z" style="fill:none;stroke:#000;stroke-linecap:square;stroke-miterlimit:10;stroke-width:32px"/><path d="M154.17,334.43,460,162c-2.5-6.7-28-12-64-4-29.12,6.47-121.16,29.05-159.16,56.05C205.85,236.06,227,272,192,298c-25.61,19-44.43,22.82-44.43,22.82Z" style="fill:none;stroke:#000;stroke-linecap:round;stroke-miterlimit:10;stroke-width:32px"/><path d="M344.47,278.24,295,306.67c14.23,6.74,65.54,33.27,117,36.33,14.92.89,30,.39,39-6Z" style="fill:none;stroke:#000;stroke-linecap:round;stroke-miterlimit:10;stroke-width:32px"/><circle cx="256" cy="240" r="32" style="fill:none;stroke:#000;stroke-miterlimit:10;stroke-width:32px"/></svg>