<svg xmlns="http://www.w3.org/2000/svg" width="512" height="512" viewBox="0 0 512 512"><title>ionicons-v5-k</title><path d="M461.05,51a65,65,0,0,0-45.71-19h-.76a61.81,61.81,0,0,0-44.36,19.25,12.81,12.81,0,0,0-1.07,1.25l-54,69.76c-5.62,7.1-12.74,8.68-16.78,4.64L296.47,125a48,48,0,0,0-67.92,67.92l9.91,9.91a2,2,0,0,1,0,2.83L58.7,385.38C54,390.05,46.9,399.85,38.85,431c-4.06,15.71-6.51,29.66-6.61,30.24A16,16,0,0,0,48,480a15.68,15.68,0,0,0,2.64-.22c.58-.1,14.44-2.43,30.13-6.44,31.07-7.94,41.05-15.24,45.85-20L306.39,273.55a2,2,0,0,1,2.82,0l9.92,9.92a48,48,0,0,0,67.92-67.93L385.46,214c-5-5-2.52-12.11,4.32-17.14l69.75-53.94A17.82,17.82,0,0,0,461,141.6a63.2,63.2,0,0,0,19-45A63.88,63.88,0,0,0,461.05,51ZM250.78,283.9c-2.92,2.92-16.18,7.92-23.39.71s-2.24-20.42.69-23.35l33-33a2,2,0,0,1,2.83,0l19.84,19.83a2,2,0,0,1,0,2.83Z"/></svg>