<svg xmlns="http://www.w3.org/2000/svg" width="512" height="512" viewBox="0 0 512 512"><title>ionicons-v5-l</title><path d="M322,416c0,35.35-20.65,64-56,64H134c-35.35,0-56-28.65-56-64" style="fill:none;stroke:#000;stroke-linecap:round;stroke-miterlimit:10;stroke-width:32px"/><path d="M336,336c17.67,0,32,17.91,32,40h0c0,22.09-14.33,40-32,40H64c-17.67,0-32-17.91-32-40h0c0-22.09,14.33-40,32-40" style="fill:none;stroke:#000;stroke-linecap:round;stroke-miterlimit:10;stroke-width:32px"/><path d="M344,336H179.31a8,8,0,0,0-5.65,2.34l-26.83,26.83a4,4,0,0,1-5.66,0l-26.83-26.83a8,8,0,0,0-5.65-2.34H56a24,24,0,0,1-24-24h0a24,24,0,0,1,24-24H344a24,24,0,0,1,24,24h0A24,24,0,0,1,344,336Z" style="fill:none;stroke:#000;stroke-linecap:round;stroke-miterlimit:10;stroke-width:32px"/><path d="M64,276v-.22c0-55,45-83.78,100-83.78h72c55,0,100,29,100,84v-.22" style="fill:none;stroke:#000;stroke-linecap:round;stroke-miterlimit:10;stroke-width:32px"/><line x1="241" y1="112" x2="248.44" y2="175.97" style="fill:none;stroke:#000;stroke-linecap:round;stroke-miterlimit:10;stroke-width:32px"/><path d="M256,480H395.31a32,32,0,0,0,31.91-29.61L463,112" style="fill:none;stroke:#000;stroke-linecap:round;stroke-miterlimit:10;stroke-width:32px"/><polyline points="368 112 384 48 431 32" style="fill:none;stroke:#000;stroke-linecap:round;stroke-linejoin:round;stroke-width:32px"/><line x1="224" y1="112" x2="480" y2="112" style="fill:none;stroke:#000;stroke-linecap:round;stroke-miterlimit:10;stroke-width:32px"/></svg>