<svg xmlns="http://www.w3.org/2000/svg" width="512" height="512" viewBox="0 0 512 512"><title>ionicons-v5-l</title><path d="M384,352H184.36l-41,35-41-35H16v24c0,30.59,21.13,55.51,47.26,56,2.43,15.12,8.31,28.78,17.16,39.47C93.51,487.28,112.54,496,134,496H266c21.46,0,40.49-8.72,53.58-24.55,8.85-10.69,14.73-24.35,17.16-39.47,13.88-.25,26.35-7.4,35-18.63A61.26,61.26,0,0,0,384,376Z"/><path d="M105,320h0l38.33,28.19L182,320H384v-8a40.07,40.07,0,0,0-32-39.2c-.82-29.69-13-54.54-35.51-72C295.67,184.56,267.85,176,236,176H164c-68.22,0-114.43,38.77-116,96.8A40.07,40.07,0,0,0,16,312v8h89Z"/><path d="M463.08,96H388.49l8.92-35.66L442,45,432,16,370,36,355.51,96H208v32h18.75l1.86,16H236c39,0,73.66,10.9,100.12,31.52A121.9,121.9,0,0,1,371,218.07a124.16,124.16,0,0,1,10.73,32.65,72,72,0,0,1,27.89,90.9A96,96,0,0,1,416,376c0,22.34-7.6,43.63-21.4,59.95a80,80,0,0,1-31.83,22.95,109.21,109.21,0,0,1-18.53,33c-1.18,1.42-2.39,2.81-3.63,4.15H416c16,0,23-8,25-23l36.4-345H496V96Z"/></svg>