<svg xmlns="http://www.w3.org/2000/svg" width="512" height="512" viewBox="0 0 512 512"><title>ionicons-v5-g</title><path d="M436,80H76a44.05,44.05,0,0,0-44,44V388a44.05,44.05,0,0,0,44,44H436a44.05,44.05,0,0,0,44-44V124A44.05,44.05,0,0,0,436,80ZM112,388a12,12,0,0,1-12,12H76a12,12,0,0,1-12-12V364a12,12,0,0,1,12-12h24a12,12,0,0,1,12,12Zm0-80a12,12,0,0,1-12,12H76a12,12,0,0,1-12-12V284a12,12,0,0,1,12-12h24a12,12,0,0,1,12,12Zm0-80a12,12,0,0,1-12,12H76a12,12,0,0,1-12-12V204a12,12,0,0,1,12-12h24a12,12,0,0,1,12,12Zm0-80a12,12,0,0,1-12,12H76a12,12,0,0,1-12-12V124a12,12,0,0,1,12-12h24a12,12,0,0,1,12,12ZM353.68,272H158.32a16,16,0,0,1,0-32H353.68a16,16,0,1,1,0,32ZM448,388a12,12,0,0,1-12,12H412a12,12,0,0,1-12-12V364a12,12,0,0,1,12-12h24a12,12,0,0,1,12,12Zm0-80a12,12,0,0,1-12,12H412a12,12,0,0,1-12-12V284a12,12,0,0,1,12-12h24a12,12,0,0,1,12,12Zm0-80a12,12,0,0,1-12,12H412a12,12,0,0,1-12-12V204a12,12,0,0,1,12-12h24a12,12,0,0,1,12,12Zm0-80a12,12,0,0,1-12,12H412a12,12,0,0,1-12-12V124a12,12,0,0,1,12-12h24a12,12,0,0,1,12,12Z"/></svg>