<svg xmlns="http://www.w3.org/2000/svg" width="512" height="512" viewBox="0 0 512 512"><title>ionicons-v5-d</title><path d="M218.31,340.69A16,16,0,0,0,191,352v32H171a28,28,0,0,1-28-28V152a64,64,0,1,0-64-1.16V356a92.1,92.1,0,0,0,92,92h20v32a16,16,0,0,0,27.31,11.31l64-64a16,16,0,0,0,0-22.62ZM112,64A32,32,0,1,1,80,96,32,32,0,0,1,112,64Z"/><path d="M432,360.61V156a92.1,92.1,0,0,0-92-92H320V32a16,16,0,0,0-27.31-11.31l-64,64a16,16,0,0,0,0,22.62l64,64A16,16,0,0,0,320,160V128h20a28,28,0,0,1,28,28V360.61a64,64,0,1,0,64,0ZM400,448a32,32,0,1,1,32-32A32,32,0,0,1,400,448Z"/></svg>