<svg xmlns="http://www.w3.org/2000/svg" width="512" height="512" viewBox="0 0 512 512"><title>ionicons-v5-e</title><path d="M256,48C141.13,48,48,141.13,48,256s93.13,208,208,208,208-93.13,208-208S370.87,48,256,48Z" style="fill:none;stroke:#000;stroke-miterlimit:10;stroke-width:32px"/><path d="M256,48c-58.07,0-112.67,93.13-112.67,208S197.93,464,256,464s112.67-93.13,112.67-208S314.07,48,256,48Z" style="fill:none;stroke:#000;stroke-miterlimit:10;stroke-width:32px"/><path d="M117.33,117.33c38.24,27.15,86.38,43.34,138.67,43.34s100.43-16.19,138.67-43.34" style="fill:none;stroke:#000;stroke-linecap:round;stroke-linejoin:round;stroke-width:32px"/><path d="M394.67,394.67c-38.24-27.15-86.38-43.34-138.67-43.34s-100.43,16.19-138.67,43.34" style="fill:none;stroke:#000;stroke-linecap:round;stroke-linejoin:round;stroke-width:32px"/><line x1="256" y1="48" x2="256" y2="464" style="fill:none;stroke:#000;stroke-miterlimit:10;stroke-width:32px"/><line x1="464" y1="256" x2="48" y2="256" style="fill:none;stroke:#000;stroke-miterlimit:10;stroke-width:32px"/></svg>