<svg xmlns="http://www.w3.org/2000/svg" width="512" height="512" viewBox="0 0 512 512"><title>ionicons-v5-f</title><path d="M448,256c0-106-86-192-192-192S64,150,64,256s86,192,192,192S448,362,448,256Z" style="fill:none;stroke:#000;stroke-miterlimit:10;stroke-width:32px"/><path d="M256,360a16,16,0,0,1-9-2.78c-39.3-26.68-56.32-45-65.7-56.41-20-24.37-29.58-49.4-29.3-76.5.31-31.06,25.22-56.33,55.53-56.33,20.4,0,35,10.63,44.1,20.41a6,6,0,0,0,8.72,0c9.11-9.78,23.7-20.41,44.1-20.41,30.31,0,55.22,25.27,55.53,56.33.28,27.1-9.31,52.13-29.3,76.5-9.38,11.44-26.4,29.73-65.7,56.41A16,16,0,0,1,256,360Z"/></svg>