<svg xmlns="http://www.w3.org/2000/svg" width="512" height="512" viewBox="0 0 512 512"><title>ionicons-v5-o</title><path d="M256,48C141.31,48,48,141.31,48,256s93.31,208,208,208,208-93.31,208-208S370.69,48,256,48ZM192,335.5a16,16,0,0,1-16,16H160a16,16,0,0,1-16-16v-16a16,16,0,0,1,16-16h16a16,16,0,0,1,16,16Zm0-71a16,16,0,0,1-16,16H160a16,16,0,0,1-16-16v-16a16,16,0,0,1,16-16h16a16,16,0,0,1,16,16Zm0-72a16,16,0,0,1-16,16H160a16,16,0,0,1-16-16v-16a16,16,0,0,1,16-16h16a16,16,0,0,1,16,16Zm176,151H212.67v-32H368Zm0-71H212.67v-32H368Zm0-72H212.67v-32H368Z"/></svg>