<svg xmlns="http://www.w3.org/2000/svg" width="512" height="512" viewBox="0 0 512 512"><title>ionicons-v5_logos</title><path d="M478.8,208.2a36,36,0,1,1-36-36A36,36,0,0,1,478.8,208.2ZM442.6,139a69.42,69.42,0,0,0-69.4,68.7l-43.2,62a48.86,48.86,0,0,0-5.4-.3,51.27,51.27,0,0,0-26.4,7.3L102.4,198a51.8,51.8,0,1,0-50.6,62.9,51.27,51.27,0,0,0,26.4-7.3L274,332.2a51.76,51.76,0,0,0,102.1-5.9l66.5-48.6a69.35,69.35,0,1,0,0-138.7Zm0,22.9a46.45,46.45,0,1,1-46.5,46.5A46.54,46.54,0,0,1,442.6,161.9Zm-390.8,9a38.18,38.18,0,0,1,33.7,20.2l-18.9-7.6v.1a30.21,30.21,0,0,0-22.6,56v.1l16.1,6.4a36.8,36.8,0,0,1-8.2.9,38.05,38.05,0,0,1-.1-76.1ZM324.6,283.1A38.1,38.1,0,1,1,290.9,339c6.3,2.5,12.5,5,18.8,7.6a30.27,30.27,0,1,0,22.5-56.2L316.3,284A46.83,46.83,0,0,1,324.6,283.1Z"/></svg>