<svg xmlns="http://www.w3.org/2000/svg" width="512" height="512" viewBox="0 0 512 512"><title>ionicons-v5_logos</title><path d="M188.8,255.93A67.2,67.2,0,1,0,256,188.75,67.38,67.38,0,0,0,188.8,255.93Z"/><path d="M476.75,217.79s0,0,0,.05a206.63,206.63,0,0,0-7-28.84h-.11a202.16,202.16,0,0,1,7.07,29h0a203.5,203.5,0,0,0-7.07-29H314.24c19.05,17,31.36,40.17,31.36,67.05a86.55,86.55,0,0,1-12.31,44.73L231,478.45a2.44,2.44,0,0,1,0,.27V479h0v-.26A224,224,0,0,0,256,480c6.84,0,13.61-.39,20.3-1a222.91,222.91,0,0,0,29.78-4.74C405.68,451.52,480,362.4,480,255.94A225.25,225.25,0,0,0,476.75,217.79Z"/><path d="M256,345.5c-33.6,0-61.6-17.91-77.29-44.79L76,123.05l-.14-.24A224,224,0,0,0,207.4,474.55l0-.05,77.69-134.6A84.13,84.13,0,0,1,256,345.5Z"/><path d="M91.29,104.57l77.35,133.25A89.19,89.19,0,0,1,256,166H461.17a246.51,246.51,0,0,0-25.78-43.94l.12.08A245.26,245.26,0,0,1,461.17,166h.17a245.91,245.91,0,0,0-25.66-44,2.63,2.63,0,0,1-.35-.26A223.93,223.93,0,0,0,91.14,104.34l.14.24Z"/></svg>