<svg xmlns="http://www.w3.org/2000/svg" width="512" height="512" viewBox="0 0 512 512"><title>ionicons-v5_logos</title><path d="M126.8,248.3c39.7-58.6,77.9-92.8,77.9-92.8s-42.1-48.9-92.8-67.4l-3.3-.8A224.13,224.13,0,0,0,77.2,391C77.2,386.6,77.8,320.7,126.8,248.3Z"/><path d="M480,256A223.71,223.71,0,0,0,403.4,87.3l-3.2.9c-50.7,18.5-92.9,67.4-92.9,67.4s38.2,34.2,77.9,92.8c49,72.4,49.6,138.3,49.5,142.7A222.8,222.8,0,0,0,480,256Z"/><path d="M201.2,80.9c29.3,13.1,54.6,34.6,54.6,34.6s25.5-21.4,54.8-34.6c36.8-16.5,64.9-11.3,72.3-9.5a224.06,224.06,0,0,0-253.8,0C136.3,69.6,164.3,64.3,201.2,80.9Z"/><path d="M358.7,292.9C312.4,236,255.8,199,255.8,199s-56.3,37-102.7,93.9c-39.8,48.9-54.6,84.8-62.6,107.8l-1.3,4.8a224,224,0,0,0,333.6,0l-1.4-4.8C413.4,377.7,398.5,341.8,358.7,292.9Z"/></svg>