<svg xmlns="http://www.w3.org/2000/svg" width="512" height="512" viewBox="0 0 512 512"><title>ionicons-v5_logos</title><path d="M86.76,255a9.89,9.89,0,0,0,4.87-1.29,9.82,9.82,0,0,0,3.65-13.43c-16.46-28.56-17.81-52.12-7.45-70,14.26-24.57,53.61-33.65,105.27-24.29a9.86,9.86,0,0,0,11.45-7.9,9.84,9.84,0,0,0-7.93-11.44c-29.19-5.28-56-5.18-77.39.3-22.3,5.71-39,17.28-48.45,33.48-14,24.19-12.7,54.73,7.42,89.62A9.85,9.85,0,0,0,86.76,255Z"/><path d="M361.61,143.73c32.24.42,52.61,9.31,62.79,26.86,14.21,24.48,2.52,62.81-31.27,102.52a9.82,9.82,0,0,0,7.51,16.18,9.88,9.88,0,0,0,7.52-3.46c19.12-22.47,32.35-45.54,38.25-66.71,6.14-22,4.43-42.21-5-58.38-13.8-23.78-40.13-36.15-79.59-36.67h-.14a9.83,9.83,0,0,0-.12,19.66Z"/><path d="M326.47,414.89a9.88,9.88,0,0,0-13.5,3.35c-16.41,27.15-36.57,42.1-56.77,42.1-28.49,0-56-29.31-73.73-78.42A9.87,9.87,0,0,0,169.88,376a9.83,9.83,0,0,0-6,12.58c10,27.77,23.47,50.75,39,66.46,16.11,16.34,34.55,25,53.32,25,27.38,0,53.54-18.33,73.65-51.61a9.81,9.81,0,0,0-3.38-13.5Z"/><path d="M431.7,338.54a32.14,32.14,0,0,0-29.9,44.33C360,402.37,282,387.66,209.93,346.25c-32.91-18.9-62.16-41.86-84.6-66.39a9.9,9.9,0,0,0-13.91-.65,9.8,9.8,0,0,0-.65,13.9c23.79,26,54.68,50.28,89.33,70.18,40.28,23.13,82.27,38.63,121.43,44.81a225.54,225.54,0,0,0,35,2.91c23.12,0,43-4.3,58.51-12.79a32.2,32.2,0,1,0,16.7-59.68Zm0,44.66a12.6,12.6,0,0,1-7.82-2.72,10,10,0,0,0-2.2-2.21,12.61,12.61,0,1,1,10,4.93Z"/><path d="M82.09,338.59c.57-21.26,12.41-47,33.68-73.16,23.19-28.45,56.69-56,94.34-77.65,33.25-19.1,65.2-31.9,98.07-38.91a9.83,9.83,0,1,0-4.12-19.22c-34.85,7.43-68.78,21-103.79,41.09C116.09,219.09,59.9,289.88,62.46,343.9a32.32,32.32,0,1,0,19.63-5.31ZM80.3,383.2a12.5,12.5,0,1,1,12.59-12.5A12.56,12.56,0,0,1,80.3,383.2Z"/><path d="M256.2,96.32a32.23,32.23,0,0,0,26.53-13.81c17.89,11.69,34,35,45.81,66.12,13,34.39,19.84,75.38,19.84,118.54,0,37.18-5.19,72.35-15,103.6a9.72,9.72,0,0,0,.66,7.49,9.82,9.82,0,0,0,5.8,4.84,9.89,9.89,0,0,0,12.34-6.44c10.42-33.14,15.93-70.34,15.93-109.49,0-47.17-7.77-91.77-22.47-129-14.41-36.48-34.13-62.4-57.14-75.16A32.3,32.3,0,1,0,256.2,96.32Zm0-44.66a12.5,12.5,0,1,1-12.59,12.5A12.56,12.56,0,0,1,256.2,51.66Z"/><path d="M251,243.36h0a24.35,24.35,0,0,0,5.16,48.16,24.68,24.68,0,0,0,5.16-.55A24.36,24.36,0,1,0,251,243.36Z"/></svg>