<svg xmlns="http://www.w3.org/2000/svg" width="512" height="512" viewBox="0 0 512 512"><title>ionicons-v5-o</title><line x1="191.98" y1="463.79" x2="191.98" y2="415.79" style="stroke:#000;stroke-linecap:round;stroke-miterlimit:10;stroke-width:32px"/><line x1="90.16" y1="421.61" x2="124.1" y2="387.67" style="stroke:#000;stroke-linecap:round;stroke-miterlimit:10;stroke-width:32px"/><line x1="47.98" y1="319.79" x2="95.98" y2="319.79" style="stroke:#000;stroke-linecap:round;stroke-miterlimit:10;stroke-width:32px"/><path d="M267.56,312.32l-31.11,31.11a16,16,0,0,0,0,22.63l45.26,45.25a16,16,0,0,0,22.62,0l31.12-31.11a4,4,0,0,0,0-5.66l-62.23-62.22A4,4,0,0,0,267.56,312.32Z"/><path d="M131.8,176.55l-31.11,31.12a16,16,0,0,0,0,22.62l45.25,45.26a16,16,0,0,0,22.63,0l31.11-31.11a4,4,0,0,0,0-5.66l-62.22-62.23A4,4,0,0,0,131.8,176.55Z"/><path d="M428.85,83.28a144,144,0,0,0-203.71-.06l-65.06,65.05a4,4,0,0,0,0,5.66l62.23,62.22a4,4,0,0,0,5.66,0l65-65.05a48,48,0,0,1,68.46.59c18.3,18.92,17.47,49.24-1.14,67.85L295.85,284a4,4,0,0,0,0,5.66l62.22,62.23a4,4,0,0,0,5.66,0l64.08-64.08C484.18,231.47,485.18,139.68,428.85,83.28Z"/></svg>