<svg xmlns="http://www.w3.org/2000/svg" width="512" height="512" viewBox="0 0 512 512"><title>ionicons-v5-g</title><path d="M256,48C141.31,48,48,141.31,48,256s93.31,208,208,208,208-93.31,208-208S370.69,48,256,48ZM208,176a48.14,48.14,0,0,1,48-48h0a48.14,48.14,0,0,1,48,48v64a48.14,48.14,0,0,1-48,48h0a48.14,48.14,0,0,1-48-48Zm144,72.22c0,23.36-10.94,45.61-30.79,62.66A103.71,103.71,0,0,1,272,334.26V352h32v32H208V352h32V334.26a103.71,103.71,0,0,1-49.21-23.38C170.94,293.83,160,271.58,160,248.22V208.3h32v39.92c0,25.66,28,55.48,64,55.48,29.6,0,64-24.23,64-55.48V208.3h32Z"/></svg>