<svg xmlns="http://www.w3.org/2000/svg" width="512" height="512" viewBox="0 0 512 512"><title>ionicons-v5-n</title><path d="M368,415.86V72a24.07,24.07,0,0,0-24-24H72A24.07,24.07,0,0,0,48,72V424a40.12,40.12,0,0,0,40,40H416" style="fill:none;stroke:#000;stroke-linejoin:round;stroke-width:32px"/><path d="M416,464h0a48,48,0,0,1-48-48V128h72a24,24,0,0,1,24,24V416A48,48,0,0,1,416,464Z" style="fill:none;stroke:#000;stroke-linejoin:round;stroke-width:32px"/><line x1="240" y1="128" x2="304" y2="128" style="fill:none;stroke:#000;stroke-linecap:round;stroke-linejoin:round;stroke-width:32px"/><line x1="240" y1="192" x2="304" y2="192" style="fill:none;stroke:#000;stroke-linecap:round;stroke-linejoin:round;stroke-width:32px"/><line x1="112" y1="256" x2="304" y2="256" style="fill:none;stroke:#000;stroke-linecap:round;stroke-linejoin:round;stroke-width:32px"/><line x1="112" y1="320" x2="304" y2="320" style="fill:none;stroke:#000;stroke-linecap:round;stroke-linejoin:round;stroke-width:32px"/><line x1="112" y1="384" x2="304" y2="384" style="fill:none;stroke:#000;stroke-linecap:round;stroke-linejoin:round;stroke-width:32px"/><path d="M176,208H112a16,16,0,0,1-16-16V128a16,16,0,0,1,16-16h64a16,16,0,0,1,16,16v64A16,16,0,0,1,176,208Z"/></svg>