<svg xmlns="http://www.w3.org/2000/svg" width="512" height="512" viewBox="0 0 512 512"><title>ionicons-v5-j</title><path d="M402,168c-2.93,40.67-33.1,72-66,72s-63.12-31.32-66-72c-3-42.31,26.37-72,66-72S405,126.46,402,168Z" style="fill:none;stroke:#000;stroke-linecap:round;stroke-linejoin:round;stroke-width:32px"/><path d="M336,304c-65.17,0-127.84,32.37-143.54,95.41-2.08,8.34,3.15,16.59,11.72,16.59H467.83c8.57,0,13.77-8.25,11.72-16.59C463.85,335.36,401.18,304,336,304Z" style="fill:none;stroke:#000;stroke-miterlimit:10;stroke-width:32px"/><path d="M200,185.94C197.66,218.42,173.28,244,147,244S96.3,218.43,94,185.94C91.61,152.15,115.34,128,147,128S202.39,152.77,200,185.94Z" style="fill:none;stroke:#000;stroke-linecap:round;stroke-linejoin:round;stroke-width:32px"/><path d="M206,306c-18.05-8.27-37.93-11.45-59-11.45-52,0-102.1,25.85-114.65,76.2C30.7,377.41,34.88,384,41.72,384H154" style="fill:none;stroke:#000;stroke-linecap:round;stroke-miterlimit:10;stroke-width:32px"/></svg>