<svg xmlns="http://www.w3.org/2000/svg" width="512" height="512" viewBox="0 0 512 512"><title>ionicons-v5-p</title><path d="M81,274.71C90.36,363,165.26,432,256,432a174.91,174.91,0,0,0,71.49-15.19c-40.3-16.53-84.05-38.17-127.77-63.36C157,328.86,115.84,301.5,81,274.71Z"/><path d="M492.72,339.51c-8.5-11.31-20-23.8-34-37a205.25,205.25,0,0,1-11,34c28.72,29.5,33.2,45.34,32.17,48.45-2,2.23-17.05,6.89-58.15-3.53q-8.83-2.24-19.32-5.46-6.76-2.08-13.79-4.49h0a176.76,176.76,0,0,0,19.54-27.25c.17-.29.35-.58.52-.88A175.39,175.39,0,0,0,432,256,178.87,178.87,0,0,0,431,237C421.43,148.83,346.6,80,256,80A175.37,175.37,0,0,0,149.6,115.89a177.4,177.4,0,0,0-45.83,51.84c-.16.29-.34.58-.51.87a175.48,175.48,0,0,0-13.83,30.52q-5.59-4.87-10.79-9.67c-5.39-5-10.17-9.63-14.42-14C34.65,145.19,31.13,129.84,32.06,127c2.16-2.43,18.1-6.54,58.13,3.55a209.88,209.88,0,0,1,24-26.56c-18.86-5.61-35.79-9.35-50.05-11C33.41,89.47,13.3,95.52,4.35,111,1.11,116.58-2,126.09,1.63,139.6,7,159.66,26.14,184,53.23,209.5c8.63,8.13,18.06,16.37,28.12,24.64,7.32,6,15,12.06,22.9,18.08q7.91,6,16.15,12T137.1,276c25.41,17.61,52.26,34.52,78.59,49.69q14.34,8.26,28.64,16t28.37,14.81c21.9,11,43.35,20.92,63.86,29.43q13.19,5.48,25.81,10.16c11.89,4.42,23.37,8.31,34.31,11.59l1.1.33c25.73,7.66,47.42,11.69,64.48,12H464c21.64,0,36.3-6.38,43.58-19C516.67,385.39,511.66,364.69,492.72,339.51Z"/></svg>