<svg xmlns="http://www.w3.org/2000/svg" width="512" height="512" viewBox="0 0 512 512"><title>ionicons-v5-b</title><path d="M256,48C141.31,48,48,141.31,48,256s93.31,208,208,208,208-93.31,208-208S370.69,48,256,48ZM376,230.15a8.62,8.62,0,0,1-8.62,8.62H307.84a8.61,8.61,0,0,1-6.09-14.71l22.17-22.17-5.6-6.51a87.38,87.38,0,1,0-62.94,148,87.55,87.55,0,0,0,82.42-58.25A16,16,0,1,1,368,295.8,119.4,119.4,0,1,1,255.38,136.62a118.34,118.34,0,0,1,86.36,36.95l.56.62,4.31,5,14.68-14.68a8.44,8.44,0,0,1,6-2.54,8.61,8.61,0,0,1,8.68,8.63Z"/></svg>