<svg xmlns="http://www.w3.org/2000/svg" width="512" height="512" viewBox="0 0 512 512"><title>ionicons-v5-q</title><path d="M256,176a80,80,0,1,0,80,80A80.24,80.24,0,0,0,256,176Zm172.72,80a165.53,165.53,0,0,1-1.64,22.34l48.69,38.12a11.59,11.59,0,0,1,2.63,14.78l-46.06,79.52a11.64,11.64,0,0,1-14.14,4.93l-57.25-23a176.56,176.56,0,0,1-38.82,22.67l-8.56,60.78A11.93,11.93,0,0,1,302.06,486H209.94a12,12,0,0,1-11.51-9.53l-8.56-60.78A169.3,169.3,0,0,1,151.05,393L93.8,416a11.64,11.64,0,0,1-14.14-4.92L33.6,331.57a11.59,11.59,0,0,1,2.63-14.78l48.69-38.12A174.58,174.58,0,0,1,83.28,256a165.53,165.53,0,0,1,1.64-22.34L36.23,195.54a11.59,11.59,0,0,1-2.63-14.78l46.06-79.52A11.64,11.64,0,0,1,93.8,96.31l57.25,23a176.56,176.56,0,0,1,38.82-22.67l8.56-60.78A11.93,11.93,0,0,1,209.94,26h92.12a12,12,0,0,1,11.51,9.53l8.56,60.78A169.3,169.3,0,0,1,361,119L418.2,96a11.64,11.64,0,0,1,14.14,4.92l46.06,79.52a11.59,11.59,0,0,1-2.63,14.78l-48.69,38.12A174.58,174.58,0,0,1,428.72,256Z"/></svg>