<svg xmlns="http://www.w3.org/2000/svg" width="512" height="512" viewBox="0 0 512 512"><title>ionicons-v5-q</title><path d="M425.7,118.25A240,240,0,0,0,76.32,447l.18.2c.33.35.64.71,1,1.05.74.84,1.58,1.79,2.57,2.78a41.17,41.17,0,0,0,60.36-.42,157.13,157.13,0,0,1,231.26,0,41.18,41.18,0,0,0,60.65.06l3.21-3.5.18-.2a239.93,239.93,0,0,0-10-328.76ZM240,128a16,16,0,0,1,32,0v32a16,16,0,0,1-32,0ZM128,304H96a16,16,0,0,1,0-32h32a16,16,0,0,1,0,32Zm48.8-95.2a16,16,0,0,1-22.62,0l-22.63-22.62a16,16,0,0,1,22.63-22.63l22.62,22.63A16,16,0,0,1,176.8,208.8Zm149.3,23.1-47.5,75.5a31,31,0,0,1-7,7,30.11,30.11,0,0,1-35-49l75.5-47.5a10.23,10.23,0,0,1,11.7,0A10.06,10.06,0,0,1,326.1,231.9Zm31.72-23.1a16,16,0,0,1-22.62-22.62l22.62-22.63a16,16,0,0,1,22.63,22.63ZM423.7,436.4h0ZM416,304H384a16,16,0,0,1,0-32h32a16,16,0,0,1,0,32Z"/></svg>