<svg xmlns="http://www.w3.org/2000/svg" width="512" height="512" viewBox="0 0 512 512"><title>ionicons-v5-q</title><path d="M104,496H72a24,24,0,0,1-24-24V328a24,24,0,0,1,24-24h32a24,24,0,0,1,24,24V472A24,24,0,0,1,104,496Z"/><path d="M328,496H296a24,24,0,0,1-24-24V232a24,24,0,0,1,24-24h32a24,24,0,0,1,24,24V472A24,24,0,0,1,328,496Z"/><path d="M440,496H408a24,24,0,0,1-24-24V120a24,24,0,0,1,24-24h32a24,24,0,0,1,24,24V472A24,24,0,0,1,440,496Z"/><path d="M216,496H184a24,24,0,0,1-24-24V40a24,24,0,0,1,24-24h32a24,24,0,0,1,24,24V472A24,24,0,0,1,216,496Z"/></svg>