<svg xmlns="http://www.w3.org/2000/svg" width="512" height="512" viewBox="0 0 512 512"><title>ionicons-v5-q</title><rect x="48" y="80" width="416" height="384" rx="48" ry="48" style="fill:none;stroke:#000;stroke-linejoin:round;stroke-width:32px"/><path d="M397.82,80H114.18C77.69,80,48,110.15,48,147.2V192h8c0-16,24-32,40-32H416c16,0,40,16,40,32h8V147.2C464,110.15,434.31,80,397.82,80Z"/><line x1="128" y1="48" x2="128" y2="80" style="fill:none;stroke:#000;stroke-linecap:round;stroke-linejoin:round;stroke-width:32px"/><line x1="384" y1="48" x2="384" y2="80" style="fill:none;stroke:#000;stroke-linecap:round;stroke-linejoin:round;stroke-width:32px"/><rect x="96" y="208" width="128" height="128" rx="28.57" ry="28.57"/><path d="M464,256V208a48.14,48.14,0,0,0-48-48H96a48.14,48.14,0,0,0-48,48v48" style="fill:none;stroke:#000;stroke-linejoin:round;stroke-width:32px"/></svg>