<svg xmlns="http://www.w3.org/2000/svg" width="512" height="512" viewBox="0 0 512 512"><title>ionicons-v5-q</title><path d="M416,64H400V48.45c0-8.61-6.62-16-15.23-16.43A16,16,0,0,0,368,48V64H144V48.45c0-8.61-6.62-16-15.23-16.43A16,16,0,0,0,112,48V64H96a64,64,0,0,0-64,64V416a64,64,0,0,0,64,64H416a64,64,0,0,0,64-64V128A64,64,0,0,0,416,64ZM224,307.43A28.57,28.57,0,0,1,195.43,336H124.57A28.57,28.57,0,0,1,96,307.43V236.57A28.57,28.57,0,0,1,124.57,208h70.86A28.57,28.57,0,0,1,224,236.57ZM448,136v20a4,4,0,0,1-4,4H68a4,4,0,0,1-4-4V128A32.09,32.09,0,0,1,96,96H416a32.09,32.09,0,0,1,32,32Z"/></svg>