<svg xmlns="http://www.w3.org/2000/svg" width="512" height="512" viewBox="0 0 512 512"><title>ionicons-v5-l</title><line x1="256" y1="400" x2="256" y2="464" style="fill:none;stroke:#000;stroke-linecap:round;stroke-linejoin:round;stroke-width:32px"/><line x1="256" y1="208" x2="256" y2="272" style="fill:none;stroke:#000;stroke-linecap:round;stroke-linejoin:round;stroke-width:32px"/><line x1="256" y1="48" x2="256" y2="80" style="fill:none;stroke:#000;stroke-linecap:round;stroke-linejoin:round;stroke-width:32px"/><path d="M416,208H102.63a16,16,0,0,1-11.32-4.69L32,144,91.31,84.69A16,16,0,0,1,102.63,80H416a16,16,0,0,1,16,16v96A16,16,0,0,1,416,208Z" style="fill:none;stroke:#000;stroke-linecap:round;stroke-linejoin:round;stroke-width:32px"/><path d="M96,400H409.37a16,16,0,0,0,11.32-4.69L480,336l-59.31-59.31A16,16,0,0,0,409.37,272H96a16,16,0,0,0-16,16v96A16,16,0,0,0,96,400Z" style="fill:none;stroke:#000;stroke-linecap:round;stroke-linejoin:round;stroke-width:32px"/></svg>