<svg xmlns="http://www.w3.org/2000/svg" width="512" height="512" viewBox="0 0 512 512"><title>ionicons-v5-l</title><path d="M491.31,324.69,432,265.37A31.8,31.8,0,0,0,409.37,256H272V224H416a32,32,0,0,0,32-32V96a32,32,0,0,0-32-32H272V48a16,16,0,0,0-32,0V64H102.63A31.8,31.8,0,0,0,80,73.37L20.69,132.69a16,16,0,0,0,0,22.62L80,214.63A31.8,31.8,0,0,0,102.63,224H240v32H96a32,32,0,0,0-32,32v96a32,32,0,0,0,32,32H240v48a16,16,0,0,0,32,0V416H409.37A31.8,31.8,0,0,0,432,406.63l59.31-59.32A16,16,0,0,0,491.31,324.69Z"/></svg>