<svg xmlns="http://www.w3.org/2000/svg" width="512" height="512" viewBox="0 0 512 512"><title>ionicons-v5-k</title><polygon points="337.46 240 312 214.54 256 270.54 200 214.54 174.54 240 230.54 296 174.54 352 200 377.46 256 321.46 312 377.46 337.46 352 281.46 296 337.46 240" style="fill:none"/><polygon points="337.46 240 312 214.54 256 270.54 200 214.54 174.54 240 230.54 296 174.54 352 200 377.46 256 321.46 312 377.46 337.46 352 281.46 296 337.46 240" style="fill:none"/><path d="M64,160,93.74,442.51A24,24,0,0,0,117.61,464H394.39a24,24,0,0,0,23.87-21.49L448,160ZM312,377.46l-56-56-56,56L174.54,352l56-56-56-56L200,214.54l56,56,56-56L337.46,240l-56,56,56,56Z"/><rect x="32" y="48" width="448" height="80" rx="12" ry="12"/></svg>