<svg xmlns="http://www.w3.org/2000/svg" width="512" height="512" viewBox="0 0 512 512"><title>ionicons-v5-q</title><path d="M256,272V432a32,32,0,0,1-32,32h0a32,32,0,0,1-32-32" style="fill:none;stroke:#000;stroke-linecap:round;stroke-linejoin:round;stroke-width:32px"/><path d="M464,272c0-114.88-93.12-208-208-208S48,157.12,48,272h0a67.88,67.88,0,0,1,96,0h0a78.28,78.28,0,0,1,102.31-7.27L256,272l9.69-7.27A78.28,78.28,0,0,1,368,272h0a67.88,67.88,0,0,1,96,0Z" style="fill:none;stroke:#000;stroke-linecap:round;stroke-linejoin:round;stroke-width:32px"/><line x1="256" y1="64" x2="256" y2="48" style="fill:none;stroke:#000;stroke-linecap:round;stroke-linejoin:round;stroke-width:32px"/></svg>