<svg xmlns="http://www.w3.org/2000/svg" width="512" height="512" viewBox="0 0 512 512"><title>ionicons-v5-g</title><line x1="416" y1="432" x2="64" y2="80" style="fill:none;stroke:#000;stroke-linecap:round;stroke-miterlimit:10;stroke-width:32px"/><path d="M243.33,98.86a23.89,23.89,0,0,0-25.55,1.82l-.66.51L188.6,124.54a8,8,0,0,0-.59,11.85l54.33,54.33A8,8,0,0,0,256,185.06V120.57A24.51,24.51,0,0,0,243.33,98.86Z"/><path d="M251.33,335.29,96.69,180.69A16,16,0,0,0,85.38,176H56a24,24,0,0,0-24,24V312a24,24,0,0,0,24,24h69.76l92,75.31A23.9,23.9,0,0,0,243.63,413,24.51,24.51,0,0,0,256,391.45V346.59A16,16,0,0,0,251.33,335.29Z"/><path d="M352,256c0-24.56-5.81-47.87-17.75-71.27a16,16,0,1,0-28.5,14.55C315.34,218.06,320,236.62,320,256q0,4-.31,8.13a8,8,0,0,0,2.32,6.25l14.36,14.36a8,8,0,0,0,13.55-4.31A146,146,0,0,0,352,256Z"/><path d="M416,256c0-51.18-13.08-83.89-34.18-120.06a16,16,0,0,0-27.64,16.12C373.07,184.44,384,211.83,384,256c0,23.83-3.29,42.88-9.37,60.65a8,8,0,0,0,1.9,8.26L389,337.4a8,8,0,0,0,13.13-2.79C411,311.76,416,287.26,416,256Z"/><path d="M480,256c0-74.25-20.19-121.11-50.51-168.61a16,16,0,1,0-27,17.22C429.82,147.38,448,189.5,448,256c0,46.19-8.43,80.27-22.43,110.53a8,8,0,0,0,1.59,9l11.92,11.92A8,8,0,0,0,452,385.29C471.6,344.9,480,305,480,256Z"/></svg>