<svg xmlns="http://www.w3.org/2000/svg" width="512" height="512" viewBox="0 0 512 512"><title>ionicons-v5-r</title><circle cx="255.75" cy="56" r="56"/><path d="M394.63,277.9,384.3,243.49s0-.07,0-.11l-22.46-74.86h-.05l-2.51-8.45a44.87,44.87,0,0,0-43-32.08h-120a44.84,44.84,0,0,0-43,32.08l-2.51,8.45h-.06l-22.46,74.86s0,.07,0,.11L117.88,277.9c-3.12,10.39,2.3,21.66,12.57,25.14a20,20,0,0,0,25.6-13.18l25.58-85.25h0l2.17-7.23A8,8,0,0,1,199.33,200a7.78,7.78,0,0,1-.17,1.61v0L155.43,347.4A16,16,0,0,0,170.75,368h29V482.69c0,16.46,10.53,29.31,24,29.31s24-12.85,24-29.31V368h16V482.69c0,16.46,10.53,29.31,24,29.31s24-12.85,24-29.31V368h30a16,16,0,0,0,15.33-20.6L313.34,201.59a7.52,7.52,0,0,1-.16-1.59,8,8,0,0,1,15.54-2.63l2.17,7.23h0l25.57,85.25A20,20,0,0,0,382.05,303C392.32,299.56,397.74,288.29,394.63,277.9Z"/></svg>