<svg xmlns="http://www.w3.org/2000/svg" width="512" height="512" viewBox="0 0 512 512"><title>ionicons-v5-r</title><path d="M208,368V472a23.73,23.73,0,0,0,24,24h0a23.73,23.73,0,0,0,24-24" style="fill:none;stroke:#000;stroke-linecap:round;stroke-miterlimit:10;stroke-width:32px"/><path d="M256,368V472a23.73,23.73,0,0,0,24,24h0a23.73,23.73,0,0,0,24-24V368" style="fill:none;stroke:#000;stroke-linecap:round;stroke-miterlimit:10;stroke-width:32px"/><path d="M183,274a23.73,23.73,0,0,1-29.84,16.18h0a23.72,23.72,0,0,1-16.17-29.84l25-84.28A44.85,44.85,0,0,1,205,144H307a44.85,44.85,0,0,1,43,32.08l25,84.28a23.72,23.72,0,0,1-16.17,29.84h0A23.73,23.73,0,0,1,329.05,274" style="fill:none;stroke:#000;stroke-linecap:round;stroke-miterlimit:10;stroke-width:32px"/><circle cx="256" cy="56" r="40" style="fill:none;stroke:#000;stroke-linecap:round;stroke-miterlimit:10;stroke-width:32px"/><polyline points="208 192 160 352 352 352 304 192" style="fill:none;stroke:#000;stroke-linecap:round;stroke-linejoin:round;stroke-width:32px"/></svg>