<svg xmlns="http://www.w3.org/2000/svg" xml:space="preserve" viewBox="0 0 596 120">
  <path fill="#00B4FF" d="M60 7.48c29.006 0 52.52 23.514 52.52 52.52S89.006 112.52 60 112.52 7.48 89.006 7.48 60 30.994 7.48 60 7.48M60 0C26.916 0 0 26.916 0 60s26.916 60 60 60 60-26.916 60-60S93.084 0 60 0z"/>
  <path fill="#FFF" d="M68.595 59.998a8.592 8.592 0 0 1-17.184 0 8.592 8.592 0 0 1 17.184 0zm29.549-22.024a44.026 44.026 0 0 0-6.75-8.824l-9.933 5.735a33.078 33.078 0 0 0-10.371-6.011c-3.391 3.437-6.085 7.277-8.027 11.454 11.057-.752 22.477 3.249 33.079 11.532l6.252-3.609a44.084 44.084 0 0 0-4.25-10.277zm-38.139 66.068a44.045 44.045 0 0 0 11.017-1.433v-11.47a33.092 33.092 0 0 0 10.391-5.976c-1.281-4.655-3.26-8.909-5.906-12.679-4.877 9.952-14.052 17.841-26.527 22.881v7.219a44.075 44.075 0 0 0 11.025 1.458zM21.858 37.979a44.04 44.04 0 0 0-4.267 10.257l9.933 5.735a33.104 33.104 0 0 0-.02 11.987c4.672 1.218 9.345 1.631 13.933 1.225-6.18-9.2-8.425-21.09-6.552-34.413l-6.252-3.609a44.07 44.07 0 0 0-6.775 8.818z"/>
  <path fill="#00B4FF" d="M98.147 82.018a44.04 44.04 0 0 0 4.267-10.257l-9.933-5.735c.742-4.004.737-8.064.02-11.987-4.672-1.218-9.345-1.631-13.933-1.225 6.18 9.2 8.425 21.09 6.552 34.413l6.252 3.609a44.07 44.07 0 0 0 6.775-8.818zm-76.286.004a44.026 44.026 0 0 0 6.75 8.824l9.933-5.735a33.078 33.078 0 0 0 10.371 6.011c3.391-3.437 6.085-7.277 8.027-11.454-11.057.753-22.477-3.249-33.079-11.532l-6.252 3.609a44.048 44.048 0 0 0 4.25 10.277zM60 15.955c-3.718.011-7.42.492-11.017 1.433v11.47a33.092 33.092 0 0 0-10.391 5.976c1.281 4.655 3.26 8.909 5.906 12.679 4.877-9.952 14.052-17.841 26.527-22.881v-7.219A44.03 44.03 0 0 0 60 15.955z"/>
  <path fill="#FFF" d="M263.072 75.468v6.011c-12.74-1.17-21.497-8.104-21.497-24.828V31.105h6.478v25.619c-.001 11.967 5.577 17.56 15.019 18.744zm22.159-44.363v25.619c0 12.311-5.808 17.838-15.019 18.796v6.049c12.795-.895 21.497-7.76 21.497-24.918V31.105h-6.478zm-69.944 26.208v-3.092C215.287 36.479 203.066 30 186.06 30c-16.857 0-28.711 6.479-28.711 24.221v3.092c0 17.816 11.853 24.368 28.711 24.368 2.136 0 4.197-.073 6.111-.294L208.588 90l2.797-4.638-11.412-5.598-8.866-4.324c-1.598.182-3.28.278-5.047.278-13.545 0-22.159-5.374-22.159-18.405v-3.092c0-12.957 8.614-18.257 22.159-18.257 13.767 0 22.675 5.3 22.675 18.257v3.092c0 7.292-2.867 12.111-7.736 15.008l6.69 3.263c4.758-3.885 7.598-9.76 7.598-18.271zm147.177 23.19h7.141l-23.999-49.914h-6.694l23.552 49.914zm-34.748-14.87 10.275-21.863-3.342-7.083-21.067 43.817h7.14l4.565-9.644h25.487l-2.466-5.226h-20.592zm186.046 14.87h7.141l-23.999-49.914h-6.694l23.552 49.914zm-34.749-14.87 10.275-21.863-3.342-7.083-21.067 43.817h7.14l4.565-9.644h25.487l-2.466-5.226h-20.592zm102.705-3.462c8.171-1.693 12.515-7.508 12.515-15.975 0-10.969-6.257-15.091-17.964-15.091h-29.816v49.398h6.331v-43.51h22.97c6.993 0 11.926 1.841 11.926 9.203s-4.933 10.749-11.926 10.749h-15.829v5.743h14.871l13.031 17.815h7.582l-13.691-18.332zm-163.52 13.694c-13.399 0-20.393-3.387-25.841-8.761l-3.091 5.301c7.141 6.92 15.459 9.276 29.227 9.276 2.242 0 4.415-.126 6.5-.364l-2.648-5.611c-1.306.1-2.683.159-4.147.159zm25.62-9.718c0-8.835-6.552-11.927-19.215-13.031l-14.062-1.399c-9.202-.957-12.883-3.092-12.883-7.877 0-3.369 2.004-5.628 6.401-6.888l-2.489-5.277c-6.588 1.964-10.463 5.808-10.463 12.312 0 7.288 4.785 12.221 18.036 13.472l15.755 1.546c8.982.958 12.368 2.945 12.368 7.583 0 3.684-2.934 6.473-8.312 7.992l2.575 5.456c7.304-2.139 12.289-6.503 12.289-13.889zm-28.27-30.405c11.043 0 18.626 2.503 25.252 7.878l2.577-5.375C434.837 31.619 425.929 30 415.991 30c-2.819 0-5.457.127-7.882.402l2.598 5.506a69.968 69.968 0 0 1 4.841-.166z"/>
</svg>
