<svg xmlns="http://www.w3.org/2000/svg" xml:space="preserve" viewBox="0 0 356 360">
  <path fill="#FFF" d="M43.375 303.358c0 3.819-2.286 6.3-7.083 6.3H21.374v-21.902h14.362c4.309 0 6.169 2.122 6.169 5.19 0 2.546-1.501 4.341-3.427 5.027 2.775.326 4.897 2.383 4.897 5.385zm-8.063-12.991H24.181v6.92h10.772c2.155 0 4.08-1.273 4.08-3.786 0-2.154-1.372-3.134-3.721-3.134zm5.19 12.599c0-2.285-1.762-3.623-3.982-3.623H24.181v7.703h11.686c3.394 0 4.635-1.828 4.635-4.08zm36.259 4.08v2.612H56.067v-21.902h20.597v2.611H58.939v6.855h14.525v2.285H58.939v7.539h17.822zm23.073-5.81v8.422h-2.872v-8.486l-10.837-13.415h3.362l8.911 11.131 8.845-11.131h3.362l-10.771 13.479zm19.027-1.86v-1.37c0-7.867 5.255-10.739 12.731-10.739 7.539 0 12.957 2.872 12.957 10.739v1.37c0 7.899-5.418 10.805-12.957 10.805-7.476 0-12.731-2.906-12.731-10.805zm22.783 0v-1.37c0-5.745-3.949-8.095-10.052-8.095-6.007 0-9.826 2.349-9.826 8.095v1.37c0 5.778 3.819 8.16 9.826 8.16 6.102 0 10.052-2.382 10.052-8.16zm37.14-11.62v21.902h-2.872l-15.765-17.855v17.855h-2.807v-21.902h2.872l15.732 17.854v-17.854h2.84zm37.893 10.282v1.305c0 7.801-5.158 10.315-12.405 10.315h-11.195v-21.902h11.195c7.247 0 12.405 2.742 12.405 10.282zm-2.905 0c0-5.386-3.395-7.638-9.5-7.638h-8.323v16.614h8.323c6.105 0 9.5-2.057 9.5-7.671v-1.305zm50.75-7.671h-9.76v19.291h-2.872v-19.291h-9.76v-2.611h22.392v2.611zm34.334-2.611v21.902h-2.872v-10.086h-16.843v10.086h-2.872v-21.902h2.872v9.237h16.843v-9.237h2.872zm34.987 19.29v2.612h-20.695v-21.902h20.597v2.611H316.02v6.855h14.525v2.285H316.02v7.539h17.823zM23.92 340.219v7.247h13.938v2.415H23.92v9.596h-2.872v-21.902h20.008v2.644H23.92zm41.581 11.359h-9.76v7.899h-2.807v-21.902h13.219c5.191 0 7.964 1.828 7.964 6.691 0 3.754-1.925 6.332-5.548 7.083l6.071 8.127h-3.362l-5.777-7.898zm-9.76-2.546h10.185c3.1 0 5.287-1.502 5.287-4.765 0-3.265-2.187-4.081-5.287-4.081H55.741v8.846zm47.847 6.169h-14.46l-2.023 4.276h-3.166l10.641-22.13h3.558l10.641 22.13h-3.166l-2.025-4.276zm-1.077-2.317-6.169-13.057-6.137 13.057h12.306zm46.379-15.308v21.902h-2.807v-17.169l-10.413 15.667h-2.089l-10.151-15.602v17.103h-2.807v-21.902h3.035l10.968 16.908 11.228-16.908h3.036zm34.986 19.29v2.612h-20.695v-21.902h20.597v2.611h-17.725v6.855h14.526v2.285h-14.526v7.539h17.823zm46.998-19.29-8.29 22.032h-3.069l-7.017-18.572-7.017 18.572h-3.036l-8.096-22.032h3.233l6.429 18.54 6.757-18.54h3.46l6.821 18.572 6.562-18.572h3.263zm10.017 11.619v-1.37c0-7.867 5.254-10.739 12.729-10.739 7.54 0 12.958 2.872 12.958 10.739v1.37c0 7.899-5.418 10.805-12.958 10.805-7.475 0-12.729-2.906-12.729-10.805zm22.782 0v-1.37c0-5.745-3.949-8.095-10.053-8.095-6.007 0-9.824 2.349-9.824 8.095v1.37c0 5.778 3.817 8.16 9.824 8.16 6.104.001 10.053-2.382 10.053-8.16zm28.262 2.383h-9.76v7.899h-2.807v-21.902h13.219c5.191 0 7.964 1.828 7.964 6.691 0 3.754-1.925 6.332-5.548 7.083l6.07 8.127h-3.362l-5.776-7.898zm-9.76-2.546h10.185c3.102 0 5.287-1.502 5.287-4.765 0-3.265-2.186-4.081-5.287-4.081h-10.185v8.846zm40.374-1.501-6.855 5.614v6.333h-2.872v-21.902h2.872v12.24l15.244-12.207h3.655l-9.857 8.095 10.215 13.774h-3.524l-8.878-11.947zM188.416 71.725c0 5.751-4.662 10.413-10.413 10.413s-10.413-4.662-10.413-10.413 4.662-10.413 10.413-10.413c5.751.001 10.413 4.663 10.413 10.413zm35.81-26.69a53.355 53.355 0 0 0-8.18-10.694l-12.038 6.95a40.096 40.096 0 0 0-12.569-7.284c-4.11 4.165-7.375 8.819-9.728 13.88 13.4-.912 27.24 3.938 40.087 13.976l7.576-4.374a53.303 53.303 0 0 0-5.148-12.454zm-46.22 80.066a53.376 53.376 0 0 0 13.351-1.737v-13.9a40.086 40.086 0 0 0 12.593-7.243c-1.552-5.642-3.95-10.796-7.157-15.365-5.91 12.061-17.03 21.621-32.147 27.729v8.748a53.328 53.328 0 0 0 13.36 1.768zM131.777 45.04a53.384 53.384 0 0 0-5.171 12.431l12.038 6.95a40.077 40.077 0 0 0-.024 14.527c5.662 1.477 11.325 1.977 16.885 1.484-7.49-11.149-10.21-25.559-7.94-41.705l-7.576-4.374a53.334 53.334 0 0 0-8.212 10.687z"/>
  <path fill="#00B4FF" d="M224.229 98.411A53.384 53.384 0 0 0 229.4 85.98l-12.038-6.95c.9-4.852.894-9.773.024-14.527-5.662-1.477-11.325-1.977-16.885-1.484 7.49 11.149 10.21 25.559 7.94 41.705l7.576 4.374a53.334 53.334 0 0 0 8.212-10.687zm-92.449.005a53.355 53.355 0 0 0 8.18 10.694l12.038-6.95a40.085 40.085 0 0 0 12.569 7.284c4.11-4.165 7.375-8.819 9.728-13.88-13.4.912-27.24-3.938-40.087-13.976l-7.576 4.374a53.303 53.303 0 0 0 5.148 12.454zM178 18.35a53.376 53.376 0 0 0-13.351 1.737v13.9a40.086 40.086 0 0 0-12.593 7.243c1.552 5.642 3.95 10.796 7.157 15.365 5.91-12.061 17.03-21.621 32.147-27.729v-8.748A53.328 53.328 0 0 0 178 18.35z"/>
  <path fill="#00B4FF" d="M178 9.175c34.491 0 62.552 28.061 62.552 62.552S212.491 134.279 178 134.279s-62.552-28.061-62.552-62.552S143.509 9.175 178 9.175M178 0c-39.614 0-71.727 32.113-71.727 71.727s32.113 71.727 71.727 71.727 71.727-32.113 71.727-71.727S217.614 0 178 0z"/>
  <path fill="#FFF" d="M96.6 211.987v4.319c-9.154-.84-15.446-5.823-15.446-17.839v-18.355h4.654v18.408c0 8.598 4.007 12.617 10.792 13.467zm15.921-31.875v18.408c0 8.846-4.173 12.817-10.791 13.505v4.346c9.193-.643 15.446-5.575 15.446-17.904v-18.355h-4.655zm-50.255 18.831v-2.222c0-12.748-8.781-17.403-21-17.403-12.112 0-20.629 4.655-20.629 17.403v2.222c0 12.801 8.517 17.509 20.629 17.509 1.535 0 3.015-.053 4.391-.211l11.796 6.189 2.009-3.332-8.2-4.022-6.371-3.107c-1.148.131-2.356.2-3.626.2-9.732 0-15.921-3.861-15.921-13.224v-2.222c0-9.31 6.189-13.118 15.921-13.118 9.892 0 16.292 3.808 16.292 13.118v2.222c0 5.239-2.06 8.702-5.558 10.783l4.807 2.345c3.419-2.794 5.46-7.015 5.46-13.13zm105.747 16.662h5.131L155.9 179.741h-4.809l16.922 35.864zm-24.967-10.684 7.383-15.709-2.401-5.089-15.137 31.483h5.13l3.28-6.929h18.313l-1.772-3.755h-14.796zm133.676 10.684h5.131l-17.244-35.864H259.8l16.922 35.864zm-24.967-10.684 7.383-15.709-2.401-5.089-15.137 31.483h5.13l3.28-6.929h18.313l-1.772-3.755h-14.796zm73.794-2.487c5.871-1.217 8.992-5.395 8.992-11.478 0-7.882-4.496-10.843-12.907-10.843h-21.423v35.493h4.549v-31.262h16.504c5.025 0 8.569 1.322 8.569 6.612s-3.544 7.723-8.569 7.723h-11.373v4.126h10.685l9.363 12.8h5.448l-9.838-13.171zm-117.49 9.839c-9.628 0-14.652-2.433-18.567-6.295l-2.221 3.809c5.131 4.972 11.108 6.665 20.999 6.665 1.611 0 3.172-.091 4.67-.262l-1.903-4.031a38.78 38.78 0 0 1-2.978.114zm18.408-6.982c0-6.348-4.708-8.569-13.806-9.363l-10.104-1.005c-6.612-.688-9.256-2.222-9.256-5.66 0-2.421 1.44-4.044 4.599-4.949l-1.788-3.792c-4.734 1.411-7.518 4.173-7.518 8.847 0 5.236 3.438 8.781 12.959 9.68l11.32 1.111c6.453.688 8.887 2.116 8.887 5.449 0 2.647-2.108 4.651-5.972 5.742l1.85 3.92c5.247-1.538 8.829-4.674 8.829-9.98zm-20.313-21.847c7.935 0 13.383 1.798 18.144 5.661l1.852-3.862c-6.136-4.76-12.536-5.924-19.677-5.924-2.025 0-3.921.091-5.663.289l1.867 3.956a49.78 49.78 0 0 1 3.477-.12z"/>
  <path fill="#00B4FF" d="M.51 251.892c29.582-.537 59.163-.789 88.745-.997l88.745-.304 88.745.299 44.373.363 44.373.638-44.373.638-44.373.363-88.745.3-88.745-.304c-29.582-.208-59.163-.459-88.745-.996z"/>
</svg>
