<svg xmlns="http://www.w3.org/2000/svg" viewBox="0 0 512 512"><path d="M255.7 106.6h-.2c-25 0-45.5-20.3-45.5-45.3 0-25 20.4-45.3 45.5-45.3S301 36.3 301 61.3c0 12.1-4.7 23.5-13.3 32-8.5 8.6-19.9 13.3-32 13.3zM221.2 496c-14.4 0-27-10.5-27-30.4l1-277.6h-10v105c0 9.3-3 15.1-6.4 18.3-4.3 4.1-9.1 6.4-15.2 6.4-6.2 0-10.9-2.3-15.2-6.4-3.4-3.2-6.4-8.9-6.4-18.3V171.4c0-13.8 4.4-27.8 13.8-38.4 10.4-11.6 23.6-18 39-18h122.3c15.4 0 28.6 6.4 39 18.1 9.4 10.6 13.8 24.5 13.8 38.3V293c0 7.3-1.7 13.8-6.6 18.3-4.4 4-9.3 6.2-15.5 6.2s-11.1-2.2-15.5-6.2c-4.9-4.5-6.6-11-6.6-18.3V188h-9v277.6c0 19.7-13.4 30.4-27.8 30.4-13.4 0-26.3-9.3-27.4-29.8V325h-12v140.9c-.7 19.7-13.8 30.1-28.3 30.1z"/></svg>