<svg xmlns="http://www.w3.org/2000/svg" viewBox="0 0 512 512"><path d="M344.8 218.1c-13 0-25.6 0-37.4 4.1-50.6-43.1-184.3-156.9-194.5-167.5-4.7-4.9-9.9-6.7-15-6.7-8.5 0-16.7 5.2-21.3 9.6-6.9 6.6-33 34.8-28 40 15 15.4 19 18.5 25.2 24.8 9.3 9.5 28.3-1 36 2.3 7.6 3.3 9.2 6.8 10.4 12.5s-2.9 15.8-3 23.7c-.1 8.3 3.4 12.8 9.2 19 4.6 5 8.9 8.6 15.6 8.7 9 .2 20.9-12.8 30.4-3.1s-6.2 23.7-5 34 15.5 22.8 21.6 24.1c6.1 1.3 21.8-11.7 30.7-9.7 3 .7 10 6.8 11 11.4s-6.9 25-5.9 29.6c1.2 5.6 7.1 12.1 10.4 17.4-6.7 15.5-9.4 29.6-9.4 47.7 0 68.5 53.4 124 119.2 124s119-55.5 119-124-53.4-121.9-119.2-121.9zM368 400c-17.7 0-32-14.3-32-32s14.3-32 32-32 32 14.3 32 32-14.3 32-32 32z"/></svg>