<svg xmlns="http://www.w3.org/2000/svg" viewBox="0 0 512 512"><path d="M121.6 388H80.8c-2.2 0-4-1.8-4-4V128c0-2.2 1.8-4 4-4h40.5c7.9 0 14.5-6.4 14.7-14 .1-3.9-1.3-7.2-4.1-10-2.7-2.8-8-4-11.9-4H66c-10 0-18 6-18 16v288c0 10 7 16 17 16h56.3c7.9 0 14.5-5.2 14.7-12.8.1-3.9-1.3-7.5-4.1-10.3-2.7-2.8-6.4-4.9-10.3-4.9zM447 96h-56.3c-9.5 0-17.1 8.3-14 18.3.2.7.5 1.3.8 1.9 2.7 5.2 7.6 7.8 12.9 7.8h40.8c2.2 0 4 1.8 4 4v255.9c0 2.2-1.8 4-4 4h-40.5c-7.9 0-14.5 6.2-14.7 13.9-.1 3.9 1.3 7.6 4.1 10.4 2.7 2.8 6.4 3.8 10.3 3.8H447c10 0 17-6 17-16.4V112c0-10-7-16-17-16z"/><path d="M122.5 176c-7.7 0-14 6.3-14 13.9V322c0 7.7 6.3 13.9 14 13.9s14-6.3 14-13.9V189.9c0-7.6-6.3-13.9-14-13.9zM389.5 336c7.7 0 14-6.3 14-13.9V189.9c0-7.7-6.3-13.9-14-13.9s-14 6.3-14 13.9V322c0 7.7 6.3 14 14 14zM326.5 144c-7.7 0-14 6.5-14 14.4v195.1c0 8 6.3 14.4 14 14.4s14-6.5 14-14.4V158.4c0-7.9-6.3-14.4-14-14.4zM185.5 144c-7.7 0-14 6.5-14 14.4v195.1c0 8 6.3 14.4 14 14.4s14-6.5 14-14.4V158.4c0-7.9-6.2-14.4-14-14.4zM256 160c-7.7 0-14 6.4-14 14.2v163.5c0 7.8 6.3 14.2 14 14.2s14-6.4 14-14.2V174.2c0-7.8-6.3-14.2-14-14.2z"/></svg>