<svg xmlns="http://www.w3.org/2000/svg" viewBox="0 0 512 512"><path d="M352 32H160c-35.2 0-64 28.8-64 64v232c0 35.2 28.8 64 64 64h192c35.2 0 64-28.8 64-64V96c0-35.2-28.8-64-64-64zM200 56h112c4.4 0 8 3.6 8 8s-3.6 8-8 8H200c-4.4 0-8-3.6-8-8s3.6-8 8-8zm-32 304c-15.5 0-28-12.5-28-28s12.5-28 28-28 28 12.5 28 28-12.5 28-28 28zm176 0c-15.5 0-28-12.5-28-28s12.5-28 28-28 28 12.5 28 28-12.5 28-28 28zm40-152c0 8.8-7.2 16-16 16H144.2c-8.8 0-16.2-7.2-16.2-16v-95.8c0-8.8 7.4-16.2 16.2-16.2H368c8.8 0 16 7.4 16 16.2V208zM393.7 455.9l-50-48c-5.6-5.4-14.4-5.2-19.8.4-5.4 5.6-5.2 14.4.4 19.8l6.1 5.9H181.5l6.1-5.9c5.6-5.4 5.8-14.2.4-19.8-5.4-5.6-14.2-5.8-19.8-.4l-50 48c-5.6 5.4-5.8 14.2-.4 19.8 2.7 2.9 6.4 4.3 10.1 4.3 3.5 0 7-1.3 9.7-3.9l14.7-14.1h207.2l14.7 14.1c2.7 2.6 6.2 3.9 9.7 3.9 3.7 0 7.4-1.4 10.1-4.3 5.5-5.6 5.3-14.4-.3-19.8z"/></svg>