<svg xmlns="http://www.w3.org/2000/svg" viewBox="0 0 512 512"><path d="M277.6 246.9c-1.1-2-2.5-3.9-4.1-5.5l-18.4-18.2c-1.9-1.9-4.1-3.5-6.6-4.6-8.2-3.6-17.4-1.7-23.4 4.3-6.4 6.3-18.1 17.8-39.2 38.7-40.4 40-98.1 89.6-132 118.2-7.2 6.1-7.7 17-1.1 23.7L92 443.2c6.7 6.7 17.6 6.3 23.8-.9 29.4-34.6 79.5-92.3 119.4-131.8 20.5-20.2 32-31.8 38.5-38.2 6.5-6.6 8.3-16.7 3.9-25.4zM462.4 218.1l-34.5-34.2c-1.1-1.1-2.5-1.6-4-1.6-1.4 0-2.9.5-4 1.6-2.5 2.5-6.1 3.8-9.6 3.3-4.5-.5-9.3-1.9-12.4-4.9-7-6.9 1.1-20.5-5.1-29.2-6.2-8.7-16.1-19.8-23.2-26.9-7.1-7-35-33.7-82-52.9-16.6-6.8-32.8-9.3-47.3-9.3-26.5 0-47.4 8.5-54.8 15.3-5.5 5.1-11.2 14.1-3.1 14.1.7 0 1.5-.1 2.4-.2 4.5-.7 13.3-1.5 23.4-1.5 15.7 0 34.5 2.1 44.6 10.1 16.3 13.1 29.8 30.6 30.9 53.2.8 16.8-3.4 28.2-18.7 45.5-2.8 3.2-2.6 8 .4 10.9l19.2 19.2c3.1 3.1 8.1 3.1 11.2.1 14-13.6 22.1-20.2 31.3-22.7 4-1.1 8.4-1.6 12.8-1.6 9.7 0 19.2 2.2 23.6 4.6 1.1.6 2.1 1.4 3.1 2.4 6.5 6.6 6.1 17.4-.5 23.9l-2 1.9c-2.2 2.2-2.2 5.7 0 7.9l34.5 34.2c1.1 1.1 2.5 1.6 4 1.6 1.4 0 2.9-.5 4-1.6l55.8-55.2c2.1-2.3 2.1-5.8 0-8z"/></svg>