<svg xmlns="http://www.w3.org/2000/svg" viewBox="0 0 512 512"><path d="M450.4 48H341.5c-7.5 0-13.6 6.1-13.6 13.6s6.1 13.6 13.6 13.6h75.4L326.7 166c-30.6-26-69.3-40.3-109.6-40.3-22.8 0-45 4.5-65.8 13.3-20.1 8.5-38.2 20.7-53.8 36.2C82 190.8 69.8 208.9 61.3 229 52.5 249.9 48 272 48 294.9s4.5 45 13.3 65.8c8.5 20.1 20.7 38.2 36.2 53.8 15.5 15.5 33.6 27.7 53.8 36.2 20.9 8.8 43 13.3 65.8 13.3 22.8 0 45-4.5 65.8-13.3 20.1-8.5 38.2-20.7 53.8-36.2 15.5-15.5 27.7-33.6 36.2-53.8 8.8-20.9 13.3-43 13.3-65.8 0-40.3-14.3-79-40.3-109.6L436.7 95v75.4c0 7.5 6.1 13.6 13.6 13.6s13.6-6.1 13.6-13.6V61.6c.1-7.5-6-13.6-13.5-13.6zM359 294.9c0 37.9-14.8 73.5-41.6 100.3-26.8 26.8-62.4 41.6-100.3 41.6s-73.5-14.8-100.3-41.6C90 368.4 75.2 332.8 75.2 294.9s14.8-73.5 41.6-100.3c26.8-26.8 62.4-41.6 100.3-41.6s73.5 14.8 100.3 41.6C344.3 221.3 359 257 359 294.9z"/></svg>