<svg xmlns="http://www.w3.org/2000/svg" viewBox="0 0 512 512"><path d="M441.5 265.4L381.9 206c-2.6-2.6-6.1-4.1-9.9-4.1-3.7 0-7.3 1.4-9.9 4.1-2.6 2.6-4.1 6.1-4.1 9.9s1.5 7.3 4.1 9.9l.1.1 41.1 40.1H142c-13.2 0-25.8-5.2-35.3-14.7-9.5-9.5-14.7-22-14.7-35.3v-48c0-7.7-6.3-14-14-14s-14 6.3-14 14v48c0 20.8 8.1 40.3 22.9 55.1 14.8 14.8 34.3 22.9 55.1 22.9h261.7L364 334.2c-2.6 2.6-4.1 6.1-4.1 9.9 0 3.7 1.4 7.3 4.1 9.9l.1.1c2.7 2.5 6.2 3.9 9.8 3.9 3.9 0 7.3-1.4 9.9-4.1l57.6-57.4c4.2-4.2 6.5-9.8 6.5-15.7.1-5.8-2.2-11.3-6.4-15.4z"/></svg>