<svg xmlns="http://www.w3.org/2000/svg" viewBox="0 0 512 512"><path d="M440.8 129.5L261.7 49.2c-3.6-1.6-7.7-1.6-11.3 0L71.2 129.5c-6 2.7-6.2 11.8-.4 14.8l178.7 94.1c4.1 2.2 8.9 2.2 13 0l178.7-94.1c5.8-3 5.6-12.1-.4-14.8zM280.2 462.9l180.1-95.3c2.2-1.4 3.6-4 3.6-6.8V175.9c0-5.9-5.8-9.7-10.7-7.1l-180.1 92.8c-2.6 1.3-4.2 4.1-4.2 7.1V456c.1 6.2 6.4 10 11.3 6.9zM48 175.9v184.8c0 2.8 1.4 5.4 3.6 6.8l180.1 95.3c5 3.2 11.2-.6 11.2-6.8V268.7c0-3-1.6-5.8-4.2-7.1l-180-92.8c-4.9-2.6-10.7 1.3-10.7 7.1z"/></svg>