<svg xmlns="http://www.w3.org/2000/svg" viewBox="0 0 512 512"><path d="M220.8 406.1l4.8 14.8c.4 1.2 1.9 1.8 3 1.1l6.8-4.2c2.5-1.6 2.5-5.2 0-6.8l-11.5-7.2c-1.7-1-3.6.5-3.1 2.3zM286.6 421l4.9-15.2c.6-1.8-1.4-3.3-3-2.3l-11.9 7.4a4.02 4.02 0 0 0 0 6.8l7 4.4c1.2.7 2.6.1 3-1.1zM188.6 242.2c-3.9 3.5-9.6 6.4-15.7 8.5-1 .4-1.6 1.5-1.2 2.5l9.3 28.9 3.8 11.8c.4 1.2 1.9 1.8 3 1.1l7-4.3 36.6-22.5c3-1.9 2.3-6.5-1.2-7.3-14.3-3.3-26.5-9.8-36.2-18.5-1.6-1.4-3.9-1.5-5.4-.2zM192.6 310.8l-2 1.2 14.6 45.3c.4 1.2 1.9 1.8 3 1.1l27.2-16.9c2.5-1.6 2.5-5.2 0-6.8l-38.5-23.9c-1.4-.8-3-.8-4.3 0zM258.1 348.9c-1.3-.8-2.9-.8-4.2 0L212 374.5l-.1.1c-1 .8-1 2.4 0 3.2l.7.5 41.3 25.3c1.3.8 2.9.8 4.2 0l41.7-25.5.4-.3c1-.8 1-2.2 0-3l-42.1-25.9zM296.7 296.6l-38.5-23.9c-1.3-.8-2.9-.8-4.2 0l-38.5 23.9a4.02 4.02 0 0 0 0 6.8l38.5 23.9c1.3.8 2.9.8 4.2 0l38.5-23.9c2.5-1.5 2.5-5.2 0-6.8zM318.1 242.3c-9.7 8.7-22 15.1-36.2 18.5-3.5.8-4.2 5.4-1.2 7.3l36.6 22.5 7.4 4.6c1.1.7 2.6.2 3-1.1l4-12.4 9.8-30.3c-6.9-2.1-13.6-5.3-18-9.2-1.6-1.3-3.9-1.2-5.4.1zM232.4 442l1.6 5s7.5 19 22 19c15 0 22.2-19 22.2-19l1.6-4.8c.6-1.7-.1-3.7-1.7-4.6l-20-12.4c-1.3-.8-2.9-.8-4.2 0l-19.8 12.3c-1.6.8-2.3 2.7-1.7 4.5zM276.7 341.5l27.5 17.1c1.1.7 2.6.2 3-1.1l14.2-43.8c.3-.9-.1-1.8-.8-2.3l-1-.6c-1.3-.8-2.9-.8-4.2 0l-38.5 23.9c-2.8 1.6-2.8 5.3-.2 6.8z"/><path d="M376.1 168.2c-6.2 5.4-13.2 8.7-18 10.5-1.8.7-3.5-1.4-2.3-3l4-5.7c6.1-8.7 8.5-19.4 6.8-29.8C357.9 86.8 311.7 46 256 46c-55.7 0-101.9 41.2-110.6 94.7-1.7 10.5.8 21.2 6.9 29.8l4 5.6c1.2 1.6-.5 3.8-2.4 3-5.4-2.1-13.5-6.2-20.1-12.8-1.4-1.4-3.6-1.5-5.2-.4-10.2 7.3-16.8 19.1-16.8 32.5 0 22.1 17.9 40 40 40 11.3 0 28-4.7 36.6-12.3 1.5-1.3 3.8-1.3 5.3.1 15.2 13.4 36.6 20.2 62.1 20.2s47-6.8 62.1-20.2c1.5-1.3 3.8-1.4 5.3-.1 8.5 7.6 25.3 12.3 36.6 12.3 22.1 0 40-18 40-40.1 0-11.9-5.2-22.6-13.5-30-2.7-2.6-7.2-2.7-10.2-.1z"/></svg>