<svg xmlns="http://www.w3.org/2000/svg" viewBox="0 0 512 512"><path d="M434 461.5l-26.6-69.1c-2.1-5.1-7-8.4-12.4-8.4-4.5 0-8.6 2.2-11.1 5.9s-3 8.4-1.4 12.5l26 69.1c2.1 5.1 7 8.5 12.5 8.5h.5c4.5 0 8.7-2.2 11.2-5.9 2.5-3.8 3-8.5 1.3-12.6zM117.6 384c-5.5 0-10.4 3.3-12.4 8.4l-26.6 69.1c-1.7 4.2-1.2 8.9 1.3 12.6 2.5 3.7 6.7 5.9 11.2 5.9h.5c5.5 0 10.4-3.3 12.5-8.5l26-69.1c1.7-4.1 1.2-8.8-1.4-12.5-2.4-3.7-6.6-5.9-11.1-5.9zM256.6 384h-1.1c-7.4 0-13.4 6-13.4 13.4v36.1c0 7.4 6 14.4 13.4 14.4h1.1c7.4 0 13.4-7 13.4-14.4v-36.1c0-7.4-6-13.4-13.4-13.4z"/><g><path d="M424 128H88c-4.4 0-8 3.6-8 8v176c0 4.4 3.6 8 8 8h336c4.4 0 8-3.6 8-8V136c0-4.4-3.6-8-8-8z"/><path d="M448 80H63.9C46.3 80 32 94.3 32 111.9v224.2c0 17.6 14.3 31.9 31.9 31.9H448c17.7 0 32-14.3 32-32V112c0-17.7-14.3-32-32-32zm4 244c0 8.8-7.2 16-16 16H76c-8.8 0-16-7.2-16-16V124c0-8.8 7.2-16 16-16h364.6c3 0 5.9 1.2 8 3.3 2.1 2.1 3.3 5 3.3 8V324z"/></g><path d="M256 32c-13.4-.2-24.4 12.2-24.4 25.6h48.7c.1-13.4-10.9-25.8-24.3-25.6z"/></svg>