<svg xmlns="http://www.w3.org/2000/svg" viewBox="0 0 512 512"><path d="M256.3 74.2l9.7-3.1c4.7-1.5 9.7 1.1 11.2 5.7l.1.4c1.5 4.7-1.1 9.7-5.7 11.2L260.1 92c-2.1.7-3.2 2.9-2.6 4.9 2.1 6.9 4.5 13.7 7.2 20.5 1.9 4.6 3.9 9.2 6.1 13.7 1.1 2.2 3.8 3 5.9 1.6l8.5-5.8c4.1-2.7 9.6-1.7 12.3 2.4l.2.3c2.7 4.1 1.7 9.6-2.4 12.3l-10.4 7.1a4 4 0 0 0-1.2 5.4c7 11 14.9 21.5 23.7 31.3 1.5 1.7 4.2 1.8 5.8.2l7.5-7.5c3.5-3.5 9.1-3.5 12.5 0l.3.3c3.5 3.5 3.5 9.1 0 12.5l-7.5 7.5c-1.6 1.6-1.5 4.3.2 5.8 10.2 9.1 21 17.3 32.5 24.4a4 4 0 0 0 5.4-1.2l6.9-10.2c2.7-4.1 8.3-5.1 12.3-2.4l.3.2c4.1 2.7 5.1 8.3 2.4 12.3l-5.5 8.1c-1.4 2-.6 4.8 1.6 5.9 4.1 1.9 8.2 3.8 12.4 5.5 7.1 2.9 14.3 5.4 21.7 7.6 2.1.6 4.3-.5 5-2.6l3.5-10.8c1.5-4.7 6.5-7.2 11.2-5.7l.4.1c4.7 1.5 7.2 6.5 5.7 11.2l-2.8 8.8c-.7 2.3.7 4.7 3.1 5.2 7.1 1.3 14.3 2.3 21.5 2.9.1-2.6.2-5.3.2-7.9 0-114.9-93.1-208-208-208-2.7 0-5.3.1-8 .2.7 7.7 1.7 15.3 3.1 22.9.4 2.5 2.9 3.9 5.2 3.2zM258 447.2c-.4-2.4-2.8-3.9-5.2-3.2l-11.6 3.7c-4.7 1.5-9.7-1.1-11.2-5.7l-.1-.4c-1.5-4.7 1.1-9.7 5.7-11.2l13.8-4.4c2-.7 3.2-2.8 2.6-4.9-2.3-7.9-5-15.6-8.1-23.3-1.6-4-3.3-7.9-5.2-11.8-1-2.2-3.8-3-5.9-1.6l-10.9 7.4c-4.1 2.7-9.6 1.7-12.3-2.4l-.2-.3c-2.7-4.1-1.7-9.6 2.4-12.3l13-8.8a4 4 0 0 0 1.2-5.4c-7.2-11.7-15.5-22.7-24.8-33.1-1.5-1.7-4.2-1.8-5.8-.2l-9.9 9.9c-3.5 3.5-9.1 3.5-12.5 0l-.3-.3c-3.5-3.5-3.5-9.1 0-12.5l9.9-9.9c1.6-1.6 1.5-4.3-.2-5.8-10-9-20.6-17-31.9-24a4 4 0 0 0-5.4 1.2l-9 13.3c-2.7 4.1-8.3 5.1-12.3 2.4l-.3-.2c-4.1-2.7-5.1-8.3-2.4-12.3l7.6-11.3c1.4-2 .6-4.8-1.6-5.9-4.3-2.1-8.6-4-13.1-5.8-7.3-2.9-14.6-5.5-22.1-7.7-2-.6-4.3.6-4.9 2.6l-4.6 14.4c-1.5 4.7-6.5 7.2-11.2 5.7l-.4-.1c-4.7-1.5-7.2-6.5-5.7-11.2l4-12.4c.7-2.3-.7-4.8-3.1-5.2-5.8-1-11.7-1.8-17.6-2.4-.1 0-.3 0-.4-.1v4.2c0 114.9 93.1 208 208 208h4.2c0-.1-.1-.3-.1-.4-.5-5.4-1.2-10.9-2.1-16.3z"/><path d="M431.1 280.9l-5.9 18.4c-1.5 4.7-6.5 7.2-11.2 5.7l-.4-.1c-4.7-1.5-7.2-6.5-5.7-11.2l5.3-16.6c.7-2.1-.5-4.4-2.7-5.1-13.5-4-26.8-9.2-39.7-15.6-1.8-.9-4-.3-5.1 1.3l-10.5 15.4c-2.7 4.1-8.3 5.1-12.3 2.4l-.3-.2c-4.1-2.7-5.1-8.3-2.4-12.3l9.2-13.6c1.3-1.9.7-4.4-1.2-5.6-12.3-7.7-24.1-16.6-35.2-26.7-1.6-1.4-4-1.4-5.5.1L294.7 230c-3.5 3.5-9.1 3.5-12.5 0l-.3-.3c-3.5-3.5-3.5-9.1 0-12.5l12.8-12.8c1.5-1.5 1.6-3.9.1-5.5-9.7-10.8-18.4-22.2-26-34-1.2-1.9-3.8-2.5-5.6-1.2l-13.3 9c-4.1 2.7-9.6 1.7-12.3-2.4l-.2-.3c-2.7-4.1-1.7-9.6 2.4-12.3l15.1-10.2c1.7-1.1 2.2-3.3 1.3-5.1-6.4-12.9-11.7-26.2-15.8-39.7-.7-2.1-2.9-3.4-5.1-2.7l-15.9 5.1c-4.7 1.5-9.7-1.1-11.2-5.7l-.1-.4c-1.5-4.7 1.1-9.7 5.7-11.2l17.6-5.6c1.9-.6 3.1-2.6 2.7-4.6-1.8-9.2-3.1-18.6-3.9-27.9-95.4 11.8-170.8 88.2-181 184.1h1c7.5.7 15 1.8 22.4 3.2 2 .4 4-.8 4.6-2.7l4.7-14.8c1.5-4.7 6.5-7.2 11.2-5.7l.4.1c4.7 1.5 7.2 6.5 5.7 11.2l-4.2 13c-.7 2.2.5 4.4 2.7 5.1 13.9 4.1 27.5 9.4 40.7 16 1.8.9 4 .3 5.1-1.3l8.3-12.3c2.7-4.1 8.3-5.1 12.3-2.4l.3.2c4.1 2.7 5.1 8.3 2.4 12.3l-7.1 10.5c-1.3 1.9-.7 4.4 1.2 5.6 12.1 7.7 23.7 16.4 34.6 26.3 1.6 1.4 4 1.4 5.5-.1l10.4-10.4c3.5-3.5 9.1-3.5 12.5 0l.3.3c3.5 3.5 3.5 9.1 0 12.5L214 310.8c-1.5 1.5-1.6 3.9-.1 5.5 10.2 11.3 19.2 23.3 27 35.8 1.2 2 3.7 2.5 5.7 1.2l10.8-7.3c4.1-2.7 9.6-1.7 12.3 2.4l.2.3c2.7 4.1 1.7 9.6-2.4 12.3l-12.7 8.6c-1.7 1.1-2.2 3.3-1.3 5.1 6.4 13.2 11.7 26.7 15.7 40.6.6 2.2 2.9 3.4 5.1 2.7l13.6-4.4c4.7-1.5 9.7 1.1 11.2 5.7l.1.4c1.5 4.7-1.1 9.7-5.7 11.2l-15.6 5c-1.9.6-3.1 2.6-2.7 4.6 1.3 7 2.3 14.1 3 21.2v1c95.9-10.2 172.3-85.6 184.1-181-8.9-.7-17.9-1.9-26.7-3.6-1.9-.3-3.9.9-4.5 2.8z"/></svg>