<svg xmlns="http://www.w3.org/2000/svg" viewBox="0 0 512 512"><path d="M351.8 422c-26.2 9.2-66.5 14.9-96.1 14.9-29.6 0-69.9-5.7-96.1-14.9 0 0-26.1 23.9-62.3 36.2-2.3.8-1.5 4.2.9 3.9 22.6-2.6 40.2-6.5 61.4-12 23 9 66.7 13.9 96.1 13.9 29.4 0 74.1-3.8 96.1-13.9 21.5 5.6 38.8 9.6 62 12.1 2.4.3 3.2-3.1.9-3.9-35.7-12.4-62.9-36.3-62.9-36.3zM445.5 263l-186.2-85.5c-2.1-1-4.6-1-6.7 0L66.5 263c-6.2 2.9-10.5 9.1-10.5 16.4 0 2.4.5 4.6 1.3 6.7L112 422c27.5 0 56.7-22 56.7-22 18 9 53.1 17.1 79.3 18.6 2.8.2 5.5.2 8 .2s5.2-.1 8-.2c26.2-1.5 61.3-9.5 79.3-18.6 0 0 29.2 22 56.7 22l54.7-135.9c.8-2.1 1.3-4.3 1.3-6.7 0-7.3-4.3-13.5-10.5-16.4zM212 288c-6.6 0-12-9.8-12-22s5.4-22 12-22 12 9.8 12 22-5.4 22-12 22zm88 0c-6.6 0-12-9.8-12-22s5.4-22 12-22 12 9.8 12 22-5.4 22-12 22z"/><path d="M391.9 127v-.1C386.3 100.3 374.4 80 352 80h-34.6l-2-8c-3.6-14.1-16.4-24-31-24h-57c-14.6 0-27.4 9.9-31 24.1l-2 7.9H160c-22.9 0-35.1 20.7-39.8 47L102 223.8c-.6 3.2 2.6 5.7 5.6 4.4l25.3-11.6c1.2-.5 2-1.6 2.3-2.9l16.2-85.6c2.5-10.7 7.3-16 16.1-16h177.1c8.9 0 13.1 5 16.1 16l16.2 85.6c.2 1.3 1.1 2.4 2.3 2.9l25.4 11.7c3 1.4 6.2-1.2 5.6-4.4L391.9 127z"/></svg>