<svg xmlns="http://www.w3.org/2000/svg" viewBox="0 0 512 512"><path d="M254.9 293.4c73 .6 132.3-58.7 131.7-131.8-.6-69.9-59.7-129-129.5-129.6-73-.6-132.3 58.7-131.7 131.8.6 69.9 59.7 129 129.5 129.6zm-3.7-204.1c44.3-2.8 80.9 33.8 78.1 78.2-2.3 36.6-31.9 66.2-68.5 68.6-44.3 2.8-80.9-33.8-78.1-78.2 2.3-36.6 31.9-66.2 68.5-68.6z"/><path d="M256 308.4c-42.8 0-81.4-18.1-108.5-47-1.9-2-5.2-1.7-6.6.7L65.1 394.8c-3.1 5.5.8 12.3 7.2 12.3h80.1c2.9 0 5.6 1.5 7.1 4l39 64.9c3.4 5.7 11.8 5.2 14.6-.8l43-94.6 31.3-68.9c1.4-3-1.2-6.3-4.5-5.7-8.8 1.5-17.7 2.4-26.9 2.4zM364.5 261.3c-14.6 15.5-32.4 28-52.5 36.1-1 .4-1.8 1.1-2.2 2.1l-44.7 97.7c-.5 1.1-.5 2.3 0 3.4l33.9 74.5c2.7 6 11.2 6.5 14.6.8l39-64.9c1.5-2.5 4.2-4 7.1-4h80.1c6.3 0 10.3-6.8 7.2-12.3l-75.8-132.8c-1.5-2.2-4.8-2.6-6.7-.6z"/></svg>