<svg xmlns="http://www.w3.org/2000/svg" viewBox="0 0 512 512"><path d="M317.5 210.3c1.7-1.8 1.8-4.7 0-6.5l-19.8-21c-.8-.9-2-1.4-3.2-1.4-1.2 0-2.4.5-3.2 1.4l-66.5 69.1 26.4 27.1 66.3-68.7zM123.8 253.1c-.9-.9-2-1.4-3.2-1.4-1.2 0-2.3.5-3.2 1.4l-20.1 20.7c-1.8 1.8-1.8 4.8 0 6.6l63.2 65c4 4.2 9 6.6 13.2 6.6 6 0 11.1-4.5 13.1-6.4l.1-.1 13.4-13.8-76.5-78.6z"/><path d="M414.7 182.4l-19.8-21c-.8-.9-2-1.4-3.2-1.4-1.2 0-2.4.5-3.2 1.4L250.7 304.1l-50.1-51.6c-.9-.9-2-1.4-3.2-1.4-1.2 0-2.3.5-3.2 1.4l-20.1 20.7c-1.8 1.8-1.8 4.8 0 6.6l63.2 65c4 4.2 9 6.6 13.2 6.6 6 0 11.1-4.5 13.1-6.4l.1-.1 151-156.1c1.7-1.7 1.7-4.6 0-6.4z"/></svg>