<svg xmlns="http://www.w3.org/2000/svg" viewBox="0 0 512 512"><path d="M352 442.2c-.3-2.2-2-3.9-4.2-4.3l-22.3-1.9c-11.8-3.1-20.5-16.2-22.3-28.3L302 400h-92l-1.2 7.6c-1.9 12.1-10.5 25.2-22.3 28.3l-22.3 1.9c-2.1.5-3.9 2.2-4.2 4.3-.4 3.1 2 5.8 5.1 5.8h181.8c3 .1 5.5-2.6 5.1-5.7zM472.9 71c-4.5-4.5-10.7-7-17-7H56.2c-6.4 0-12.5 2.5-17 7S32 81.7 32 88v272c0 6.4 2.7 12.5 7.2 17s10.5 7 16.8 7h400c6.4 0 12.3-2.5 16.8-7s7.2-10.7 7.2-17V88c.1-6.3-2.6-12.5-7.1-17zM256 360c-4.4 0-8-3.6-8-8s3.6-8 8-8 8 3.6 8 8-3.6 8-8 8zm203.9-40H52.2c-2.2 0-4-1.8-4-4V92c0-6.6 5.4-12 12-12h391.7c6.6 0 12 5.4 12 12v224c0 2.2-1.8 4-4 4z"/></svg>