<svg xmlns="http://www.w3.org/2000/svg" viewBox="0 0 512 512"><path d="M256 64C132.3 64 32 164.2 32 287.9c0 57 21.3 109 56.3 148.5 1.1 1.2 2.1 2.4 3.2 3.5C96.3 445 103 448 110 448c7.1 0 13.8-3 18.6-8.2 31.6-34.4 77-55.9 127.4-55.9s95.8 21.6 127.4 55.9c4.8 5.2 11.5 8.2 18.6 8.2 7 0 13.7-2.9 18.5-8.1 1.1-1.2 2.1-2.3 3.2-3.5 35-39.5 56.3-91.5 56.3-148.5C480 164.2 379.7 64 256 64zm-14 45.9c0-7.7 6.3-14 14-14s14 6.3 14 14v36c0 7.7-6.3 14-14 14s-14-6.3-14-14v-36zm-128 192H78c-7.7 0-14-6.3-14-14s6.3-14 14-14h36c7.7 0 14 6.3 14 14s-6.3 14-14 14zm51.5-104.5c-5.4 5.4-14.4 5.4-19.8 0L120.2 172c-5.4-5.4-5.4-14.4 0-19.8s14.4-5.4 19.8 0l25.5 25.5c5.4 5.4 5.4 14.3 0 19.7zm160.6 34.5l-47.5 75.5c-1.9 2.6-4.3 5.1-7 7-13.5 9.7-32.3 6.5-42-7s-6.5-32.3 7-42l75.5-47.5c3.4-2.4 8.1-2.5 11.7 0 4.5 3.2 5.5 9.5 2.3 14zm40.2-34.5c-5.4 5.4-14.4 5.4-19.8 0s-5.4-14.4 0-19.8l25.5-25.5c5.4-5.4 14.4-5.4 19.8 0s5.4 14.4 0 19.8l-25.5 25.5zM434 301.9h-36c-7.7 0-14-6.3-14-14s6.3-14 14-14h36c7.7 0 14 6.3 14 14s-6.3 14-14 14z"/></svg>