<svg xmlns="http://www.w3.org/2000/svg" viewBox="0 0 512 512"><path d="M233.9 328.1c-2.6-2.6-6.1-4.1-9.9-4.1-3.7 0-7.3 1.4-9.9 4.1-2.6 2.6-4.1 6.1-4.1 9.9 0 3.7 1.4 7.3 4.1 9.9l.1.1 41.1 40.1H166c-20.4 0-33.6-7.5-41.6-23.5-8.4-17-9.4-41.5-9.4-58.5V170.8c15-2.8 28.7-10.5 39-21.9 11.6-12.9 18-29.5 18-46.9 0-38.6-31.4-70-70-70s-70 31.4-70 70c0 17 6.2 33.3 17.3 46.1 9.9 11.3 23.1 19.1 37.7 22.3V306c0 14.7 0 42.1 9.4 65.3 11.9 29.3 36 44.7 69.6 44.7h89.7L216 456.2c-5.4 5.4-5.4 14.3 0 19.8l.1.1c2.7 2.5 6.2 3.9 9.8 3.9 3.8 0 7.3-1.4 9.9-4.1l57.6-57.4c4.2-4.2 6.5-9.8 6.5-15.7 0-5.9-2.3-11.3-6.5-15.5l-59.5-59.2zM102 144c-23.2 0-42-18.8-42-42s18.8-42 42-42 42 18.8 42 42-18.8 42-42 42zM425 341.6V206c0-14.7 0-42.1-9.4-65.3-11.9-29.2-36-44.7-69.6-44.7h-89.7L296 55.8c5.4-5.4 5.4-14.3 0-19.8l-.1-.1c-2.7-2.5-6.2-3.9-9.8-3.9-3.8 0-7.3 1.4-9.9 4.1l-57.6 57.4c-4.2 4.2-6.5 9.8-6.5 15.7 0 5.9 2.3 11.3 6.5 15.5l59.6 59.4c2.6 2.6 6.1 4.1 9.9 4.1 3.7 0 7.3-1.4 9.9-4.1 2.6-2.6 4.1-6.1 4.1-9.9 0-3.7-1.4-7.3-4.1-9.9l-.1-.1-41.2-40.2H346c20.4 0 33.6 7.5 41.6 23.5 8.4 17 9.4 41.5 9.4 58.5v135.2c-15 2.8-28.7 10.5-39 21.9-11.6 12.9-18 29.5-18 46.9 0 38.6 31.4 70 70 70s70-31.4 70-70c0-17-6.2-33.3-17.3-46.1-9.9-11.3-23.2-19.1-37.7-22.3zM410 452c-23.2 0-42-18.8-42-42s18.8-42 42-42 42 18.8 42 42-18.8 42-42 42z"/></svg>