<svg xmlns="http://www.w3.org/2000/svg" viewBox="0 0 512 512"><path d="M445.7 405.6L201.3 160.4c-3.1-3.1-8.2-3.1-11.3 0l-28.7 28.8c-3.1 3.1-3.1 8.2 0 11.3l244.4 245.2c3.1 3.1 8.2 3.1 11.3 0l28.6-28.8c3.2-3.1 3.2-8.2.1-11.3zm-25.5 14.3l-.1.1c-3.1 3.1-8.2 3.1-11.3 0L218.9 229.5c-3.1-3.1-3.1-8.2 0-11.3l.1-.1c3.1-3.1 8.2-3.1 11.3 0l189.9 190.5c3.1 3.1 3.1 8.2 0 11.3zM192.8 120.1c6.6 0 12-5.4 12-12V76c0-6.6-5.4-12-12-12s-12 5.4-12 12v32.1c0 6.6 5.4 12 12 12zM192.8 263.3c-6.6 0-12 5.4-12 12v32.1c0 6.6 5.4 12 12 12s12-5.4 12-12v-32.1c0-6.6-5.4-12-12-12zM270.7 190.2c0 6.6 5.4 12 12 12h32c6.6 0 12-5.4 12-12s-5.4-12-12-12h-32c-6.6 0-12 5.4-12 12zM119.9 190.2c0-6.6-5.4-12-12-12H76c-6.6 0-12 5.4-12 12s5.4 12 12 12h32c6.5 0 11.9-5.4 11.9-12zM124.8 141c2.3 2.3 5.3 3.5 8.5 3.5s6.2-1.3 8.5-3.5c4.7-4.7 4.7-12.3 0-17l-20.9-21c-2.3-2.3-5.3-3.5-8.5-3.5s-6.2 1.3-8.5 3.5c-4.7 4.7-4.7 12.3 0 17l20.9 21zM133.3 239.9c-3.2 0-6.2 1.3-8.5 3.5l-20.9 21c-2.3 2.3-3.5 5.3-3.5 8.5s1.2 6.2 3.5 8.5 5.3 3.5 8.5 3.5 6.2-1.3 8.5-3.5l20.9-21c4.7-4.7 4.7-12.3 0-17-2.3-2.2-5.3-3.5-8.5-3.5zM252.4 144.5c3.2 0 6.2-1.3 8.5-3.5l20.9-21c4.7-4.7 4.7-12.3 0-17-2.3-2.3-5.3-3.5-8.5-3.5s-6.2 1.3-8.5 3.5l-20.9 21c-2.3 2.3-3.5 5.3-3.5 8.5s1.2 6.2 3.5 8.5c2.3 2.2 5.3 3.5 8.5 3.5z"/></svg>