<svg xmlns="http://www.w3.org/2000/svg" viewBox="0 0 512 512"><path d="M378.5 333l-88.3-77 88.2-76.1c6.9-6 7.4-16.3 1.1-22.9L262.7 35.6c-2.2-2.3-5.4-3.6-8.6-3.6-6.1 0-11.1 4.9-11.1 10.8V212l-86.3-73.3c-7.1-6-17.8-5.3-24.1 1.5-6.5 7-5.8 17.9 1.6 24.1L243 256l-108.1 90.9c-7.3 6.1-8.1 16.8-1.7 23.9l.3.3c6.3 7 17.3 7.7 24.5 1.5l85-73.6v169.8c0 6.2 5.1 11.2 11.5 11.2 3.2 0 6.2-1.3 8.4-3.5L379.6 356c6.3-6.6 5.8-16.9-1.1-23zm-99.1-232.1l62.7 65.9c.8.8.7 2.1-.2 2.9l-62.7 53c-1.3 1.1-3.4.2-3.4-1.5V102.3c.1-1.9 2.4-2.7 3.6-1.4zm-3.5 309V291.6c0-1.7 2.1-2.6 3.4-1.5l62.7 53c.9.7.9 2 .2 2.9l-62.7 65.3c-1.3 1.3-3.6.4-3.6-1.4z"/></svg>