<svg xmlns="http://www.w3.org/2000/svg" viewBox="0 0 512 512"><path d="M328.9 51.2c-2-5.5-7-9.2-12.9-9.2H196c-6 0-10.9 3.7-13 9.2-9.3 25-31 87.1-31 124.8v4.8c0 19.2 0 45.4 28.4 74.5 6.5 6.7 14.3 12.9 22.5 19.5 19.1 15.3 38.8 31.1 38.8 50.2v115c0 1.1-.9 2-2 2h-57.1c-7.9 0-14.3 6.3-14.3 14s6.4 14 14.3 14h146.8c7.9 0 14.3-6.3 14.3-14s-6.4-14-14.3-14h-57.1c-1.1 0-2-.9-2-2V325c0-19.1 19.7-34.9 38.8-50.2 8.2-6.6 15.9-12.8 22.5-19.5C360 226.2 360 200 360 180.8V176c0-37.5-21.7-99.8-31.1-124.8zm-1.4 102.1c-.2.3-.7.7-1.6.7H186.1c-.8 0-1.3-.5-1.6-.7-.2-.3-.6-.8-.4-1.7 5.1-26.1 14.8-59.6 21.6-80.2.3-.8 1.1-1.4 1.9-1.4h96.8c.9 0 1.7.6 1.9 1.4 6.7 20.7 16.4 54.1 21.6 80.2.2.8-.2 1.4-.4 1.7z"/></svg>