<svg xmlns="http://www.w3.org/2000/svg" viewBox="0 0 512 512"><path d="M437.1 229.8C429 154.6 365.4 96 288 96c-51.2 0-96.3 25.6-123.4 64.7-8.3-3.4-17.4-5.3-26.9-5.3-39.1 0-70.8 34.4-71.4 73.4C26.4 241.5 0 280.5 0 321.5 0 371.7 40.7 416 90.9 416h330.3c50.2 0 90.9-44.3 90.9-94.5-.1-44.7-32.4-84.1-75-91.7zm-74.6-17.3L228.8 346.8h-.1c-1.7 1.7-6.3 5.5-11.6 5.5-3.8 0-8.1-2.1-11.7-5.7l-56-56c-1.6-1.6-1.6-4.1 0-5.7l17.8-17.8c.8-.8 1.8-1.2 2.8-1.2 1 0 2 .4 2.8 1.2l44.4 44.4 122-122.9c.8-.8 1.8-1.2 2.8-1.2 1.1 0 2.1.4 2.8 1.2l17.5 18.1c1.8 1.7 1.8 4.2.2 5.8z"/></svg>