<svg xmlns="http://www.w3.org/2000/svg" viewBox="0 0 512 512"><path d="M256 387c-8.5 0-15.4 6.9-15.4 15.4v46.2c0 8.5 6.9 15.4 15.4 15.4s15.4-6.9 15.4-15.4v-46.2c0-8.5-6.9-15.4-15.4-15.4zM256 48c-8.5 0-15.4 6.9-15.4 15.4v46.2c0 8.5 6.9 15.4 15.4 15.4s15.4-6.9 15.4-15.4V63.4c0-8.5-6.9-15.4-15.4-15.4zM125 256c0-8.5-6.9-15.4-15.4-15.4H63.4c-8.5 0-15.4 6.9-15.4 15.4s6.9 15.4 15.4 15.4h46.2c8.5 0 15.4-6.9 15.4-15.4zM448.6 240.6h-46.2c-8.5 0-15.4 6.9-15.4 15.4s6.9 15.4 15.4 15.4h46.2c8.5 0 15.4-6.9 15.4-15.4s-6.9-15.4-15.4-15.4zM152.5 344.1c-4.1 0-8 1.6-10.9 4.5l-32.7 32.7c-2.9 2.9-4.5 6.8-4.5 10.9s1.6 8 4.5 10.9c2.9 2.9 6.8 4.5 10.9 4.5 4.1 0 8-1.6 10.9-4.5l32.7-32.7c6-6 6-15.8 0-21.8-2.9-2.9-6.8-4.5-10.9-4.5zM359.5 167.9c4.1 0 8-1.6 10.9-4.5l32.7-32.7c2.9-2.9 4.5-6.8 4.5-10.9s-1.6-8-4.5-10.9c-2.9-2.9-6.8-4.5-10.9-4.5-4.1 0-8 1.6-10.9 4.5l-32.7 32.7c-2.9 2.9-4.5 6.8-4.5 10.9s1.6 8 4.5 10.9c2.9 2.9 6.8 4.5 10.9 4.5zM130.7 108.9c-2.9-2.9-6.8-4.5-10.9-4.5-4.1 0-8 1.6-10.9 4.5-2.9 2.9-4.5 6.8-4.5 10.9 0 4.1 1.6 8 4.5 10.9l32.7 32.7c2.9 2.9 6.8 4.5 10.9 4.5 4.1 0 8-1.6 10.9-4.5 2.9-2.9 4.5-6.8 4.5-10.9s-1.6-8-4.5-10.9l-32.7-32.7zM370.4 348.6c-2.9-2.9-6.8-4.5-10.9-4.5-4.1 0-8 1.6-10.9 4.5-6 6-6 15.8 0 21.8l32.7 32.7c2.9 2.9 6.8 4.5 10.9 4.5 4.1 0 8-1.6 10.9-4.5 2.9-2.9 4.5-6.8 4.5-10.9s-1.6-8-4.5-10.9l-32.7-32.7zM256 160c-52.9 0-96 43.1-96 96s43.1 96 96 96 96-43.1 96-96-43.1-96-96-96z"/></svg>