<svg xmlns="http://www.w3.org/2000/svg" viewBox="0 0 512 512"><path d="M446.6 109.8c-2.7-7.3-14.2-14-25-18.7-27-11.6-73.5-27.1-164.9-27.1-94 0-137.5 14.5-165 27.1-12.3 5.7-24.2 12.5-26.7 19.5-2.9 8 .8 15.3 4.1 21.8l1.5 3c3.1 6.4 12.9 12.8 22.8 13.8L251.3 445c1 1.9 3.1 3.1 5.3 3.1 2.2 0 4.3-1.2 5.3-3.1l157.6-295.1c5.6-.6 17.2-2.6 23.1-14.3 3.9-7.7 7.4-16.7 4-25.8zm-266 112.8c-1.2 3.5-2.9 6.6-5.1 9.5-1.8 2.3-5.3 2-6.7-.6-8.8-16.6-17.3-32.4-24.8-46.5-1.4-2.6.5-5.8 3.4-5.9h1c3.7 0 7.3.6 10.9 1.7 8.6 2.8 15.5 8.7 19.6 16.6 3.9 7.9 4.6 16.8 1.7 25.2zm116.6 97.5c-.8 1.4-2.3 2.3-3.9 2.1-17-1.8-30.2-15.8-30.2-32.8 0-18.2 15.2-33 33.9-33 9.9 0 19 4 25.3 11 1.1 1.2 1.3 3.1.5 4.5l-25.6 48.2zm35.2-176.8c-5.7 4.1-12.4 6.3-19.5 6.3-1.6 0-3.3-.1-4.9-.3-8.7-1.2-16.3-5.7-21.5-12.5-2-2.6-3.6-5.5-4.6-8.4-1-2.7 1.2-5.5 4-5.3 18.3 1 35.3 2.9 51.4 5.9 3.1.6 4.5 4.1 2.7 6.7-2 2.8-4.6 5.4-7.6 7.6z"/></svg>