<svg xmlns="http://www.w3.org/2000/svg" viewBox="0 0 512 512"><path d="M336.6 157.5L303 124.1c-3.5-3.5-8.5-4.9-13.6-3.6-1.2.3-2.4.8-3.5 1.5-4.7 2.9-7.2 7.8-6.8 13.1.2 3.4 1.9 6.6 4.3 9.1l16 15.9H142c-20.8 0-40.3 8.1-55.1 22.9C72.1 197.7 64 217.2 64 238v16c0 7.7 6.3 14 14 14s14-6.3 14-14v-16c0-13.3 5.2-25.8 14.7-35.3 9.5-9.5 22-14.7 35.3-14.7h155.4l-16 15.9c-2.4 2.4-4 5.4-4.3 8.7-.4 4.2 1.1 8.3 4.1 11.3 2.6 2.6 6.2 4.1 9.9 4.1s7.2-1.4 9.9-4.1l35.6-35.4c4.2-4.1 6.5-9.7 6.5-15.5-.1-5.9-2.4-11.4-6.5-15.5zM434 244c-7.7 0-14 6.3-14 14v16c0 13.3-5.2 25.8-14.7 35.3-9.5 9.5-22 14.7-35.3 14.7H214.6l16-15.9c2.4-2.4 4-5.4 4.3-8.8.4-4.2-1.1-8.3-4.1-11.3-2.6-2.6-6.2-4.1-9.9-4.1s-7.2 1.4-9.9 4.1l-35.6 35.4c-4.2 4.1-6.5 9.7-6.5 15.5 0 5.9 2.3 11.4 6.5 15.5l33.6 33.4c3.5 3.5 8.5 4.9 13.6 3.6 1.2-.3 2.4-.8 3.5-1.5 4.7-2.9 7.2-7.8 6.8-13.1-.2-3.4-1.9-6.6-4.3-9.1l-16-15.9H370c43 0 78-35 78-78v-16c0-7.5-6.3-13.8-14-13.8z"/></svg>