<svg xmlns="http://www.w3.org/2000/svg" viewBox="0 0 512 512"><path d="M458.2 208h-.4c-12 0-21.8 9.8-21.8 21.8 0 1.2-1 2.2-2.2 2.2H78.2c-1.2 0-2.2-1-2.2-2.2 0-12-9.8-21.8-21.8-21.8h-.4c-12 0-21.8 9.8-21.8 21.8v180.4c0 12 9.8 21.8 21.8 21.8h.4c12 0 21.8-9.8 21.8-21.8V404c0-2.2 1.8-4 4-4h352c2.2 0 4 1.8 4 4v6.2c0 12 9.8 21.8 21.8 21.8h.4c12 0 21.8-9.8 21.8-21.8V229.8c0-12-9.8-21.8-21.8-21.8z"/><path d="M84 214h22.5c2.2 0 4-1.8 4-4v-13c0-8.8 7.2-16 16-16H224c8.8 0 16 7.2 16 16v13c0 2.2 1.8 4 4 4h24c2.2 0 4-1.8 4-4v-13c0-8.8 7.2-16 16-16h97.5c8.8 0 16 7.2 16 16v13c0 2.2 1.8 4 4 4H428c4.4 0 8-3.6 8-8v-94c0-17.6-14.4-32-32-32H108c-17.6 0-32 14.4-32 32v94c0 4.4 3.6 8 8 8z"/></svg>