<svg xmlns="http://www.w3.org/2000/svg" viewBox="0 0 512 512"><path d="M256 48C141.1 48 48 141.1 48 256s93.1 208 208 208 208-93.1 208-208S370.9 48 256 48zm54.6 36.4c27.1 8.6 52 23.6 72.7 44.3 20.7 20.7 35.7 45.6 44.3 72.7l-88.8 6c-8.2-14-19.9-25.7-33.9-34l5.7-89zm-181.9 44.3c20.7-20.7 45.5-35.7 72.7-44.3l5.7 89c-13.9 8.3-25.6 20-33.9 33.9l-88.9-5.9c8.7-27.1 23.7-52 44.4-72.7zm72.7 298.9c-27.1-8.6-52-23.6-72.7-44.3-20.7-20.7-35.7-45.6-44.3-72.7l89-5.7c8.2 13.9 19.9 25.5 33.8 33.8l-5.8 88.9zM256 324c-37.5 0-68-30.5-68-68s30.5-68 68-68 68 30.5 68 68-30.5 68-68 68zm127.3 59.3c-20.7 20.7-45.6 35.7-72.7 44.3l-5.9-88.9c14.1-8.3 25.8-20.1 34.1-34.2l88.8 6c-8.6 27.2-23.6 52.1-44.3 72.8z"/></svg>