<svg xmlns="http://www.w3.org/2000/svg" viewBox="0 0 512 512"><path d="M377.4 32c-38.9 0-70.6 31.7-70.6 70.7 0 17.1 6.2 33.7 17.5 46.6 10 11.5 23.5 19.4 38.2 22.5v43.1L256 270.3l-106.4-55.4v-43.1c32.2-6.9 55.7-35.6 55.7-69.1 0-39-31.7-70.7-70.6-70.7S64 63.7 64 102.7c0 17.1 6.2 33.7 17.5 46.6 10 11.5 23.5 19.4 38.2 22.5v57.4c0 2.7 1.5 5.1 3.9 6.3l117.5 60.8v43.9c-32.2 6.9-55.7 35.6-55.7 69.1 0 39 31.7 70.7 70.6 70.7s70.6-31.7 70.6-70.7c0-17.1-6.2-33.7-17.5-46.6-10-11.5-23.5-19.4-38.2-22.5v-43.9l117.5-60.8c2.4-1.2 3.9-3.6 3.9-6.3v-57.4c32.2-6.9 55.7-35.6 55.7-69.1 0-39-31.7-70.7-70.6-70.7zM93.8 102.7c0-22.5 18.3-40.8 40.8-40.8s40.8 18.3 40.8 40.8c0 22.5-18.3 40.8-40.8 40.8s-40.8-18.3-40.8-40.8zm203 306.6c0 22.5-18.3 40.8-40.8 40.8s-40.8-18.3-40.8-40.8c0-22.5 18.3-40.8 40.8-40.8s40.8 18.3 40.8 40.8zm80.6-265.7c-22.5 0-40.8-18.3-40.8-40.8 0-22.5 18.3-40.8 40.8-40.8 22.5 0 40.8 18.3 40.8 40.8 0 22.4-18.3 40.8-40.8 40.8z"/></svg>