<svg xmlns="http://www.w3.org/2000/svg" viewBox="0 0 512 512"><path d="M332 142.7c-1.2-1.1-2.7-1.7-4.1-1.7s-3 .6-4.1 1.7L310 155.9c-1.2 1.1-1.9 2.7-1.9 4.3 0 1.6.7 3.2 1.9 4.3l95.8 91.5-95.8 91.5c-1.2 1.1-1.9 2.7-1.9 4.3 0 1.6.7 3.2 1.9 4.3l13.8 13.2c1.2 1.1 2.6 1.7 4.1 1.7 1.5 0 3-.6 4.1-1.7l114.2-109c1.2-1.1 1.9-2.7 1.9-4.3 0-1.6-.7-3.2-1.9-4.3L332 142.7zM106.3 256l95.8-91.5c1.2-1.1 1.9-2.7 1.9-4.3 0-1.6-.7-3.2-1.9-4.3l-13.8-13.2c-1.2-1.1-2.7-1.7-4.1-1.7s-3 .6-4.1 1.7l-114.2 109c-1.2 1.1-1.9 2.7-1.9 4.3 0 1.6.7 3.2 1.9 4.3l114.2 109c1.2 1.1 2.7 1.7 4.1 1.7 1.5 0 3-.6 4.1-1.7l13.8-13.2c1.2-1.1 1.9-2.7 1.9-4.3 0-1.6-.7-3.2-1.9-4.3L106.3 256z"/><path d="M332.8 267.2c.1-3.9-1.4-7.6-4.2-10.4l-.1-.1c-2.7-2.7-6.2-4.2-10-4.2-3.5 0-6.8 1.3-9.4 3.6l-38.9 34.6V184.6c0-7.8-6.4-14.2-14.2-14.2-7.8 0-14.2 6.4-14.2 14.2v106.2l-38.9-34.6c-2.6-2.3-6-3.6-9.4-3.6-3.8 0-7.4 1.5-10.1 4.2l-.1.1c-2.8 2.8-4.2 6.4-4.2 10.4.1 3.9 1.7 7.5 4.6 10.2l62.8 57.7c2.6 2.4 6 3.7 9.5 3.7s6.9-1.3 9.5-3.7l62.8-57.7c2.8-2.8 4.5-6.4 4.5-10.3z"/></svg>