<svg xmlns="http://www.w3.org/2000/svg" viewBox="0 0 512 512"><path d="M256 48C141.1 48 48 141.1 48 256s93.1 208 208 208 208-93.1 208-208S370.9 48 256 48zm-78.9 296.9c-2.7 4.6-7.5 7.1-12.5 7.1-2.5 0-5-.6-7.3-2-6.9-4-9.2-12.8-5.2-19.7l14.2-23.6c1.5-2.5 4.1-4 7-4h2.1c10.3 0 17.5 6.2 19.6 12.2l-17.9 30zm120.2-46.4l-93 .1h-61.8c-8.2 0-14.8-6.8-14.4-15 .3-7.8 7.1-13.7 14.9-13.7h44.8l53.1-90.4-17.2-29.3c-3.9-6.7-2.2-15.5 4.4-19.7 7-4.5 16.2-2.2 20.3 4.8l9.2 15.7h.1l9.2-15.7c4.1-7 13.4-9.3 20.3-4.8 6.6 4.2 8.3 13 4.4 19.7l-17.2 29.3-16.7 28.5-36.3 61.9v.1h53.5c6.7 0 15.1 3.6 18.5 9.4l.3.6c3 5.1 4.7 8.6 4.7 13.7-.1 2.8-1.1 4.8-1.1 4.8zm72.2.1h-25.2v.1l18.4 31.3c4 6.8 2.1 15.8-4.8 20-2.3 1.4-4.9 2.1-7.5 2.1-5 0-9.8-2.6-12.5-7.1l-27.2-46.3-16.9-28.8-21.8-37.3c-6.4-10.9-6.7-24.5-.6-35.3 4.3-7.6 7.6-9.6 7.6-9.6l48.5 82.1h41.7c7.8 0 14.5 6 14.9 13.7.3 8.3-6.3 15.1-14.6 15.1z"/></svg>