<svg xmlns="http://www.w3.org/2000/svg" viewBox="0 0 512 512"><path d="M262.3 199.2c-1.6-2.8-5.6-3.2-7.7-.7l-91.9 122.2c-2.5 2.9-.6 7.4 3.2 7.7l161.1 14c3.8.3 6.4-3.8 4.5-7.1l-69.2-136.1zM367.2 264.1c-1.6-2.8-5.6-3.2-7.7-.7l-24.8 25.1a4.68 4.68 0 0 0-.5 5.4l25.4 49.5c.8 1.3 2.1 2.2 3.7 2.3l44.9 3.9c3.8.3 6.4-3.8 4.5-7.1l-45.5-78.4zM378.1 224.4c11.2-.1 20.9-8.3 23-19.2 2.8-14.8-8.6-28.3-23.7-28.1-11.2.1-20.9 8.3-23 19.2-2.8 14.8 8.6 28.3 23.7 28.1z"/><path d="M455.2 129.3l-65.8-5.7-6.1-67c-1.3-14.9-14.5-25.9-29.5-24.5L56.7 58.9c-14.9 1.3-25.9 14.5-24.6 29.4l26.8 296.5c1.3 14.9 14.5 25.9 29.5 24.5l15.7-1.4-1.5 16.7c-1.3 14.9 9.7 28 24.7 29.3l297.3 25.9c14.9 1.3 28.1-9.7 29.4-24.6l26-296.6c1.2-14.8-9.8-28-24.8-29.3zM87.6 300.7c-3.7.3-7-2.4-7.4-6.1l-18-200c-.3-3.7 2.4-7 6.1-7.3l279.2-25.1c3.7-.3 7 2.4 7.4 6.1l4.8 52.8L158 103.4c-14.9-1.3-28.1 9.7-29.4 24.6l-14.9 170.3-26.1 2.4zm362.2-135.6l-17.5 200c-.3 3.7-3.6 6.5-7.3 6.2l-18.6-1.6L145.7 347c-3.7-.3-6.5-3.6-6.2-7.3l3.8-43.9L157 139.7c.3-3.7 3.6-6.5 7.3-6.2l198 17.3 29.7 2.6 51.6 4.5c3.8.2 6.6 3.5 6.2 7.2z"/></svg>