<svg xmlns="http://www.w3.org/2000/svg" viewBox="0 0 512 512"><path d="M109.6 416.7c-1.9-1.9-5.7-.5-5.6 2.2 1 21.5 1.4 29 5.5 29h55.1c4.4 0 3.3-11.5 3.3-22-34.3.1-46.9 2.3-58.3-9.2zM402.4 416.7c1.9-1.9 5.7-.5 5.6 2.2-1 21.5-1.4 29-5.5 29h-55.1c-4.4 0-3.3-11.5-3.3-22 34.3.1 46.9 2.3 58.3-9.2zM384 64H128c-17.6 0-32 14.4-32 32v276c0 22 18 40 40 40h240c22 0 40-18 40-40V96c0-17.6-14.4-32-32-32zM162 375.9c-14.8 1.2-27-11.1-25.9-25.9.9-11.6 10.3-21.1 22-22 14.8-1.2 27 11.1 25.9 25.9-1 11.7-10.4 21.1-22 22zm76-77.9h-97.8c-8.9 0-16.2-7.3-16.2-16.2V166.2c0-8.9 7.3-16.2 16.2-16.2H238c2.2 0 4 1.8 4 4v140c0 2.2-1.8 4-4 4zm115.9 77.9c-14.8 1.2-27-11.1-25.9-25.9.9-11.6 10.3-21.1 22-22 14.8-1.2 27 11.1 25.9 25.9-.9 11.7-10.3 21.1-22 22zM388 282c0 8.8-7.2 16-16 16h-98c-2.2 0-4-1.8-4-4V154c0-2.2 1.8-4 4-4h98c8.8 0 16 7.2 16 16v116zm-15-162H139c-8.8 0-15-6.3-15-14s6.2-14 15-14h234c8.8 0 15 6.3 15 14s-6.2 14-15 14z"/></svg>