<svg xmlns="http://www.w3.org/2000/svg" viewBox="0 0 512 512"><path d="M209 96h-65c-26.4 0-48 21.6-48 48v128c0 26.4 21.6 48 48 48h38.7c4.6 0 8.3 3.9 8 8.6-2.3 35.5-18.8 60.2-31.3 74.1-4.7 5.2-1 13.4 5.9 13.4h39.9c2.5 0 4.8-1.1 6.3-3.1 7.4-9.6 28.5-41.6 28.5-93.9v-192c0-17.8-13.3-31.1-31-31.1zM385 96h-65c-26.4 0-48 21.6-48 48v128c0 26.4 21.6 48 48 48h38.7c4.6 0 8.3 3.9 8 8.6-2.3 35.5-18.8 60.2-31.3 74.1-4.7 5.2-1 13.4 5.9 13.4h39.9c2.5 0 4.8-1.1 6.3-3.1 7.4-9.6 28.5-41.6 28.5-93.9v-192c0-17.8-13.3-31.1-31-31.1z"/></svg>