<svg xmlns="http://www.w3.org/2000/svg" viewBox="0 0 512 512"><path d="M403.3 32H285.1c-3.7 0-7.2 1.5-9.8 4.1L40.1 272.2c-10.8 10.8-10.8 28.4 0 39.2l111.5 112.5C162.4 434.7 179 440 195 426l231.9-232.3c2.6-2.6 4.1-6.1 4.1-9.8V59.7c0-15.3-12.4-27.7-27.7-27.7zm-45.9 107.5c-19.6 2.1-36-14.4-33.9-33.9 1.5-14.3 13-25.7 27.3-27.3 19.6-2.1 36 14.4 33.9 33.9-1.5 14.3-13 25.8-27.3 27.3z"/><path d="M456 80.3V194c0 3.7-1.5 7.2-4.1 9.8L192.7 463l8.8 8.8c10.8 10.8 28.4 10.8 39.2 0l235.2-236.2c2.6-2.6 4.1-6.1 4.1-9.8V107.7c0-14-10.5-25.6-24-27.4z"/></svg>