<svg xmlns="http://www.w3.org/2000/svg" viewBox="0 0 512 512"><path d="M447.8 438.3c-7.2-31.8-48.3-47.3-62.5-52.3-15.6-5.5-37.8-6.8-52.1-10-8.2-1.8-20.1-6.3-24.1-11.1s-1.6-49.3-1.6-49.3 7.4-11.5 11.4-21.7c4-10.1 8.4-37.9 8.4-37.9s8.2 0 11.1-14.4c3.1-15.7 8-21.8 7.4-33.5-.6-11.5-6.9-11.2-6.9-11.2s6.1-16.7 6.8-51.3c.9-41.1-31.3-81.6-89.6-81.6-59.1 0-90.6 40.5-89.7 81.6.8 34.6 6.7 51.3 6.7 51.3s-6.3-.3-6.9 11.2c-.6 11.7 4.3 17.8 7.4 33.5 2.8 14.4 11.1 14.4 11.1 14.4s4.4 27.8 8.4 37.9c4 10.2 11.4 21.7 11.4 21.7s2.4 44.5-1.6 49.3c-4 4.8-15.9 9.3-24.1 11.1-14.3 3.2-36.5 4.5-52.1 10-14.2 5-55.3 20.5-62.5 52.3-1.1 5 2.7 9.7 7.9 9.7H440c5.1 0 8.9-4.7 7.8-9.7z"/></svg>