<svg xmlns="http://www.w3.org/2000/svg" viewBox="0 0 512 512"><path d="M272 64h-16c-4.4 0-8 3.6-8 8v72c0 4.4 7.6 8 12 8h12c4.4 0 8-3.6 8-8V72c0-4.4-3.6-8-8-8z"/><path d="M433.9 130.1L382 78.2c-9-9-21.3-14.2-34.1-14.2h-28c-8.8 0-16 7.3-16 16.2v80c0 8.8-7.2 16-16 16H160c-8.8 0-16-7.2-16-16v-80c0-8.8-7.2-16.2-16-16.2H96c-17.6 0-32 14.4-32 32v320c0 17.6 14.4 32 32 32h320c17.6 0 32-14.4 32-32V164c0-12.7-5.1-24.9-14.1-33.9zM322 400.1c0 8.8-8 16-17.8 16H143.8c-9.8 0-17.8-7.2-17.8-16v-96c0-8.8 8-16 17.8-16h160.4c9.8 0 17.8 7.2 17.8 16v96z"/></svg>