<svg xmlns="http://www.w3.org/2000/svg" viewBox="0 0 512 512"><path d="M450.8 182c-8.6-24.4-20.3-44.9-33-57.5-2.6-2.6-6-4-9.7-4-3.7 0-7.1 1.4-9.7 4-5.3 5.3-5.3 14 0 19.4 9.9 9.9 19.6 27.4 26.8 48.1 7.3 21.2 11.4 43.6 11.4 63.1 0 3-.1 7.6-.2 10.1-.2 3.7 1.1 7.1 3.6 9.8 2.5 2.7 5.8 4.3 9.5 4.4h.6c7.3 0 13.3-5.7 13.7-13.1.1-3.1.2-8.1.2-11.3 0-22.8-4.7-48.8-13.2-73zM143 110.6c2.9 0 5.6-.9 8-2.6 29.9-21.4 66.2-32.7 105-32.7 40.8 0 80.1 14.8 113.7 42.8 2.5 2 5.6 3.2 8.8 3.2 4.1 0 7.9-1.8 10.5-4.9 4.8-5.8 4-14.4-1.7-19.3C348.6 65 303.3 48 256 48c-44.6 0-86.4 13.1-121 37.8-3 2.1-4.9 5.3-5.5 8.9-.6 3.6.2 7.2 2.4 10.2 2.5 3.6 6.7 5.7 11.1 5.7zM75.4 255c0-43.7 15.8-85.8 44.5-118.7 2.4-2.8 3.6-6.3 3.3-9.9-.2-3.6-1.9-7-4.7-9.4-2.5-2.2-5.7-3.4-9-3.4-4 0-7.7 1.7-10.3 4.7C66.2 156.2 48 204.7 48 255c0 32.8 5.9 58.8 15.4 90.2 1.8 5.8 7 9.7 13.1 9.7 1.3 0 2.7-.2 4-.6 3.5-1.1 6.4-3.4 8.1-6.6 1.7-3.2 2.1-6.9 1-10.4-8.8-29-14.2-52.8-14.2-82.3z"/><path d="M355.7 129.8C328.4 106.1 295 93.6 259 93.6c-48.3 0-91.4 17.8-121.5 50.1-28.7 30.8-42.8 71.7-39.7 115.1 2.3 32.7 6 50.7 9.3 66.6 4.3 21.1 7.7 37.8 5.1 84.1-.4 6.7 3.7 12.7 10 14.6 1.2.4 2.3.5 3.6.5 7.2 0 13.2-5.7 13.7-12.9 2.9-50.4-.8-68.7-5.5-91.9-3.1-15.1-6.6-32.2-8.8-63.1-2.6-35.7 9-69.3 32.4-94.5 24.8-26.7 60.9-41.4 101.4-41.4 29.3 0 56.5 10.2 78.7 29.5 22.3 19.3 39.2 47.4 49 81.1 11.4 39.3 14.5 89.3 9.1 144.5-.7 7.5 4.8 14.2 12.3 15 .4 0 .9.1 1.3.1 7.1 0 12.9-5.3 13.6-12.4 5.8-58.7 2.3-112.2-10.1-154.8-11.1-38.6-30.9-71.2-57.2-94z"/><path d="M373.5 267.5c-5.9-37.5-19.9-68.8-40.6-90.6-20.8-22-47.4-33.7-76.9-33.7-19 0-37.7 4.1-54.1 12-3.7 1.8-6.4 5.1-7.4 9.1-1 4.1-.1 8.3 2.5 11.6 2.6 3.4 6.5 5.3 10.8 5.3 2.1 0 4-.5 5.9-1.3 12.6-6 27.2-9.2 42.2-9.2 22.4 0 42.5 9.2 58.3 26.6 16.1 17.8 27.3 43.6 32.1 74.6 4.7 29.6 7 53.5 7.1 73.1.2 39.7-4.8 72.7-4.8 73.1-.6 3.6.3 7.2 2.5 10.2 2.2 3 5.3 4.9 8.9 5.5.7.1 1.4.2 2.1.2 6.8 0 12.5-4.9 13.5-11.6.2-1.4 5.4-35.2 5.2-77.5 0-21.3-2.4-46.5-7.3-77.4zM185.3 203.5c4-5.8 2.9-13.6-2.5-18.2-2.5-2.1-5.6-3.2-8.8-3.2-4.5 0-8.7 2.2-11.3 5.9-14.7 21.5-19.7 49.1-14.4 79.8 8.9 51.3 16.9 111.1 9.4 165-.5 3.8.5 7.7 2.9 10.7 2.3 3 5.7 4.8 9.4 5.1.4 0 .8.1 1.2.1 6.8 0 12.6-5.1 13.5-11.8 8.2-57.7-.2-120.2-9.5-173.8-4.1-23.8-.7-43.9 10.1-59.6zM317.5 388h-.5c-7.6.3-13.5 6.6-13.2 14.2 0 .2.6 17.9-2.6 34.7-1.3 6.9 2.6 13.7 9.1 15.8 1.4.4 2.8.7 4.3.7 6.6 0 12.2-4.7 13.4-11.1 3.8-20.1 3.1-40.2 3.1-41.1-.2-7.5-6.2-13.2-13.6-13.2z"/><path d="M294.6 205.9c-11.2-10.5-25.2-16.1-40.5-16.1-19.8 0-36.7 7.3-47.6 20.5-8.3 10.1-17 28.8-10.9 60 12.3 62.5 15 121.6 8.1 175.6-1 7.5 4.4 14.4 11.8 15.3.6.1 1.2.1 1.7.1 6.9 0 12.7-5.1 13.6-12 7.3-57 4.5-119-8.3-184.4-3.2-16.4-1.4-29.3 5.1-37.3 5.6-6.8 15-10.5 26.4-10.5 25 0 35.1 27.6 38.3 39.4 6.9 25.7 10.9 63 11.5 107.7.1 7.4 6.2 13.5 13.7 13.5h.2c3.6-.1 7-1.5 9.6-4.1 2.5-2.6 3.9-6.1 3.9-9.7-.7-47-5-86.5-12.5-114.4-4.9-18.5-13.1-33.2-24.1-43.6z"/><path d="M265.2 245.9c-2.1-5.1-7.1-8.5-12.7-8.5-1.8 0-3.6.4-5.2 1-7 2.9-10.3 10.9-7.4 17.9 6.6 16 11.8 46.2 14.1 82.8 2.4 36.9 1.7 76.9-2 109.6-.4 3.6.6 7.2 2.9 10.1 2.3 2.9 5.5 4.6 9.2 5 .5.1 1 .1 1.5.1 7 0 12.8-5.2 13.6-12.2 3.9-35.5 4.6-76.6 2-115.8-2.5-39.3-8.2-71.3-16-90z"/></svg>