<svg xmlns="http://www.w3.org/2000/svg" viewBox="0 0 512 512"><path d="M369.8 464c-4.9 0-9.7-2.5-12.3-7L129.9 69.3c-4-6.7-1.7-15.4 5.1-19.3 6.8-3.9 15.5-1.7 19.5 5.1l227.6 387.7c4 6.7 1.7 15.4-5.1 19.3-2.3 1.3-4.8 1.9-7.2 1.9zM320 272V112c0-35.2-28.8-64-64-64-28.4 0-52.6 18.8-60.9 44.5L315 296.8c3.2-7.6 5-16 5-24.8zM192 272c0 35.2 28.8 64 64 64 3.9 0 7.6-.4 11.3-1L192 206.6V272zM366 275v-69c0-7.7-6.3-14-14-14s-14 6.3-14 14v69c0 15.2-4.2 29.4-11.4 41.6l15.6 26.6c14.9-18.7 23.8-42.4 23.8-68.2z"/><path d="M256 357c-45.2 0-82-36.8-82-82v-69c0-7.7-6.3-14-14-14s-14 6.3-14 14v69c0 55.9 41.9 102.2 96 109.1V436h-36c-7.7 0-14 6.3-14 14s6.3 14 14 14h100c7.7 0 14-6.3 14-14s-6.3-14-14-14h-36v-51.9c7.9-1 15.6-2.9 22.9-5.5l-14.5-24.8c-7.1 2.1-14.6 3.2-22.4 3.2z"/></svg>