<svg xmlns="http://www.w3.org/2000/svg" viewBox="0 0 512 512"><path d="M404.3 86l-202 202c-1.5 1.5-2.3 3.5-2.3 5.6v26.5c0 4.4 3.6 7.9 7.9 7.9h26.3c2.1 0 4.2-.8 5.7-2.3l202.1-202c3.1-3.1 3.1-8.1 0-11.2L415.5 86c-3.1-3.1-8.1-3.1-11.2 0zM475.6 67l-14.4-14.4-.2-.2c-3.1-2.7-7.2-4.4-11.5-4.4-4.4 0-8.5 1.7-11.6 4.5l-11.3 11.4c-1.5 1.6-1.5 4.1 0 5.6L437 79.9l21.7 21.7c1.6 1.6 4.1 1.6 5.7 0l11.3-11.3c2.8-3.1 4.4-7.1 4.4-11.6-.1-4.4-1.7-8.6-4.5-11.7z"/><g><path d="M250 342c-3 3-7.1 4.7-11.3 4.7H197.3c-8.8 0-16-7.2-16-16V289.2c0-4.2 1.7-8.3 4.7-11.3l.8-.8 147.6-147.6c2.5-2.5.7-6.8-2.8-6.8H90.7C58.3 122.7 32 149 32 181.4v224c0 32.4 26.3 58.7 58.7 58.7h256c32.4 0 58.7-26.3 58.7-58.7v-209c0-3.6-4.3-5.3-6.8-2.8L250.8 341.2l-.8.8z"/></g></svg>