<svg xmlns="http://www.w3.org/2000/svg" viewBox="0 0 512 512"><path d="M288 124c30.3 0 59.3 11.2 81.8 31.5 22.3 20.1 36.3 47.6 39.5 77.3l1.2 11.1c.6 5.8 5 10.5 10.7 11.5l11 2c14 2.5 27 10.4 36.7 22.1 9.8 12 15.2 26.9 15.2 42.1 0 17-6.9 34.1-18.9 46.8C453 381 437.4 388 421.1 388H90.9c-16.3 0-31.9-7-43.9-19.7s-18.9-29.7-18.9-46.8c0-14.4 4.6-28.9 13.1-40.9 8.6-12.2 20.2-20.9 33.7-25.1l10.3-3.3c5.3-1.7 9-6.6 9.1-12.2l.2-10.8c.2-11.8 5.1-23.6 13.5-32.4 8.3-8.7 18.9-13.4 29.9-13.4 5.6 0 11.1 1.1 16.3 3.2l11.1 4.5c5.7 2.3 12.2.4 15.7-4.7l6.8-9.8C210.4 143.7 248 124 288 124m0-28c-51.2 0-96.3 25.6-123.4 64.7-8.3-3.4-17.4-5.3-26.9-5.3-39.1 0-70.8 34.4-71.4 73.4C26.4 241.5 0 280.5 0 321.5 0 371.7 40.7 416 90.9 416h330.3c50.2 0 90.9-44.3 90.9-94.5 0-44.7-32.3-84.1-74.9-91.7C429 154.6 365.4 96 288 96z"/></svg>