<svg xmlns="http://www.w3.org/2000/svg" viewBox="0 0 512 512"><path d="M394.9 117.3c-11.6 0-21.1 9.3-21.1 20.6v109.4c0 4.8-4 8.7-8.9 8.7s-8.9-3.9-8.9-8.7V85.9c0-11.3-9.5-20.6-21.1-20.6-11.6 0-21.1 9.3-21.1 20.6v126.8c0 4.8-4 8.7-8.9 8.7s-8.9-3.9-8.9-8.7V68.6c0-11.3-9.5-20.6-21.1-20.6-11.6 0-21.1 9.3-21.1 20.6V230c0 4.8-4 8.7-8.9 8.7s-8.9-3.9-8.9-8.7V103.2c0-11.3-9.5-20.6-21.1-20.6-11.6 0-21.1 9.3-21.1 20.6v218.3L166 297.9c-26.1-22.7-48.2-32.4-66.2-15.7-12.1 11.8 6.9 30.9 26.8 53.2 19.2 21.5 70 91.9 113.3 117.3 0 0 16.7 11.4 40.6 11.4h57.2c46.1 0 78.4-37.9 78.4-93.2v-233c-.1-11.3-9.6-20.6-21.2-20.6z"/></svg>