<svg xmlns="http://www.w3.org/2000/svg" viewBox="0 0 512 512"><path d="M376 192H188v-48c0-18.1 7.1-35.1 20-48s29.9-20 48-20 35.1 7.1 48 20 20 29.9 20 48c0 7.7 6.3 14 14 14s14-6.3 14-14c0-53.2-43.9-96.7-97.3-96-52.7.7-94.7 44.5-94.7 97.3V192h-24c-22 0-40 18-40 40v192c0 22 18 40 40 40h240c22 0 40-18 40-40V232c0-22-18-40-40-40zM270 316.8v68.8c0 7.5-5.8 14-13.3 14.4-8 .4-14.7-6-14.7-14v-69.2c-11.5-5.6-19.1-17.8-17.9-31.7 1.4-15.5 14.1-27.9 29.6-29 18.7-1.3 34.3 13.5 34.3 31.9 0 12.7-7.3 23.6-18 28.8z"/></svg>