<svg xmlns="http://www.w3.org/2000/svg" viewBox="0 0 512 512"><path d="M255.9 456c31.1 0 48.1-22 48.1-53h-96.3c0 31 17 53 48.2 53zM154.5 55c-2.5-4.3-7-6.8-11.6-7h.3-1.2c-2.3 0-4.7.7-6.9 1.9-6.8 3.9-9.1 12.6-5.1 19.3L357.5 457c2.6 4.5 7.4 7 12.3 7 2.4 0 4.9-.6 7.2-1.9 6.8-3.9 9.1-12.6 5.1-19.3L154.5 55zM296.1 384L159 150.5c-8.2 20.2-13.3 46-13.3 78.6 0 90.9-30.3 102.7-45.7 123.1-9.9 13.1-.5 31.8 15.9 31.8h180.2zM412 352.2c-15.4-20.3-45.7-32.2-45.7-123.1 0-93.3-41.2-130.8-79.6-139.8-3.6-.9-6.2-2.1-6.2-5.9v-2.9c0-13.4-11-24.7-24.4-24.6-13.4-.2-24.4 11.2-24.4 24.6v2.9c0 3.7-2.6 5-6.2 5.9-8.7 2-17.5 5.5-25.9 10.8L366.1 384H396c16.5 0 25.9-18.8 16-31.8z"/></svg>