<svg xmlns="http://www.w3.org/2000/svg" viewBox="0 0 512 512"><path d="M258.5 104.1c-1.5-1.2-3.5-1.2-5 0l-156 124.8c-.9.8-1.5 1.9-1.5 3.1v230c0 1.1.9 2 2 2h108c1.1 0 2-.9 2-2V322c0-1.1.9-2 2-2h92c1.1 0 2 .9 2 2v140c0 1.1.9 2 2 2h108c1.1 0 2-.9 2-2V232c0-1.2-.6-2.4-1.5-3.1l-156-124.8z"/><path d="M458.7 204.2l-189-151.4C265.9 49.7 261 48 256 48s-9.9 1.7-13.7 4.8L160 119.7V77.5c0-1.1-.9-2-2-2H98c-1.1 0-2 .9-2 2v92.2l-42.7 35.1c-3.1 2.5-5.1 6.2-5.3 10.2-.2 4 1.3 7.9 4.1 10.7 2.6 2.6 6.1 4.1 9.9 4.1 3.2 0 6.3-1.1 8.8-3.1l183.9-148c.5-.4.9-.4 1.3-.4s.8.1 1.3.4l183.9 147.4c2.5 2 5.6 3.1 8.8 3.1 3.7 0 7.2-1.4 9.9-4.1 2.9-2.8 4.4-6.7 4.2-10.7-.3-4-2.2-7.7-5.4-10.2z"/></svg>