<svg xmlns="http://www.w3.org/2000/svg" viewBox="0 0 512 512"><path d="M112.4 92h77.7c7.7 0 13.9-6.2 13.9-13.9v-.2c0-7.7-6.2-13.9-13.9-13.9H77.9C70.2 64 64 70.2 64 77.9v112.2c0 7.7 6.2 13.9 13.9 13.9h.2c7.7 0 13.9-6.2 13.9-13.9v-77.7l117.1 116.3c2.6 2.6 6.1 4 9.8 4 3.7 0 7.2-1.4 9.8-4.1 5.4-5.4 5.4-14.2 0-19.6L112.4 92zM434.1 64H321.9c-7.7 0-13.9 6.2-13.9 13.9v.2c0 7.7 6.2 13.9 13.9 13.9h77.7L283.3 209.1c-5.4 5.4-5.4 14.2 0 19.6 2.6 2.6 6.1 4.1 9.8 4.1 3.7 0 7.2-1.4 9.8-4L420 112.4v77.7c0 7.7 6.2 13.9 13.9 13.9h.2c7.7 0 13.9-6.2 13.9-13.9V77.9c0-7.7-6.2-13.9-13.9-13.9zM218.9 279.2c-3.7 0-7.2 1.4-9.8 4L92 399.6v-77.7c0-7.7-6.2-13.9-13.9-13.9h-.2c-7.7 0-13.9 6.2-13.9 13.9v112.2c0 7.7 6.2 13.9 13.9 13.9h112.2c7.7 0 13.9-6.2 13.9-13.9v-.2c0-7.7-6.2-13.9-13.9-13.9h-77.7l116.3-117.1c5.4-5.4 5.4-14.2 0-19.6-2.6-2.6-6.1-4.1-9.8-4.1zM434.1 308h-.2c-7.7 0-13.9 6.2-13.9 13.9v77.7L302.9 283.3c-2.6-2.6-6.1-4-9.8-4-3.7 0-7.2 1.4-9.8 4.1-5.4 5.4-5.4 14.2 0 19.6l116.3 117h-77.7c-7.7 0-13.9 6.2-13.9 13.9v.2c0 7.7 6.2 13.9 13.9 13.9h112.2c7.7 0 13.9-6.2 13.9-13.9V321.9c0-7.7-6.2-13.9-13.9-13.9z"/></svg>