<svg xmlns="http://www.w3.org/2000/svg" viewBox="0 0 512 512"><circle cx="416" cy="152" r="48"/><path d="M416 218.5c-5.4 0-10.6-.7-15.6-1.9L353 264.9c-.8.8-.8 2 0 2.8l75.3 80.2c5.1 5.1 5.1 13.3 0 18.4-2.5 2.5-5.9 3.8-9.2 3.8s-6.7-1.3-9.2-3.8l-75-79.9c-.8-.8-2.1-.8-2.9 0L313.7 305c-15.3 15.5-35.6 24.1-57.4 24.2-22.1.1-43.1-9.2-58.6-24.9l-17.6-17.9c-.8-.8-2.1-.8-2.9 0l-75 79.9c-2.5 2.5-5.9 3.8-9.2 3.8s-6.7-1.3-9.2-3.8c-5.1-5.1-5.1-13.3 0-18.4l75.3-80.2c.7-.8.7-2 0-2.8L51.4 155.3c-1.3-1.3-3.4-.4-3.4 1.4V376c0 17.6 14.4 32 32 32h352c17.6 0 32-14.4 32-32V198c-12.1 12.6-29.1 20.5-48 20.5z"/><path d="M349.5 152c0-11.6 3-22.5 8.2-32H79.9c-7.5 0-14.4 2.6-19.8 7L217 286.7c10.4 10.6 24.3 16.4 39.1 16.4s28.7-5.8 39.1-16.4l80.5-81.9c-16-12.2-26.2-31.3-26.2-52.8z"/></svg>