<svg xmlns="http://www.w3.org/2000/svg" viewBox="0 0 512 512"><path d="M256 48C141.1 48 48 141.1 48 256s93.1 208 208 208 208-93.1 208-208S370.9 48 256 48zM76 256c0-48.1 18.7-93.3 52.7-127.3S207.9 76 256 76c48.1 0 93.3 18.7 127.3 52.7 32.2 32.2 50.7 74.5 52.6 119.7-8.8-10.3-24.2-24-43.8-24-27.5 0-41.7 25.7-51 42.7-1.4 2.5-2.7 4.9-3.9 7-11.4 19.2-27.3 30-42.5 28.9-13.4-.9-24.8-11.2-32.2-28.8-9.2-22.1-29.1-45.8-52.9-49.2-11.3-1.6-28.1.8-44.7 21.4-3.2 4-6.9 9.4-11.1 15.6-10.4 15.5-26.2 38.8-38.1 40.8-17.3 2.8-30.9-7.5-36.4-12.3-2.2-11.2-3.3-22.8-3.3-34.5z"/></svg>