<svg xmlns="http://www.w3.org/2000/svg" viewBox="0 0 512 512"><path d="M442 248.9c-15.7-20.6-37.7-35.9-62.1-43.6 1-6.3 1.4-12.7 1.4-19.1 0-33.7-13-65.4-36.7-89.2C321 73.1 289.5 60 256 60s-65 13.1-88.6 37c-23.7 23.8-36.7 55.5-36.7 89.2 0 6.4.5 12.8 1.4 19.1-24.5 7.7-46.4 23.1-62.1 43.6-17 22.2-26 48.8-26 76.9 0 33.7 13 65.4 36.7 89.2 23.7 23.8 55.2 37 88.6 37 32.6 0 63.2-12.4 86.7-35 23.4 22.6 54.1 35 86.7 35 33.5 0 65-13.1 88.6-37 23.7-23.8 36.7-55.5 36.7-89.2 0-28.1-9-54.7-26-76.9zM256 85.5c55.1 0 100 45.2 100 100.7 0 4.7-.3 9.4-1 14.1-4.1-.4-8.2-.6-12.4-.6-32.6 0-63.2 12.4-86.7 35-23.4-22.6-54.1-35-86.7-35-4.1 0-8.3.2-12.4.6-.6-4.6-1-9.4-1-14.1.2-55.6 45.1-100.7 100.2-100.7zm0 201.4c-1.8 0-3.7-.1-5.5-.2 1.6-3.8 3.4-7.5 5.5-11.1 2.1 3.6 3.9 7.3 5.5 11.1-1.8.2-3.7.2-5.5.2zm-46.6 131.2c-12.7 5.6-26.1 8.4-40.1 8.4-55.1 0-100-45.2-100-100.7 0-22.3 7.1-43.5 20.6-61.2 12.3-16.1 29.4-28.3 48.5-34.6 6.6 17.9 17.3 34.3 31.2 47.6 13.9 13.4 30.9 23.4 49.2 29.1-1 6.3-1.4 12.7-1.4 19.1 0 25.8 7.7 50.6 22.2 71.7-8.8 8.7-19 15.6-30.2 20.6zM225.1 282c-27.6-9-50-29.8-61.3-56.7 1.8-.1 3.7-.2 5.5-.2 13.9 0 27.4 2.8 40.1 8.4 11.2 5 21.4 11.9 30.1 20.6-5.9 8.7-10.8 18-14.4 27.9zm30.9 94c-8.7-15.2-13.3-32.5-13.3-50.2 0-4.7.3-9.4 1-14.1a128.658 128.658 0 0 0 24.8 0c.6 4.6 1 9.4 1 14.1-.2 17.7-4.8 35-13.5 50.2zm46.6-142.5c12.7-5.6 26.1-8.4 40.1-8.4 1.8 0 3.7.1 5.5.2-11.3 26.9-33.7 47.7-61.3 56.7-3.6-9.8-8.5-19.2-14.4-27.9 8.7-8.7 18.9-15.6 30.1-20.6zm40.1 193c-13.9 0-27.4-2.8-40.1-8.4-11.2-5-21.4-11.9-30.1-20.6 14.5-21.1 22.2-45.8 22.2-71.7 0-6.4-.5-12.8-1.4-19.1 18.3-5.7 35.2-15.7 49.2-29.1 13.8-13.3 24.5-29.6 31.2-47.6 19.1 6.3 36.2 18.4 48.5 34.6 13.5 17.7 20.6 38.9 20.6 61.2-.1 55.6-45 100.7-100.1 100.7z"/></svg>