<svg xmlns="http://www.w3.org/2000/svg" viewBox="0 0 512 512"><path d="M380 64.4zM275.1 57.6c-9.4-5.9-23.3-9.6-37.9-9.6-14.3 0-30.3 2.5-46.7 9.2-46.5 19-74 45.4-81.1 52.4-7 7-16.8 18-22.9 26.6-6.1 8.7 1.9 21-6.1 29s-24.7 0-24.7 0c-1.4 0-2.9.5-3.9 1.6l-34.1 33.9c-2.2 2.1-2.2 5.7 0 7.8l63.5 63.1c1.1 1.1 2.5 1.6 3.9 1.6s2.9-.5 3.9-1.6l33.2-34.8c2.2-2.1 2.2-5.7 0-7.8 0 0-5.3-5.2-12.1-12s.8-19.3 5.3-23.4c4.5-4.1 11.6-6.8 21.1-6.8 4.3 0 7.4.7 11.4 1.8 12.2 3.4 25.8 15.9 50.9 40.8l-3.9 6.5c-2.3 3.8-.9 8.3 1.3 10.4 0 0-5-4.9 13.1 13.1l50-47.2c-19.1-18.9-14.5-14.1-14.5-14.1-1.4-1.4-3.8-2.3-6.3-2.3-1.4 0-2.9.3-4.2 1l-5.6 3c-28-27.8-35.3-40.2-34.3-61.7 1.1-22.4 12.3-37.1 30.5-52.7 24.7-21.1 60.6-15.2 60.6-15.2 8-.1-4.2-8.6-10.4-12.6zM462.5 399.9s-68.9-57.2-130.2-115.7l-47.7 50.6c58.5 60.6 114.9 127.6 114.9 127.6 1.1 1.1 2.5 1.6 3.9 1.6s2.9-.5 3.9-1.6l55.1-54.7c2.2-2.1 2.2-5.7.1-7.8z"/><path d="M479.2 125.3l-52.4 52.6-51.1-9.3-9.2-51.1 52.4-52.6c-11.1-11.1-26.8-16.6-39-16.6-.7 0-1.4 0-2 .1-12.5.6-39.2 7.7-59.9 29.7-20 21.1-41.1 60.6-22.4 104.3 2.2 5.3 4.7 12.2-2.7 19.7-1.5 1.4-9.9 9.4-22.5 21.3-3.6 3.4-7.4 7-11.6 11-8 7.6-17.1 16.2-26.8 25.2-3.8 3.6-7.7 7.2-11.6 11-57 53.8-126.9 119.5-126.9 119.5-18 15.5-16.7 44.1-.1 60.8 8.5 8.4 20 12.8 31.3 12.8 11 0 21.9-4.2 29.5-13.1 0 0 65.5-69.8 119.3-126.9 3.7-4 7.4-7.8 11-11.7 9.3-9.9 18-19.1 25.8-27.3 3.9-4.2 7.6-8.1 11-11.6 11.5-12.2 19.3-20.4 21-22 4-3.9 7.7-5.1 11.1-5.1 3.3 0 6.2 1.2 8.6 2.4 9.9 5.1 21 7.3 32.4 7.3 26.7 0 55-12.4 72.1-29.5 24.4-24.4 28.8-47.9 29.6-60 .6-11.8-3.6-27.6-16.9-40.9zM137.4 426.1c-5.5 5.4-14.4 5.4-19.8 0-5.4-5.5-5.4-14.4 0-19.8 5.5-5.4 14.4-5.4 19.8 0 5.4 5.5 5.4 14.4 0 19.8z"/></svg>