<svg xmlns="http://www.w3.org/2000/svg" viewBox="0 0 512 512"><circle cx="256" cy="275" r="57.5"/><path d="M417.5 160H363c-4.6 0-8.9-2-12-5.4-28.4-31.8-39.1-42.6-50.7-42.6h-85.5c-11.7 0-23.2 10.8-51.7 42.7-3 3.4-7.4 5.3-11.9 5.3h-4.1v-8c0-4.4-3.6-8-8-8h-26c-4.4 0-8 3.6-8 8v8h-7.5C79.9 160 64 173.2 64 190.7v176c0 17.5 15.9 33.3 33.5 33.3h320c17.6 0 30.5-15.8 30.5-33.3v-176c0-17.5-12.9-30.7-30.5-30.7zM260 360.4c-50.3 2.3-91.7-39.1-89.4-89.4 2-43.9 37.5-79.4 81.4-81.4 50.3-2.3 91.7 39.1 89.4 89.4-2 43.9-37.5 79.4-81.4 81.4zM352 218c-7.2 0-13-5.8-13-13s5.8-13 13-13 13 5.8 13 13-5.8 13-13 13z"/></svg>