<svg xmlns="http://www.w3.org/2000/svg" viewBox="0 0 512 512"><path d="M416.3 256c0-21 13.1-38.9 31.7-46.1-4.9-20.5-13-39.7-23.7-57.1-6.4 2.8-13.2 4.3-20.1 4.3-12.6 0-25.2-4.8-34.9-14.4-14.9-14.9-18.2-36.8-10.2-55-17.3-10.7-36.6-18.8-57-23.7C295 82.5 277 95.7 256 95.7S217 82.5 209.9 64c-20.5 4.9-39.7 13-57.1 23.7 8.1 18.1 4.7 40.1-10.2 55-9.6 9.6-22.3 14.4-34.9 14.4-6.9 0-13.7-1.4-20.1-4.3C77 170.3 68.9 189.5 64 210c18.5 7.1 31.7 25 31.7 46.1 0 21-13.1 38.9-31.6 46.1 4.9 20.5 13 39.7 23.7 57.1 6.4-2.8 13.2-4.2 20-4.2 12.6 0 25.2 4.8 34.9 14.4 14.8 14.8 18.2 36.8 10.2 54.9 17.4 10.7 36.7 18.8 57.1 23.7 7.1-18.5 25-31.6 46-31.6s38.9 13.1 46 31.6c20.5-4.9 39.7-13 57.1-23.7-8-18.1-4.6-40 10.2-54.9 9.6-9.6 22.2-14.4 34.9-14.4 6.8 0 13.7 1.4 20 4.2 10.7-17.4 18.8-36.7 23.7-57.1-18.4-7.2-31.6-25.1-31.6-46.2zm-159.4 79.9c-44.3 0-80-35.9-80-80s35.7-80 80-80 80 35.9 80 80-35.7 80-80 80z"/></svg>