<svg xmlns="http://www.w3.org/2000/svg" viewBox="0 0 512 512"><path d="M440.3 161.3c-15-23.9-36.3-43.3-61.4-56.1-1.9-.9-3.9-1.4-6-1.4-5 0-9.5 2.8-11.8 7.2-1.6 3.1-1.9 6.7-.8 10 1.1 3.3 3.4 6.1 6.6 7.7 20.9 10.7 38.6 26.8 51.1 46.7 12.8 20.4 19.6 44 19.6 68v40.5c0 17.2-3.3 33.4-9.9 48-6.3 14-15.4 26.3-27 36.6-23.2 20.5-55.1 31.9-89.9 31.9-34.4 0-43.6-5.2-52.4-10.2-8.1-4.6-17.3-9.8-37.7-11-31.7-2-56.9-12.4-77.2-31.8-2.5-2.4-5.7-3.7-9.1-3.7-3.6 0-7 1.5-9.5 4.1-2.4 2.5-3.7 5.7-3.7 9.1 0 3.6 1.5 7 4.1 9.5 25 23.9 55.7 36.7 93.8 39.1 14.4.9 19.4 3.7 26.4 7.7 11.3 6.4 24.1 13.6 65.4 13.6 41.6 0 80-13.9 108.1-39.2 14.2-12.8 25.3-28 33-45.2 8-18 12.1-37.6 12.1-58.5v-40.5c-.1-29.1-8.3-57.5-23.8-82.1z"/><path d="M284 383c8.7 1.4 17.2 2.1 25.4 2.1 16 0 31.2-2.7 45-8 13.9-5.4 26.5-13.4 37.5-23.9 5.3-5 5.4-13.4.4-18.6-2.5-2.6-5.9-4.1-9.5-4.1-3.4 0-6.7 1.3-9.1 3.7-17.1 16.3-38.8 24.6-64.5 24.6-6.8 0-13.8-.6-21-1.8-.7-.1-1.4-.2-2.1-.2-6.5 0-12 4.6-13 11-.1.7-.2 1.4-.2 2.1 0 6.6 4.7 12 11.1 13.1zm2.1-21.1h.1-.3.2zM222.9 421.7c-39.9 0-72.8-13.4-102.7-40.3-29.1-26.2-45.8-60.7-45.8-94.5v-43.6c0-24.1 6.8-47.6 19.6-68 12.5-19.9 30.2-36 51.1-46.7 3.1-1.6 5.5-4.3 6.6-7.7 1.1-3.3.8-6.9-.8-10.1-2.3-4.4-6.8-7.2-11.8-7.2-2.1 0-4.1.5-6 1.4-25.1 12.8-46.4 32.2-61.4 56.1-15.5 24.6-23.7 53-23.7 82v43.6c0 41.2 19.9 82.8 54.5 114 34.6 31.2 74 47.1 120.4 47.1 7.3 0 13.2-5.9 13.2-13.2-.1-7-6-12.9-13.2-12.9z"/><g><path d="M348.4 115.1c.8-11.9 10.3-21.6 22.2-22.6 4.3-.4 8.4.4 12 2 2.6 1.1 5.1-1.6 3.9-4.1-2.7-5.7-6.6-10.9-11.5-15.1C366.6 68 355.9 64 344.8 64H167.2c-17.9 0-33.9 10.3-41.5 25.8-1.2 2.5 1.2 5.2 3.9 4.2 3.3-1.3 7-1.8 10.8-1.5 11.9 1 21.4 10.8 22.2 22.7.8 13.6-9.5 25-22.8 25.8-.9.1-1.8.7-2.1 1.5-.4 1.1-.1 2.3.8 3 8.1 6.2 18.1 9.7 28.7 9.7h177.6c10.9 0 21.2-3.6 29.4-10.2 1.7-1.3.7-4-1.4-4h-.1c-14 0-25.2-11.7-24.3-25.9zm-21.6-10.3c3.5 15.8-10.7 30-26.5 26.5-8.4-1.9-15.2-8.6-17-17-3.5-15.8 10.7-30 26.5-26.5 8.4 1.9 15.2 8.6 17 17z"/></g></svg>