<svg xmlns="http://www.w3.org/2000/svg" viewBox="0 0 512 512"><path d="M231.5 118.3c.1 0 .1-.1 0 0L175.3 62c-9.3-9.3-21.6-14-33.9-14-12.3 0-24.6 4.7-33.9 14-18.7 18.7-18.7 49.2 0 67.9l49.3 49.3-84.5 84c-11.1 11.1-11 29.2.3 40l131.2 126c10.9 10.4 28 10.4 38.9-.1 37.8-36.6 118.3-114.5 126.7-122.9 5.8-5.8 18.2-7.1 28.7-7.1h.3c5.9 0 8.8-7.1 4.6-11.2L231.5 118.3zm-103.9-7.9c-7.2-7.2-8.3-18.8-2-26.8 3.8-4.9 9.6-7.6 15.8-7.6 5.4 0 10.4 2.1 14.1 5.8l49.3 49.3-28.3 28.3-48.9-49zM403 339.5c-1.6-1.9-4.5-1.9-6.1 0-10.5 12.2-45 53.9-45 76.4 0 26.6 21.5 48.1 48 48.1s48-21.6 48-48.1c.1-22.6-34.3-64.2-44.9-76.4z"/></svg>