<svg xmlns="http://www.w3.org/2000/svg" viewBox="0 0 512 512"><path d="M352 56h-1c-39.7 0-74.8 21-95 52-20.2-31-55.3-52-95-52h-1c-61.9.6-112 50.9-112 113 0 37 16.2 89.5 47.8 132.7C156 384 256 456 256 456s100-72 160.2-154.3C447.8 258.5 464 206 464 169c0-62.1-50.1-112.4-112-113zm41.6 229.2C356.4 336 302.2 383.6 269 410.5c-5.2 4.2-13 .5-13-6.2V198.6c0-26.8 8.5-52.7 23.3-75 .1-.1.1-.2.2-.2 7.7-11.8 18.2-21.6 30.4-28.5 12.6-7.1 26.8-10.8 41.1-10.8h.9c22.5.2 43.7 9.1 59.6 25.1 15.9 16 24.6 37.3 24.6 59.8-.1 29-13.2 76.1-42.5 116.2z"/></svg>