<svg xmlns="http://www.w3.org/2000/svg" viewBox="0 0 512 512"><path d="M124 80v322c0 7.7-6.3 14-14 14s-14-6.3-14-14V112H80c-17.7 0-32 14.3-32 32v288c0 17.7 14.3 32 32 32h353.1c17 0 30.9-13.8 30.9-30.9V80c0-17.7-14.3-32-32-32l-278 2c-17.7 0-30 12.3-30 30zm66 32h84c7.7 0 14 6.3 14 14s-6.3 14-14 14h-84c-7.7 0-14-6.3-14-14s6.3-14 14-14zm0 160h148c7.7 0 14 6.3 14 14s-6.3 14-14 14H190c-7.7 0-14-6.3-14-14s6.3-14 14-14zm196 108H190c-7.7 0-14-6.3-14-14s6.3-14 14-14h196c7.7 0 14 6.3 14 14s-6.3 14-14 14zm0-160H190c-7.7 0-14-6.3-14-14s6.3-14 14-14h196c7.7 0 14 6.3 14 14s-6.3 14-14 14z"/></svg>