<svg xmlns="http://www.w3.org/2000/svg" viewBox="0 0 512 512"><path d="M404 188.9C404 111 333.9 48 256 48s-148 63.1-148 140.9c0 31 13.2 56.1 30.2 80.1h-.3c10.9 15 21.4 17.7 31.5 35 14.7 25.2 18.1 40.7 18.7 55.7.4 8.6 7.5 15.3 16 15.3h8.9c2.2 0 4-1.8 4-4v-94.5c0-5-1.2-9.8-3.4-14.3l-21-42c-3.5-7 1.6-15.2 9.4-15.2 4 0 7.7 2.3 9.4 5.9l25.3 51.4c2.2 4.4 3.3 9.2 3.3 14.1V371c0 2.2 1.8 4 4 4h24c2.2 0 4-1.8 4-4v-94.6c0-4.9 1.1-9.7 3.3-14.1l25.4-51.6c1.7-3.4 5.2-5.6 9-5.6 7.5 0 12.4 7.9 9 14.6l-21.3 42.6c-2.2 4.5-3.4 9.4-3.4 14.3V371c0 2.2 1.8 4 4 4h10c8.5 0 15.5-6.6 16-15 .9-15.4 4.7-32.3 18.4-56 10.1-17.3 20.6-20 31.5-35h-.1c17-24 30.2-49.1 30.2-80.1zM238 464h36c7.7 0 14-6.3 14-14s-6.3-14-14-14h-36c-7.7 0-14 6.3-14 14s6.3 14 14 14zM218 420h76c7.7 0 14-6.3 14-14s-6.3-14-14-14h-76c-7.7 0-14 6.3-14 14s6.3 14 14 14z"/></svg>