<svg xmlns="http://www.w3.org/2000/svg" viewBox="0 0 512 512"><path d="M385.3 386c-15.6-5.5-37.8-6.8-52.1-10-8.2-1.8-20.1-6.3-24.1-11.1-3.5-4.2-2.1-38.4-1.7-47.2.1-1.3.5-2.6 1.1-3.8 2.2-3.6 7.2-12.2 10.3-20 3-7.6 6.2-25 7.6-33.3.4-2.4 1.9-4.5 4-5.6 2.6-1.5 6.1-4.9 7.8-13.4 3.1-15.7 8-21.8 7.4-33.5-.3-5.2-1.7-8-3.2-9.5-2-1.9-2.7-4.8-2-7.4 1.9-7.6 4.7-22.6 5.2-45.6.9-41.1-31.3-81.6-89.5-81.6-59.1 0-90.5 40.5-89.6 81.6.5 23 3.3 38 5.1 45.6.6 2.7-.1 5.5-2 7.4-1.5 1.5-3 4.3-3.2 9.5-.6 11.7 4.3 17.8 7.4 33.5 1.7 8.4 5.2 11.9 7.8 13.4 2.1 1.2 3.6 3.2 4 5.6 1.4 8.3 4.6 25.7 7.6 33.3 3.1 7.8 8.2 16.5 10.3 20 .7 1.1 1.1 2.4 1.1 3.8.4 8.8 1.8 43.1-1.7 47.2-4 4.8-15.9 9.3-24.1 11.1-14.3 3.2-36.5 4.5-52.1 10-14.2 5-55.3 20.5-62.5 52.3-1.1 5 2.7 9.7 7.9 9.7H440c5.1 0 8.9-4.7 7.8-9.7-7.2-31.8-48.3-47.3-62.5-52.3z"/><path d="M437.5 293.5h-27v-27c0-5.8-4.7-10.5-10.5-10.5s-10.5 4.7-10.5 10.5v27h-27c-5.8 0-10.5 4.7-10.5 10.5s4.7 10.5 10.5 10.5h27v27c0 5.8 4.7 10.5 10.5 10.5s10.5-4.7 10.5-10.5v-27h27c5.8 0 10.5-4.7 10.5-10.5s-4.7-10.5-10.5-10.5z"/></svg>