<svg xmlns="http://www.w3.org/2000/svg" viewBox="0 0 512 512"><path d="M90.1 187c0-33.4 17.1-62.8 43.5-78.9 2.8-1.7 1.6-6-1.7-6-38.2 0-68.5 30.4-74.1 69.8-5.6.9-9.9 7.3-9.9 14.9 0 8 4.7 14.3 10.8 14.8 6.7 33.8 33.8 55.4 61.2 64.5 4.3.9 7.1-4.5 3.8-7.5-19.6-17.7-33.6-44.3-33.6-71.6z"/><path d="M450.2 102.8c-1-2.7-2.1-5.2-3.2-7.7-6-13.4-13.4-24.2-21.7-32.2-10.5-9.7-21.4-14.9-34.8-14.9-13.5 0-21.5 5.2-25.8 7.8-43.1 25.9-112.3 46-154 46s-39.4.2-39.4.2c-31.6 14-54.8 46.9-54.8 85 0 34.2 17.8 64.2 44.4 80 12.1 10.1 23.6 8.8 21.1 22.2-2.5 13.4-22.5 97.5-25 115s-2.9 27.5 4 36c7 8.5 49.5 23.8 68 23.8s13.8-8.7 13.8-43.8-9.3-131.7 16.5-131.7c48.3 0 73.5 17.3 111.3 31.7 9 3.4 14.1 4.7 20.1 4.7 6 0 18.7-1.9 34.7-18.2 9.2-9.4 15.7-18.8 21.7-32.2 1.1-2.6 2.2-5.2 3.3-8 8.9-23.2 13.7-51.9 13.7-81.9-.1-29.8-4.9-58.6-13.9-81.8zm-26.6 157c-6.4 15.7-17.6 28.2-26.9 28.2-9.3 0-17.8-12.5-24.2-28.2-7.5-18.3-12.3-45-12.3-74.7 0-29.8 4.8-56.6 12.3-74.9 6.4-15.6 14.9-25 24.1-25 9.3 0 20.3 9.5 26.8 25 7.6 18.3 14.5 45.1 14.5 74.9.1 29.7-6.8 56.4-14.3 74.7z"/></svg>