<svg xmlns="http://www.w3.org/2000/svg" viewBox="0 0 512 512"><path d="M447.9 80H64.1C46.5 80 32 94.5 32 112.1v287.7c0 17.7 14.5 32.1 32.1 32.1h383.7c17.7 0 32.1-14.5 32.1-32.1V112.1c.1-17.6-14.4-32.1-32-32.1zM120 400c0 4.4-3.6 8-8 8H64c-4.4 0-8-3.6-8-8v-48c0-4.4 3.6-8 8-8h48c4.4 0 8 3.6 8 8v48zm0-80c0 4.4-3.6 8-8 8H64c-4.4 0-8-3.6-8-8v-48c0-4.4 3.6-8 8-8h48c4.4 0 8 3.6 8 8v48zm0-80c0 4.4-3.6 8-8 8H64c-4.4 0-8-3.6-8-8v-48c0-4.4 3.6-8 8-8h48c4.4 0 8 3.6 8 8v48zm0-80c0 4.4-3.6 8-8 8H64c-4.4 0-8-3.6-8-8v-48c0-4.4 3.6-8 8-8h48c4.4 0 8 3.6 8 8v48zm232 108H160c-6.6 0-12-5.4-12-12s5.4-12 12-12h192c6.6 0 12 5.4 12 12s-5.4 12-12 12zm104 132c0 4.4-3.6 8-8 8h-48c-4.4 0-8-3.6-8-8v-48c0-4.4 3.6-8 8-8h48c4.4 0 8 3.6 8 8v48zm0-80c0 4.4-3.6 8-8 8h-48c-4.4 0-8-3.6-8-8v-48c0-4.4 3.6-8 8-8h48c4.4 0 8 3.6 8 8v48zm0-80c0 4.4-3.6 8-8 8h-48c-4.4 0-8-3.6-8-8v-48c0-4.4 3.6-8 8-8h48c4.4 0 8 3.6 8 8v48zm0-80c0 4.4-3.6 8-8 8h-48c-4.4 0-8-3.6-8-8v-48c0-4.4 3.6-8 8-8h48c4.4 0 8 3.6 8 8v48z"/></svg>