<svg xmlns="http://www.w3.org/2000/svg" viewBox="0 0 512 512"><path d="M432 136h-84.3c12.4-11 20.3-26.6 20.3-44 0-33.1-28.3-60-63.1-60-20.6 0-37.9 9.7-48.9 27.4C245 41.7 227.7 32 207.1 32 172.3 32 144 58.9 144 92c0 17.4 7.8 33 20.3 44H80c-17.7 0-32 14.3-32 32v20c0 2.2 1.8 4 4 4h408c2.2 0 4-1.8 4-4v-20c0-17.7-14.3-32-32-32zM304.9 60c18.6 0 33.7 14.3 33.7 32s-15.1 32-33.7 32h-33.7c0-48 15.1-64 33.7-64zm-97.8 0c18.6 0 33.7 16 33.7 64h-33.7c-18.6 0-33.7-14.3-33.7-32s15.1-32 33.7-32zM64 226v222c0 17.6 14.4 32 32 32h146V218H72c-4.4 0-8 3.6-8 8zM440 218H270v262h146c17.6 0 32-14.4 32-32V226c0-4.4-3.6-8-8-8z"/></svg>