<svg xmlns="http://www.w3.org/2000/svg" viewBox="0 0 512 512"><path d="M434.6 272.1c-22.4-1.2-41.6 13.2-48.2 32.9h-38.9l-28.4-85.4c-2.2-6.6-8.3-11-15.2-11h-.3c-7 .1-13.1 4.8-15 11.6l-44.5 155.3-52.3-314.1c-1.2-7.5-7.6-13.1-15.2-13.4-7.6-.3-14.3 4.8-16.2 12.1l-53 244.9H48c-8.8 0-16 7.2-16 16s7.2 16 16 16h72c7.3 0 13.8-5 15.5-12.1l37.4-182.2 51.3 307.9c1.2 7.4 7.4 12.9 14.9 13.3h.9c7.1 0 13.4-4.7 15.4-11.6l49.7-173.6 15.7 47.3c2.2 6.5 8.3 11 15.2 11h51.1c6.9 18 24.4 31 44.9 31 27 0 48.8-22.3 48-49.5-.8-24.8-20.7-45.1-45.4-46.4z"/></svg>