<svg xmlns="http://www.w3.org/2000/svg" viewBox="0 0 512 512"><path d="M403.1 108.9c-81.2-81.2-212.9-81.2-294.2 0-81.3 81.2-81.2 212.9 0 294.2 81.2 81.2 212.9 81.2 294.2 0 81.2-81.2 81.2-213 0-294.2zM89.6 263.8c-5.6 1.1-10.5-3.8-9.4-9.4.6-3.1 3.1-5.7 6.3-6.3 5.6-1.1 10.5 3.8 9.4 9.4-.6 3.2-3.2 5.7-6.3 6.3zm26.2 82.2c-4.3 3.7-11 1.9-12.8-3.5-1-3-.1-6.5 2.3-8.5 4.3-3.7 11-1.9 12.8 3.5 1 3 .1 6.4-2.3 8.5zm2.3-171.5c-1.9 5.4-8.5 7.2-12.8 3.5-2.4-2.1-3.3-5.5-2.3-8.5 1.9-5.4 8.5-7.2 12.8-3.5 2.4 2.1 3.3 5.5 2.3 8.5zM179.6 404c-1.9 5.4-8.5 7.2-12.8 3.5-2.4-2.1-3.3-5.5-2.3-8.5 1.9-5.4 8.5-7.2 12.8-3.5 2.4 2.1 3.3 5.5 2.3 8.5zm-2.3-287.5c-4.3 3.7-11 1.9-12.8-3.5-1-3-.1-6.5 2.3-8.5 4.3-3.7 11-1.9 12.8 3.5 1 3 .1 6.4-2.3 8.5zm35.4 76.3c-2.3-3.8-1-8.7 2.7-11 3.8-2.3 8.7-1 11 2.7l33.7 62.3c2.5 4.7 3.9 9.9 3.9 15.2v122c0 5-3 8-8 8s-8-3-8-8V262c0-2.7-.7-5.3-1.9-7.6l-33.4-61.6zm44.9 239c-5.6 1.1-10.5-3.8-9.4-9.4.6-3.1 3.1-5.7 6.3-6.3 5.6-1.1 10.5 3.8 9.4 9.4-.6 3.2-3.2 5.7-6.3 6.3zm0-336c-5.6 1.1-10.5-3.8-9.4-9.4.6-3.1 3.1-5.7 6.3-6.3 5.6-1.1 10.5 3.8 9.4 9.4-.6 3.2-3.2 5.7-6.3 6.3zm87.7 311.7c-4.3 3.7-11 1.9-12.8-3.5-1-3-.1-6.5 2.3-8.5 4.3-3.7 11-1.9 12.8 3.5 1 3 .1 6.4-2.3 8.5zm2.3-294.5c-1.9 5.4-8.5 7.2-12.8 3.5-2.4-2.1-3.3-5.5-2.3-8.5 1.9-5.4 8.5-7.2 12.8-3.5 2.4 2.1 3.3 5.5 2.3 8.5zm61.5 229.5c-1.9 5.4-8.5 7.2-12.8 3.5-2.4-2.1-3.3-5.5-2.3-8.5 1.9-5.4 8.5-7.2 12.8-3.5 2.4 2.1 3.3 5.5 2.3 8.5zM406.8 178c-4.3 3.7-11 1.9-12.8-3.5-1-3-.1-6.5 2.3-8.5 4.3-3.7 11-1.9 12.8 3.5 1 3 .1 6.4-2.3 8.5zm18.8 85.8c-5.6 1.1-10.5-3.8-9.4-9.4.6-3.1 3.1-5.7 6.3-6.3 5.6-1.1 10.5 3.8 9.4 9.4-.6 3.2-3.2 5.7-6.3 6.3z"/></svg>