<svg xmlns="http://www.w3.org/2000/svg" viewBox="0 0 512 512"><path d="M395 96H230c-46.7 0-73.2 34.7-102 63.5s-72.1 74.7-72.1 74.7C51 239.8 48 247 48 255.1c0 8 3 15.3 7.9 21 0 0 34.3 37.6 72.1 75.5 37.8 37.8 56.7 64.5 102 64.5h165c38.5 0 69-32.5 69-71V165c0-38.5-30.5-69-69-69zm-17.7 212.7c6.2 6.2 6.2 16.4 0 22.6-6.2 6.2-16.4 6.2-22.6 0L302 278.6l-52.7 52.7c-6.2 6.2-16.3 6.4-22.6 0-6.4-6.4-6.7-15.9 0-22.6l52.7-52.7-52.7-52.7c-6-6-7.1-15.6 0-22.6 7.1-7.1 16.4-6.2 22.6 0l52.7 52.7 52.7-52.7c6.2-6.2 16.4-6.2 22.6 0 6.2 6.2 6.2 16.4 0 22.6L324.6 256l52.7 52.7z"/></svg>