<svg xmlns="http://www.w3.org/2000/svg" viewBox="0 0 512 512"><path d="M466 355.9H46c-7.7 0-14 6.3-14 14s6.3 14 14 14h420c7.7 0 14-6.3 14-14s-6.3-14-14-14zM466 403.9H46c-7.7 0-14 6.3-14 14s6.3 14 14 14h420c7.7 0 14-6.3 14-14s-6.3-14-14-14zM444.9 80.1H67.1C47.8 80.1 32 95.9 32 115.2V293c0 19.3 15.8 35.1 35.1 35.1h377.8c19.3 0 35.1-15.8 35.1-35.1V115.2c0-19.3-15.8-35.1-35.1-35.1zM114 296.1H78c-7.7 0-14-6.3-14-14s6.3-14 14-14h36c7.7 0 14 6.3 14 14s-6.3 14-14 14zm0-156H78c-7.7 0-14-6.3-14-14s6.3-14 14-14h36c7.7 0 14 6.3 14 14s-6.3 14-14 14zm142 144c-44.1 0-80-35.9-80-80s35.9-80 80-80 80 35.9 80 80-35.9 80-80 80zm178 12h-36c-7.7 0-14-6.3-14-14s6.3-14 14-14h36c7.7 0 14 6.3 14 14s-6.3 14-14 14zm0-156h-36c-7.7 0-14-6.3-14-14s6.3-14 14-14h36c7.7 0 14 6.3 14 14s-6.3 14-14 14z"/><circle cx="256" cy="206" r="53"/></svg>