<svg xmlns="http://www.w3.org/2000/svg" viewBox="0 0 512 512"><path d="M405.9 288.1c-2.6-2.6-6.2-4.1-9.9-4.1s-7.2 1.4-9.9 4.1c-2.7 2.6-4.1 6.2-4.1 9.9s1.5 7.2 4.1 9.9l16.3 16.2h-75.5l-124-155-.1-.1c-2.6-3.1-6.7-5-10.8-5H78c-7.7 0-14 6.3-14 14s6.3 14 14 14h107.4l52.5 66-52.5 66H78c-7.7 0-14 6.3-14 14s6.3 14 14 14h114c4.1 0 8-1.8 10.7-5l.1-.1 53.2-66.8 53.2 66.8.1.1c2.7 3.2 6.6 5 10.7 5h84.4l-16.3 16.2c-2.7 2.6-4.1 6.1-4.1 9.9 0 3.7 1.5 7.2 4.1 9.9 2.6 2.6 6.2 4.1 9.9 4.1s7.2-1.4 9.9-4.1l33.6-33.4c4.2-4.1 6.5-9.6 6.5-15.5s-2.3-11.4-6.5-15.5l-35.6-35.5z"/><path d="M279.4 235.4c1.1 1.4 2.8 2.1 4.6 2.1h.1c1.8 0 3.5-.8 4.6-2.2l37.9-47.3h75.8l-16.3 16.2c-2.7 2.6-4.1 6.1-4.1 9.9 0 3.7 1.5 7.2 4.1 9.9 2.6 2.6 6.2 4.1 9.9 4.1s7.2-1.4 9.9-4.1l35.6-35.4c4.2-4.1 6.5-9.7 6.5-15.5 0-5.9-2.3-11.4-6.5-15.5l-33.6-33.4c-2.6-2.6-6.2-4.1-9.9-4.1s-7.2 1.4-9.9 4.1c-2.7 2.6-4.1 6.2-4.1 9.9s1.5 7.2 4.1 9.9l16.3 16.2H320c-4.1 0-8 1.8-10.7 5l-.1.1-40.3 50.2c-1.8 2.2-1.8 5.4.1 7.6l10.4 12.3z"/></svg>