<svg xmlns="http://www.w3.org/2000/svg" viewBox="0 0 512 512"><path d="M359 78H153c-2.8 0-5.6.8-8 2.3C86.7 116.9 48 182 48 256c0 73.9 38.7 138.1 97 175.6 2.4 1.6 5.2 2.4 8.1 2.4h205.8c2.9 0 5.7-.8 8.1-2.4 58.3-37.5 97-101.7 97-175.6 0-74-38.7-139.1-97-175.7-2.4-1.5-5.2-2.3-8-2.3zM192.9 270.8h-22.3c-2.1 0-3.7-1.7-3.7-3.7V155.9c0-2 1.7-3.7 3.7-3.7h22.3c2.1 0 3.7 1.7 3.7 3.7v111.2c0 2.1-1.7 3.7-3.7 3.7zM282 389.5h-52c-2.1 0-3.7-1.7-3.7-3.7v-40.2c0-16.5 13.6-30.5 30.1-30.3 16.2.2 29.3 13.5 29.3 29.7v40.8c0 2-1.6 3.7-3.7 3.7zM341.4 256h-22.3c-2.1 0-3.7-1.7-3.7-3.7v-81.6c0-2 1.7-3.7 3.7-3.7h22.3c2.1 0 3.7 1.7 3.7 3.7v81.6c0 2-1.6 3.7-3.7 3.7z"/></svg>