<svg xmlns="http://www.w3.org/2000/svg" viewBox="0 0 512 512"><path d="M374.6 127.3C345.4 88.5 303.1 64 256 64c-47.1 0-89.4 24.5-118.6 63.3 6.4 15.6 15.8 30 28.1 42.3 24.2 24.2 56.3 37.5 90.5 37.5s66.3-13.3 90.5-37.5c12.3-12.3 21.8-26.6 28.1-42.3z"/><path d="M122 150s-3.8-1.6-5.9-3.3c-2.1-1.7-5-4.9-6.5-8.4 5.4-11.3 1.2-25-9.9-31.3-11.8-6.6-26.9-2.2-33.1 10-4.5 8.9-2.9 19.8 3.8 27.1 1.8 1.9 3.7 3.4 5.7 4.6 2.8 1.6 4.9 4 6.4 6.8 2.7 5.2 6.4 10.7 11.1 14.6 4.2 3.5 8.8 7.1 15.2 10.7-7.2 20.3-11.6 42.3-12.5 65.4-11 .2-18.6 2.1-25.5 4.1-4.2 1.2-8.2 3.4-11.8 5.9-1-.1-1.9-.2-2.9-.2-13.8 0-24.8 11.6-24 25.6.7 11.8 10.3 21.5 22.2 22.4 11 .8 20.6-5.9 24.3-15.5 2-5.3 6.7-9.2 12.4-9.9 1.9-.2 3.9-.4 6.2-.4 3.2 33 13.3 63.5 28.6 89.2-14.2 11-22.9 23-26.6 36.3 0 0-.8.4-1.9 1.4-1 .8-1.9 1.6-2.8 2.6-8.9 9.9-8.1 25 1.8 33.9 9.9 8.9 25 8.1 33.9-1.8 6.2-6.9 7.6-16.3 4.6-24.5-2.2-6-.7-12.7 3.9-17 1.6-1.5 3.5-3.1 5.7-4.9 27.1 31.7 59.4 52 99.7 54.4V232.9C190.8 230 144.4 195.3 122 150zM456 256.1c-1 0-2 .1-2.9.2-3.6-2.5-7.7-4.6-11.8-5.9-6.9-2-14.4-3.9-25.5-4.1-1-23.1-5.4-45.2-12.5-65.4 6.4-3.6 11-7.2 15.2-10.7 4.9-4.1 8.7-10 11.5-15.3 1.3-2.5 3.3-4.5 5.8-5.9 0 0 .1 0 .1-.1 11.6-6.5 15.7-21.1 9.2-32.7-6.5-11.6-21.1-15.7-32.7-9.2-11.1 6.2-15.3 19.9-9.9 31.3-1.6 3.4-3.4 5.7-6.5 8.4-2.3 2-5.9 4.3-5.9 4.3-22.4 45.3-68.8 79-122 81.9V448c40.3-2.4 72.6-22.8 99.7-54.4 2.1 1.7 3.9 3.2 5.4 4.6 4.8 4.4 6.4 11.3 4.2 17.5-3 8.1-1.5 17.5 4.7 24.3 8.9 9.9 24 10.7 33.9 1.8 9.9-8.9 10.7-24 1.8-33.9-.9-1-1.8-1.8-2.8-2.6-1.1-.9-1.9-1.4-1.9-1.4-3.7-13.3-12.4-25.3-26.6-36.3 15.3-25.7 25.4-56.2 28.6-89.2 2.1 0 4.1.2 5.9.4 5.9.7 10.7 4.7 12.9 10.2 3.7 9.4 13.2 15.9 24.1 15.1 11.8-.9 21.4-10.5 22.2-22.4.6-14-10.4-25.6-24.2-25.6z"/></svg>