<svg xmlns="http://www.w3.org/2000/svg" viewBox="0 0 512 512"><path d="M462.2 261.9L289.6 89.3C263 62.7 227.4 48 189.5 48c-38 0-73.5 14.7-100.2 41.3C62.7 116 48 151.5 48 189.5S62.7 263 89.3 289.6l172.6 172.6c1.1 1.1 2.7 1.8 4.3 1.8 1.6 0 3.1-.6 4.3-1.8l57.5-57.5c2.4-2.4 2.4-6.2 0-8.5L165.2 233.3c-13-13-21.2-27.8-22.9-41.7-1.8-13.6 2.7-25.8 13.1-36.3 9.9-9.9 22.4-14.3 36-12.6 14.3 1.7 29.2 9.7 42 22.5L396.2 328c2.4 2.4 6.2 2.4 8.5 0l57.5-57.5c2.4-2.4 2.4-6.2 0-8.6zM275.8 380.2l20.2 20.2-29.8 29.8-20.3-20.2 29.9-29.8zM400.4 296l-20.2-20.2L410 246l20.2 20.2-29.8 29.8z"/></svg>