<svg xmlns="http://www.w3.org/2000/svg" viewBox="0 0 512 512"><path d="M407.1 137.9c-34.9-41.6-81.3-67.3-131.2-72.6-2-9.9-10.2-17.3-19.9-17.3s-17.9 7.3-19.9 17.2c-50.6 5.2-97.4 30.3-132.1 71.2-35.8 42.2-55.6 85.5-55.8 143.7-.1.5-.2 1.2-.2 2.1.1 3.2 2.7 5.8 5.8 5.8h3.1c2.6 0 4.9-1.8 5.6-4.4 2.7-10.1 8.4-19.1 16-25.5 7.7-6.5 16.9-9.9 26.6-9.9 9.6 0 18.8 3.4 26.5 10 7.6 6.4 13.2 15.4 16 25.5.7 2.6 3 4.4 5.6 4.4h4.8c2.6 0 4.9-1.8 5.6-4.4 5.7-20.9 23.3-35.4 42.8-35.4 14.8 0 28.8 8.4 36.9 21.9V418c0 9.9-8 18-17.7 18s-17.6-8.1-17.6-18c0-7.7-6.1-14-13.7-14-7.5 0-13.6 6.3-13.6 14 0 25.4 20.2 46 44.9 46 24.8 0 44.9-20.6 44.9-46V270.8c8.2-14.2 21.9-22.6 36.9-22.6 9.6 0 18.7 3.4 26.4 9.9 7.5 6.4 13.1 15.4 15.9 25.5.7 2.6 3 4.4 5.6 4.4h4.8c2.6 0 4.9-1.8 5.6-4.4 2.7-10.1 8.4-19.2 16-25.6 7.7-6.5 16.9-10 26.6-10 9.7 0 19 3.4 26.7 10 7.6 6.4 13.2 15.5 15.9 25.6.7 2.6 3 4.4 5.6 4.4h1.5c1.6 0 3.1-.6 4.2-1.8s1.7-2.7 1.7-4.3c-.8-57.9-21-101.3-56.8-144z"/></svg>