<svg xmlns="http://www.w3.org/2000/svg" viewBox="0 0 512 512"><path d="M441.1 131.1l-44.9 45.1c-.9.9-2.3 1.3-3.5 1.1l-46.4-8.4c-1.6-.3-2.9-1.6-3.2-3.2l-8.3-46.4c-.2-1.3.2-2.6 1.1-3.5l44.8-45c3.5-3.5 3-9.3-1-12.1-10.1-7.2-22.1-10.7-31.8-10.7-.7 0-1.4 0-2 .1-12.5.7-39.3 7.7-60 29.7-20.1 21.2-41.1 60.6-22.5 104.5 2.2 5.3 4.7 12.3-2.7 19.7C253.1 209.4 61 390.3 61 390.3c-18 15.5-16.7 44.2-.1 60.9 8.5 8.4 20 12.8 31.3 12.8 11.1 0 21.9-4.2 29.6-13.1 0 0 179.4-191.1 188.2-199.8 4-3.9 7.7-5.1 11.1-5.1 3.3 0 6.3 1.2 8.6 2.4 9.9 5.1 21 7.4 32.4 7.4 26.8 0 55-12.4 72.2-29.6 24.4-24.4 28.9-48 29.6-60.1.6-9.9-2.2-22.6-10.7-34.2-2.9-3.8-8.6-4.2-12.1-.8zM102.5 429.3c-5.5 5.4-14.4 5.4-19.9 0-5.4-5.5-5.4-14.4 0-19.9 5.5-5.4 14.4-5.4 19.9 0 5.4 5.6 5.4 14.5 0 19.9z"/></svg>