<svg xmlns="http://www.w3.org/2000/svg" viewBox="0 0 512 512"><path d="M96.9 270.3V363c0 2.9 1.5 5.5 4 7l132 75.9c5.3 3.1 12-.8 12-7v-93.8c0-2.9-1.5-5.5-4-7l-132-74.9c-5.4-2.9-12 1-12 7.1zM280.9 445.9L413 370c2.5-1.4 4-4.1 4-7v-93.7c0-6.2-6.6-10-12-7l-132 75.9c-2.5 1.4-4 4.1-4 7V439c-.1 6.1 6.6 10 11.9 6.9z"/><path d="M249 65.1L37 188.9c-5.4 3.1-5.4 10.8 0 13.9l212 117.8c4.9 2.8 11 2.8 15.9 0L453 212.9c5.3-3.1 7 .8 7 7v153.4c0 6.8 3.9 10 11 10 4.4 0 10-3.2 10-10V201.5c0-2.9-1.5-5.5-4-7L264.9 65.1c-4.9-2.8-11-2.8-15.9 0z"/></svg>