<svg xmlns="http://www.w3.org/2000/svg" viewBox="0 0 512 512"><path d="M256 48C141.1 48 48 141.1 48 256s93.1 208 208 208 208-93.1 208-208S370.9 48 256 48zm143.3 263.9c-8.1-2.6-23.7-3.4-29.5-10.4-2.9-3.5-1-16.6-1-16.6 25.2-1.4 31-6.1 31-6.1 3.9-2.3 2.1-2.7.1-6.1-10.9-18.3-6-41.5-6.5-61.6-.4-16.7-4.8-35-20-44.4-7.6-4.7-19.7-6.9-31.4-6.9-9.5 0-18.7 1.4-25.3 4.1-42.4 17-17.4 73.2-31.9 105.4-2.5 5.4-6.1 7.3.2 10.5 0 0 7.5 4.4 28.9 6.3 0 0 .3 12.6 0 13.9-1.1 4.9-11.8 8.3-15.8 9.4-2.7.7-8.7 2.5-16.4 5.7-3.7 1.5-3.1 6.9.8 7.6 3.9.7 8.1 1.7 11.5 2.9 0 0 26.4 6 46 25 13.2 12.7 18.1 27.6 20 44.6.5 4.5-1.7 8.9-5.5 11.5l-5.7 3.6c-1.9 1.1-4.2-.2-4.3-2.4 0-29.5-17.8-55.5-45.8-65.2-13.5-4.7-28.1-5-41.6-9.7-4.1-1.4-12.2-3.1-13.9-7.8-1.6-4.6-1.6-10-1.9-14.8-.2-3.8-.3-7.6-.3-11.4 0-2.5 6.4-7.8 7.8-10.1 5.4-9 5.9-21.1 6.9-31.3 8.7 2.4 9.8-13.7 11.3-18.6 1.1-3.4 5-20.9-2.6-23.6 2.5-4.4 3.5-9.8 4.2-14.7 2-12.8 2.8-26.8-1.1-39.3-8.1-26-33-40.6-59.3-41.4-26.7-.9-53.5 11.9-63.5 37.8-4.8 12.6-4.4 26.3-2.8 39.5.7 6 1.7 12.7 4.7 18.1-6.4 2.8-4.5 17.7-3.4 21.3 1.6 5.1 3 23.4 12.1 20.9.8 8.1 1.7 16.4 3.9 24.3 1.5 5.3 4.6 9.8 8.2 13.9 1.8 2 2.7 2.2 2.6 4.8-.1 7.8.1 16.2-1.9 23.8s-18.7 10.8-25.4 12.2c-14.8 3-28.6 4.7-41.4 11.5C84.8 320.6 76 289 76 256c0-47.9 19.2-94 53.2-127.7C162.7 95 207.1 76.4 254.3 76c47.6-.4 93.7 18.1 127.8 51.5 34.8 34.1 54 79.9 54 128.5 0 24.9-5 48.9-14.5 71.1-5.6-7-13.4-12.3-22.3-15.2z"/></svg>