<svg xmlns="http://www.w3.org/2000/svg" viewBox="0 0 512 512"><path d="M184.3 204.8h-77.7c-7.7 0-13.9 6.2-13.9 13.9v.2c0 7.7 6.2 13.9 13.9 13.9h112.2c7.7 0 13.9-6.2 13.9-13.9V106.6c0-7.7-6.2-13.9-13.9-13.9h-.2c-7.7 0-13.9 6.2-13.9 13.9v77.7L87.7 68c-2.6-2.6-6.1-4-9.8-4-3.7 0-7.2 1.4-9.8 4.1-5.4 5.4-5.4 14.2 0 19.6l116.2 117.1zM293.1 232.8h112.2c7.7 0 13.9-6.2 13.9-13.9v-.2c0-7.7-6.2-13.9-13.9-13.9h-77.7L444 87.7c5.4-5.4 5.4-14.2 0-19.6-2.6-2.6-6.1-4.1-9.8-4.1-3.7 0-7.2 1.4-9.8 4L307.3 184.3v-77.7c0-7.7-6.2-13.9-13.9-13.9h-.2c-7.7 0-13.9 6.2-13.9 13.9v112.2c0 7.7 6.2 14 13.8 14zM77.9 448c3.7 0 7.2-1.4 9.8-4l117.1-116.3v77.7c0 7.7 6.2 13.9 13.9 13.9h.2c7.7 0 13.9-6.2 13.9-13.9V293.1c0-7.7-6.2-13.9-13.9-13.9H106.6c-7.7 0-13.9 6.2-13.9 13.9v.2c0 7.7 6.2 13.9 13.9 13.9h77.7L68 424.3c-5.4 5.4-5.4 14.2 0 19.6 2.7 2.7 6.2 4.1 9.9 4.1zM293.1 419.2h.2c7.7 0 13.9-6.2 13.9-13.9v-77.7L424.3 444c2.6 2.6 6.1 4 9.8 4 3.7 0 7.2-1.4 9.8-4.1 5.4-5.4 5.4-14.2 0-19.6L327.7 307.2h77.7c7.7 0 13.9-6.2 13.9-13.9v-.2c0-7.7-6.2-13.9-13.9-13.9H293.1c-7.7 0-13.9 6.2-13.9 13.9v112.2c.1 7.7 6.3 13.9 13.9 13.9z"/></svg>