<svg xmlns="http://www.w3.org/2000/svg" viewBox="0 0 512 512"><path d="M278.9 145.6c-2.2-1.1-4.6-1.6-6.9-1.6-3.6 0-7.1 1.2-10 3.5L196.8 200H144c-8.8 0-16 7.2-16 16v80c0 8.8 7.2 16 16 16h52.8l65.2 52.5c2.9 2.3 6.5 3.5 10 3.5 2.3 0 4.7-.5 6.9-1.6 5.6-2.7 9.1-8.3 9.1-14.4V160c0-6.2-3.5-11.8-9.1-14.4zM354.4 182.6c-4.6-4.7-12.1-4.8-16.8-.1-4.7 4.7-4.7 12.3-.1 17 14.7 15 22.8 35.1 22.8 56.6 0 21.4-8.1 41.5-22.8 56.6-4.6 4.7-4.6 12.3.1 17 2.3 2.3 5.3 3.5 8.3 3.5 3.1 0 6.1-1.2 8.5-3.6C373.5 310 384 284 384 256.2h-.2c0-28-10.3-54.1-29.4-73.6z"/></svg>