<svg xmlns="http://www.w3.org/2000/svg" viewBox="0 0 512 512"><path d="M241.239 303.936c-15.322-10.357-30.742-20.569-46.062-30.93-2.03-1.373-3.43-1.472-5.502-.029l-38.871 26.154C181.966 319.905 244 361.317 244 361.317v-53.786c-.012-1.224-1.553-2.78-2.761-3.595zM195.092 240.666c15.454-10.16 30.851-20.409 46.109-30.86 1.486-1.018 2.775-3.509 2.799-5.334v-51.706s-62.033 41.124-93.262 61.942c13.7 9.159 26.671 17.913 39.787 26.443 1.02.662 3.396.284 4.567-.485zM269.838 209.354a4521.517 4521.517 0 0 0 47.627 31.815c.916.604 2.92.602 3.839 0l39.751-26.467L268 152.484v53.35c.01 1.201.805 2.821 1.838 3.52zM258.109 230.369c-1.21-.802-3.611-.528-4.743.168-4.817 2.962-9.463 6.203-14.164 9.355-8.248 5.53-25.356 17.023-25.356 17.023l38.842 25.865c1.748 1.157 4.436 1.22 6.26.111l39.014-25.993c.001 0-34.079-22.701-39.853-26.529zM141 237.116v39.609l29.622-19.838z"/><path d="M256 32C132.288 32 32 132.288 32 256s100.288 224 224 224 224-100.288 224-224S379.712 32 256 32zm139 265.006c0 5.785-2.652 9.868-7.511 13.094a38019.909 38019.909 0 0 0-123.286 82.188c-5.854 3.918-11.174 3.754-16.984-.137-40.783-27.314-81.719-54.546-122.625-81.676-5.11-3.389-7.594-7.557-7.594-13.73v-79.729c0-6.141 2.521-10.332 7.624-13.716 40.906-27.13 81.939-54.363 122.724-81.676 5.818-3.896 11.094-4.007 16.938-.095a41090.004 41090.004 0 0 0 123.261 82.195c4.678 3.106 7.453 6.943 7.453 12.66v80.622z"/><path d="M316.247 273.234a3826.352 3826.352 0 0 1-45.386 30.332c-2.412 1.588-2.888 3.318-2.861 6.189v51.346l93.039-62.004-38.527-25.882c-2.345-1.604-3.93-1.567-6.265.019zM370 276.676V237.06l-29.59 19.873z"/></svg>