<svg xmlns="http://www.w3.org/2000/svg" viewBox="0 0 512 512"><path d="M208 88.001h-80v212.498c0 52.58-18.032 67.261-49.412 67.261-14.705 0-27.948-2.521-38.25-6.063L32 423.904C46.7 428.966 69.259 432 86.907 432 158.955 432 208 398.129 208 301.02V88.001zM382.463 80C305.02 80 256 123.998 256 182.154c0 50.083 37.751 81.44 92.641 101.665 39.7 14.158 55.392 26.808 55.392 47.539 0 22.756-18.139 37.425-52.448 37.425-31.863 0-60.789-10.64-80.394-21.255v-.021L256 410.727c18.639 10.638 53.441 21.255 91.167 21.255C437.854 431.98 480 383.43 480 326.284c0-48.55-26.958-79.9-85.278-102.163-43.139-17.191-61.27-26.795-61.27-48.542 0-17.2 15.688-32.869 48.043-32.869 31.846 0 53.744 10.707 66.505 17.291l19.125-64C447.125 87.22 420.188 80 382.463 80z"/></svg>