<svg xmlns="http://www.w3.org/2000/svg" viewBox="0 0 512 512"><path d="M188.8 255.925c0 36.946 30.243 67.178 67.2 67.178s67.199-30.231 67.199-67.178c0-36.945-30.242-67.179-67.199-67.179s-67.2 30.234-67.2 67.179z"/><path d="M476.752 217.795c-.009.005-.016.038-.024.042-1.701-9.877-4.04-19.838-6.989-28.838h-.107c2.983 9 5.352 19 7.072 29h-.002c-1.719-10-4.088-20-7.07-29h-155.39c19.044 17 31.358 40.175 31.358 67.052 0 16.796-4.484 31.284-12.314 44.724L231.044 478.452s-.009.264-.014.264l-.01.284h.015l-.005-.262c8.203.92 16.531 1.262 24.97 1.262 6.842 0 13.609-.393 20.299-1.002a223.86 223.86 0 0 0 29.777-4.733C405.68 451.525 480 362.404 480 255.941c0-12.999-1.121-25.753-3.248-38.146z"/><path d="M256 345.496c-33.601 0-61.601-17.91-77.285-44.785L76.006 123.047l-.137-.236a223.516 223.516 0 0 0-25.903 45.123C38.407 194.945 32 224.686 32 255.925c0 62.695 25.784 119.36 67.316 160.009 29.342 28.719 66.545 49.433 108.088 58.619l.029-.051 77.683-134.604c-8.959 3.358-19.031 5.598-29.116 5.598z"/><path d="M91.292 104.575l77.35 133.25C176.483 197.513 212.315 166 256 166h205.172c-6.921-15-15.594-30.324-25.779-43.938.039.021.078.053.117.074C445.644 135.712 454.278 151 461.172 166h.172c-6.884-15-15.514-30.38-25.668-43.99-.115-.06-.229-.168-.342-.257C394.475 67.267 329.359 32 256 32c-26.372 0-51.673 4.569-75.172 12.936-34.615 12.327-65.303 32.917-89.687 59.406l.142.243.009-.01z"/></svg>