<svg xmlns="http://www.w3.org/2000/svg" viewBox="0 0 512 512"><path d="M256 161.2c-52.3 0-94.8 42.5-94.8 94.8s42.5 94.8 94.8 94.8 94.8-42.5 94.8-94.8-42.5-94.8-94.8-94.8z"/><circle cx="392.1" cy="126.4" r="43.2"/><path d="M445.3 169.8l-1.8-4-2.9 3.3c-7.1 8-16.1 14.2-26.1 17.9l-2.8 1 1.1 2.7c8.6 20.7 13 42.7 13 65.2 0 93.7-76.2 169.9-169.9 169.9S86.1 349.7 86.1 256 162.3 86.1 256 86.1c25.4 0 49.9 5.5 72.8 16.4l2.7 1.3 1.2-2.7c4.2-9.8 10.8-18.5 19.2-25.2l3.4-2.7-3.9-2C321.6 55.8 289.5 48 256 48 141.3 48 48 141.3 48 256s93.3 208 208 208 208-93.3 208-208c0-30-6.3-59-18.7-86.2z"/></svg>