<svg xmlns="http://www.w3.org/2000/svg" viewBox="0 0 512 512"><path d="M369.3 146H142.7C81.5 146 32 191.5 32 255.4c0 64 49.5 110.6 110.7 110.6h226.5c61.2 0 110.7-46.6 110.7-110.6.1-63.9-49.4-109.4-110.6-109.4zM200 266.7c0 2.7-2.4 5.3-5.2 5.3H160v35.1c0 2.8-3.1 4.9-5.8 4.9h-21.4c-2.6 0-4.8-1.9-4.8-4.5V272H92.9c-2.8 0-4.9-3.1-4.9-5.8v-21.4c0-2.6 1.9-4.8 4.5-4.8H128v-34.8c0-2.8 1.9-5.2 4.6-5.2h22.1c2.7 0 5.3 2.4 5.3 5.2V240h34.8c2.8 0 5.2 1.9 5.2 4.6v22.1zm119.8 8.8c-10.7 0-19.5-8.6-19.5-19.2s8.7-19.2 19.5-19.2 19.5 8.6 19.5 19.2-8.8 19.2-19.5 19.2zm42.5 41.8c-10.7 0-19.5-8.5-19.5-19.1 0-10.6 8.7-19.2 19.5-19.2s19.5 8.5 19.5 19.2c0 10.6-8.7 19.1-19.5 19.1zm0-83.7c-10.7 0-19.5-8.6-19.5-19.1 0-10.6 8.7-19.2 19.5-19.2s19.5 8.6 19.5 19.2c0 10.5-8.7 19.1-19.5 19.1zm42.6 41.9c-10.7 0-19.4-8.6-19.4-19.2s8.7-19.2 19.4-19.2 19.5 8.6 19.5 19.2c-.1 10.6-8.8 19.2-19.5 19.2z"/></svg>