<svg xmlns="http://www.w3.org/2000/svg" viewBox="0 0 512 512"><path d="M511.784 329.108c-1.67-13.599-9.236-24.146-20.795-32.416 2.857 2.04 5.275 3.766-.055-.041-7.189-5.131-3.38-2.411-.047-.032-28.5-20.301-65.676-15.789-96.733-4.511-12.447-20.295-12.987-35.783-5.816-57.937.929-2.8.295-4.354-2.624-5.604-7.086-3.03-17.291-1.427-24.422.463-2.462.646-4.254 1.9-4.8 4.381-5.154 24.243-21.009 46.448-34.828 66.886-9.731-18.652-8.96-33.087-2.414-52.516.798-2.366.431-3.624-1.937-4.879-7.26-3.757-18.401-1.912-25.8.276-8.509 2.482-21.29 44.594-25.372 52.946-8.531 17.442-16.091 44.665-30.585 58.502-12.3-15.807 22.526-51.517 10.882-65.851-3.938-4.848-11.063-4.723-15.586-.616 1.085-7.608 1.648-12.609-.32-19.063-2.081-6.79-7.361-10.687-15.09-10.49-17.995.527-33.843 13.815-44.641 26.397-10.277 12.105-37.381 19.627-51.953 26.927-25.032-21.807-79.221-44.947-80.632-82.081-1.528-41.846 48.319-70.245 81.597-87.228 43.28-22.104 109.961-49.608 159.138-25.436 13.049 6.414 18.299 20.171 14.707 33.348-9.368 34.366-47.198 57.293-80.103 67.807-16.189 5.175-33.969 9.027-51.1 8.026-22.955-1.343-40.83-15.224-43.281-16.086-2.049-.389-1.888 2.261-1.347 3.664 23.816 62.433 144.417 16.681 175.956-15.371 15.189-15.421 24.413-30.365 28.351-53.894 4.616-27.583-15.634-44.842-31.004-51.957-77.918-36.072-185.636 11.168-244.553 59.327-25.568 20.901-57.552 54.11-42.874 88.946 15.93 37.805 64.736 57.19 96.503 80.312-25.704 12.773-57.862 25.983-74.518 49.933-9.524 13.729-12.903 28.359-5.811 43.966 12.572 27.568 58.285 15.622 77.573 3.471 17.67-11.13 29.563-26.07 34.7-45.228 4.455-16.609 3.541-33.866-3.856-49.512l28.585-14.458c-7.697 23.076-11.097 52.003 4.881 72.855 6.402 8.338 23.017 8.675 29.817.311 8.816-10.943 14.664-24.655 20.503-37.206-.682 9.373-1.856 19.996 1.377 28.165 3.71 9.373 12.126 11.291 20.792 5.343 26.52-18.203 43.398-68.652 56.463-98.062 3.552 12.829 7.473 24.548 13.957 36.376 1.602 2.903 1.407 4.774-.796 7.195-9.685 10.675-32.826 28.479-35.069 42.899-.524 3.371 1.713 6.599 5.686 7.37 15.573 3.108 32.838-2.531 45.482-11.078 13.188-8.922 17.446-21.087 14.245-35.515-4.576-20.771 10.993-43.98 25.801-61.03 2.719 12.908 6.816 25.331 14.143 36.606-13.075 11.483-32.58 27.764-29.779 46.939.988 6.865 7.135 11.301 14.514 9.736 15.783-3.324 29.416-10.113 39.37-22.146 9.023-10.855 5.792-22.701 1.856-34.635 23.872-6.815 48.022-8.177 71.831-.027 11.495 3.91 20.755 10.5 26.248 20.818 6.726 12.644 2.939 24.292-10.05 32.604-3.287 2.104-5.562 3.833-4.45 4.743 1.112.911 4.9 2.113 13.284-3.152 8.384-5.267 13.51-12.383 14.823-21.725a37.09 37.09 0 0 0-.024-7.755zm-398.838 25.259c-1.358 16.673-9.636 30.193-23.175 41.114-7.617 6.158-17.102 11.176-26.52 12.092-9.418.917-16.751-1.461-17.378-11.23-1.764-27.493 40.923-54.424 64.625-62.533 2.02 6.86 3.011 13.666 2.432 20.587l.016-.03zm103.102-72.453c-3.903 22.309-14.83 62.347-32.314 78.336-2.356 2.143-4.61 2.018-5.809-.771-10.345-24.059 3.671-73.669 33.082-81.328 3.457-.889 5.602.582 5.041 3.763zm70.311 81.768c8.422-8.962 16.834-17.916 25.269-26.927 1.043 10.021-17.571 29.964-25.269 26.927zm80.714-17.696c-2.348 1.273-7.621 2.515-7.827.835-1.482-12.085 11.816-24.874 20.067-30.867 4.453 11.343-.818 23.834-12.24 30.032z"/></svg>