<svg xmlns="http://www.w3.org/2000/svg" viewBox="0 0 512 512"><path d="M443.6 208.4c-3.1-1.9-2.2-6.6 1.3-7.3l5.3-1.1c7.1 0 22.4-2.3 25.6-5.4 3.1-3.2 4.2-5.4 4.2-8.2s-1.7-7.7-4.8-11.1c-3-3.4-16-5.2-23.7-6.2s-8.7 0-10.7 1.2c-2 1.3-2.8 9.5-3.1 15-.1 1.2-.9 2.2-2.1 2.5l-.4.1c-3.3.7-6.6-1.1-7.8-4.3-4.6-13-10.7-32.5-19.4-48.4-11.5-20.8-23.5-27.4-28.5-29-4.9-1.5-9.4-2.6-43-6.1-33.8-3.6-63.1-4.1-80.5-4.1s-46.7.5-80.6 4.1c-33.6 3.4-38.1 4.5-43 6.1-5 1.6-17 8.2-28.5 29-9.4 17.1-15.7 38.3-20.4 51.3-.6 1.5-2.2 2.4-3.8 2.1-3.1-.7-5.4-3.3-5.6-6.5-.4-5-1.2-10.7-2.9-11.7-2-1.3-3-2.2-10.7-1.2s-20.6 2.8-23.7 6.2c-3 3.4-4.7 8.3-4.7 11.1s1.1 5.1 4.2 8.3c3.1 3.2 18.5 5.4 25.6 5.4l5.3 1.1c3.5.7 4.4 5.4 1.3 7.3-9.1 5.7-23.2 15.3-32.3 25.6 0 0-4.1 28.7-4.1 62.1 0 48 5.8 92.4 5.8 92.4 1.8.3 3.6.6 5.3.9 0 1.2.7 13.1 2 21.2.3 2 1.3 5.5 6.2 5.5h64.7c1.9 0 5.1-1.6 5.1-3.7l1-17c7.2.1 3.2.1 10.9 0 24.8-.3 15.6-7.5 27.1-7.3 11.3.2 55 3 96 3s84.7-2.8 96-3c11.5-.2 2.3 7.1 27.1 7.3 7.7.1 4.7.1 11.9 0l1 17c0 2.1 3.2 3.7 5.1 3.7h63.5c4.9 0 5.9-3.5 6.2-5.5 1.3-8.1 1.9-19.9 2-21.2l5.4-.9s5.8-44.3 5.8-92.4c0-33.5-4.1-62.1-4.1-62.1-9.3-10.5-23.4-20.1-32.5-25.8zm-320.2-53.6c2.2-5.1 5.9-11.6 10-17.2 5-6.7 12.4-11.2 20.6-12.5 16.7-2.7 52.6-7.3 101.9-7.3 49.3 0 85.2 4.6 101.9 7.3 8.2 1.3 15.6 5.8 20.6 12.5 4.2 5.6 7.9 12.1 10.1 17.2 3.9 9.2 10.4 30.7 9.4 33.2-1 2.5 1 3.7-12.2 2.6-13.1-1-90.6-2.1-129.7-2.1-39.2 0-116.7 1.1-129.7 2.1-13.2 1.1-11.3-.2-12.2-2.6s5.4-24 9.3-33.2zm8.4 116c-9.9 0-29.8-1-34.5-1.2-4.7-.1-8.8 3.8-11.2 3.8s-25.5-3.6-28-14.9c-1.7-7.5-1.1-15.2-.6-19.5.3-1.9 1.9-3.4 3.8-3.5 14.4-.5 29.2.5 55.3 7.9 17.3 4.9 29.8 12.6 36.9 17.8 2.8 2.1 1.8 6.5-1.7 7.2-6.1 1.1-14.4 2.4-20 2.4zm210.4 73c-12.7 1.7-58.5 2.2-86.2 2.2s-73.5-.5-86.2-2.2c-13.1-1.7-29.8-17.3-18.4-30.2 7.6-8.5 20.8-13.6 48.9-17.3 29.8-3.8 48.6-4.3 55.6-4.3s25.8.5 55.6 4.3c28.1 3.7 43.2 9.6 48.9 17.3 10.4 13.8-5.1 28.4-18.2 30.2zm111.7-85.2c-2.5 11.2-25.6 14.9-28 14.9s-6.5-3.9-11.2-3.8c-4.7.2-24.6 1.2-34.5 1.2-5.5 0-13.8-1.3-20-2.4-3.5-.6-4.5-5.1-1.7-7.2 7.1-5.2 19.6-12.9 36.9-17.8 26.1-7.4 40.8-8.4 55.3-7.9 2 .1 3.6 1.5 3.8 3.5.5 4.3 1.1 12-.6 19.5z"/></svg>