<svg xmlns="http://www.w3.org/2000/svg" viewBox="0 0 512 512"><path d="M411.387 303.256c-3.119-9.577-7.891-18.561-14.301-26.952-6.422-8.382-14.396-15.826-23.93-22.331-9.539-6.498-20.721-11.63-33.553-15.4-5.143-1.363-14.189-3.506-26.104-6.418-8.516-2.074-16.5-4.2-25.5-6.367V120.065c9 2.396 15.252 6.202 21.926 10.43C324.204 139.535 333.157 155 335.78 176h69.174c-.654-18-4.65-32.76-11.996-46.02-8.07-14.543-18.977-27.024-32.73-36.956-13.75-9.922-30.225-17.49-48.377-22.455C303.967 68.416 297 66.605 288 65.386V32h-64v33.167c-7 1.044-15.148 2.445-22.426 4.25-17.242 4.283-32.388 10.868-45.951 19.764-13.571 8.905-24.352 20.112-32.604 33.627-8.251 13.523-12.312 29.52-12.312 48 0 9.585 1.407 18.993 4.157 28.235 2.752 9.241 7.442 17.967 14.042 26.181 6.603 8.214 15.495 15.658 26.687 22.332 11.183 6.672 24.705 12.064 41.576 16.171 9.287 2.345 18.83 4.534 26.83 6.576v119.586c-11-2.919-21.889-7.399-30.678-13.479-9.17-6.327-16.066-13.953-21.198-23.884-4.779-9.229-7.073-20.526-7.407-32.526H96c.695 21 5.25 39.494 13.672 55.371 8.799 16.604 20.533 29.96 35.204 40.562 14.662 10.613 31.393 18.356 51.198 23.491 8.885 2.304 18.926 3.96 27.926 5.23V480h64v-34.54c10-1.069 18.957-2.69 28.527-4.879 18.701-4.273 35.645-11.036 50.316-20.276 14.662-9.24 26.621-21.128 35.611-35.681 8.98-14.541 13.545-32.085 13.545-52.619.001-9.578-1.501-19.164-4.612-28.749zM224 209.699c-12-3.743-23.912-9.088-32.051-16.048-8.621-7.355-12.673-17.534-12.673-30.545 0-9.241 2.414-16.94 7.004-23.102 4.58-6.161 9.912-11.038 16.88-14.631 6.18-3.189 13.84-5.565 20.84-7.138v91.464zm118.902 149.772c-2.939 6.673-7.699 12.576-14.303 17.711-6.602 5.133-15.744 9.328-26.377 12.577-4.5 1.378-8.223 2.444-14.223 3.236v-107.11c10 2.624 18.18 5.332 26.326 8.131 8.062 2.744 15.748 7.443 22.537 14.116 6.785 6.676 10.309 17.03 10.309 31.06.001 6.85-1.337 13.605-4.269 20.279z"/></svg>