<svg xmlns="http://www.w3.org/2000/svg" viewBox="0 0 512 512"><path d="M256 32C132.288 32 32 132.288 32 256s100.288 224 224 224 224-100.288 224-224S379.712 32 256 32zm135.765 359.765C355.5 428.028 307.285 448 256 448s-99.5-19.972-135.765-56.235C83.972 355.5 64 307.285 64 256s19.972-99.5 56.235-135.765C156.5 83.972 204.715 64 256 64s99.5 19.972 135.765 56.235C428.028 156.5 448 204.715 448 256s-19.972 99.5-56.235 135.765z"/><path d="M200.043 106.067c-40.631 15.171-73.434 46.382-90.717 85.933H256l-55.957-85.933zM412.797 288A160.723 160.723 0 0 0 416 256c0-36.624-12.314-70.367-33.016-97.334L311 288h101.797zM359.973 134.395C332.007 110.461 295.694 96 256 96c-7.966 0-15.794.591-23.448 1.715L310.852 224l49.121-89.605zM99.204 224A160.65 160.65 0 0 0 96 256c0 36.639 12.324 70.394 33.041 97.366L201 224H99.204zM311.959 405.932c40.631-15.171 73.433-46.382 90.715-85.932H256l55.959 85.932zM152.046 377.621C180.009 401.545 216.314 416 256 416c7.969 0 15.799-.592 23.456-1.716L201.164 288l-49.118 89.621z"/></svg>