<svg xmlns="http://www.w3.org/2000/svg" viewBox="0 0 512 512"><path d="M424 134.5h-45.8c2.3-6.6 3.8-13.9 3.8-21.3 0-35.4-28.1-63.2-63-63.2-22.1 0-41.2 10.7-52.5 28L256 92.3l-10.5-14.5C234.2 60.7 215.1 48 193 48c-34.9 0-63 29.8-63 65.2 0 7.5 1.5 14.7 3.8 21.3H88c-23.3 0-41.8 19-41.8 42.7L46 421.8c0 23.7 17.4 42.2 40.7 42.2h336.7c23.3 0 42.7-18.5 42.7-42.2V177.2c-.1-23.7-18.8-42.7-42.1-42.7zM320 91c11.6 0 21 9.5 21 21 0 11.6-9.4 21-21 21s-21-9.5-21-21 9.4-21 21-21zm-128 0c11.6 0 21 9.5 21 21 0 11.6-9.4 21-21 21s-21-9.5-21-21 9.4-21 21-21zM88 177.2h106.7L151 237.5l34 25 50-69.1.2-.2-.2 228.6H88V177.2zm336 244.6H277V193.4l50 69.1 34-25-43.7-60.4H424v244.7z"/></svg>