<svg xmlns="http://www.w3.org/2000/svg" viewBox="0 0 512 512"><path d="M256 90c44.3 0 86 17.3 117.4 48.6C404.7 170 422 211.7 422 256s-17.3 86-48.6 117.4C342 404.7 300.3 422 256 422s-86-17.3-117.4-48.6C107.3 342 90 300.3 90 256s17.3-86 48.6-117.4C170 107.3 211.7 90 256 90m0-42C141.1 48 48 141.1 48 256s93.1 208 208 208 208-93.1 208-208S370.9 48 256 48z"/><path d="M235 339h42v42h-42zM276.8 318h-41.6c0-67 62.4-62.2 62.4-103.8 0-22.9-18.7-41.7-41.6-41.7S214.4 192 214.4 214h-41.6c0-46 37.2-83 83.2-83s83.2 37.1 83.2 83.1c0 52-62.4 57.9-62.4 103.9z"/></svg>