<svg xmlns="http://www.w3.org/2000/svg" viewBox="0 0 512 512"><path d="M367.951 354.654l-26.616-26.562-9.568-9.548-4.698-4.706L187 174.041v.346L76.112 63.531 51.921 87.572 187 222.47v28.816c0 37.79 31.121 68.714 68.91 68.714a68.6 68.6 0 0 0 24.565-4.545l32.389 32.274c-17.333 8.793-36.812 13.86-56.782 13.86-62.986 0-121.365-48.59-121.365-116.59H95.773C95.773 322 158 387.701 233 398.013V480h46v-81.987c22-3.352 43.066-11.222 61.627-22.622l95.278 95.078 24.033-24-33.847-33.785-58.216-57.959 58.224 57.959-58.148-58.03zM325 251.286V100.714C325 62.924 293.791 32 256 32s-69 30.924-69 68.714v25.244l137.109 136.968c.67-3.791.891-7.679.891-11.64zM416.439 245h-38.941c0 20.496-5.498 39.676-14.931 56.197l27.572 27.516c16.523-24.11 26.3-52.787 26.3-83.713zM459.999 446.427l-33.897-33.743 33.855 33.785z"/></svg>