<svg xmlns="http://www.w3.org/2000/svg" viewBox="0 0 512 512"><path d="M256 463.656c22.814 0 41.475-18.656 41.475-41.656h-82.95c0 23 18.661 41.656 41.475 41.656z"/><path d="M131.083 107.172l.053.074L98.09 74.277 74.004 98.383l63.042 63.153C126.888 180.521 121 202.196 121 225.07v114.555l-41 41.656V402h297.743l36.182 36.33 24.079-24.301L425.9 402h.316L131.083 107.172zM391 225.07c0-63.526-45-117.677-104-131.218V79.274c0-17.706-13.371-31.243-31-31.243-17.628 0-31 13.537-31 31.243v14.578c-15 3.438-29.048 9.501-41.75 17.663L391 319.355V225.07z"/></svg>