<svg xmlns="http://www.w3.org/2000/svg" viewBox="0 0 512 512"><path d="M257 120.471c7.083 0 23.911 4.479 23.911 4.479 45.589 10.447 77.678 52.439 77.678 99.85V352.412l9.321 9.364 7.788 7.823H136.302l7.788-7.823 9.321-9.364V224.8c0-47.41 32.089-89.403 77.678-99.85 0 0 18.043-4.479 23.911-4.479M256 48c-17.602 0-31.059 13.518-31.059 31.2v14.559c-59.015 13.523-103.53 67.601-103.53 131.041v114.4L80 380.8v20.8h352v-20.8l-41.411-41.6V224.8c0-63.44-44.516-117.518-103.53-131.041V79.2c0-17.682-13.457-31.2-31.059-31.2zm41.411 374.4h-82.823c0 22.881 18.633 41.6 41.412 41.6s41.411-18.719 41.411-41.6z"/></svg>