<svg xmlns="http://www.w3.org/2000/svg" viewBox="0 0 512 512"><path d="M383.822 344.427c-16.045 0-31.024 5.326-41.721 15.979l-152.957-88.42c1.071-5.328 2.142-9.593 2.142-14.919 0-5.328-1.071-9.593-2.142-14.919l150.826-87.35c11.762 10.653 26.741 17.041 43.852 17.041 35.295 0 64.178-28.766 64.178-63.92C448 72.767 419.117 44 383.822 44c-35.297 0-64.179 28.767-64.179 63.92 0 5.327 1.065 9.593 2.142 14.919l-150.821 87.35c-11.767-10.654-26.741-17.041-43.856-17.041-35.296 0-63.108 28.766-63.108 63.92 0 35.153 28.877 63.92 64.178 63.92 17.115 0 32.089-6.389 43.856-17.042l151.891 88.421c-1.076 4.255-2.141 8.521-2.141 13.847 0 34.094 27.806 61.787 62.037 61.787 34.229 0 62.036-27.693 62.036-61.787.001-34.094-27.805-61.787-62.035-61.787z"/></svg>