<svg xmlns="http://www.w3.org/2000/svg" viewBox="0 0 512 512"><path d="M232 306.667h48V176h-48v130.667z"/><path d="M407.67 170.271l30.786-30.786-33.942-33.941-30.785 30.786C341.217 111.057 300.369 96 256 96 149.961 96 64 181.961 64 288s85.961 192 192 192 192-85.961 192-192c0-44.369-15.057-85.217-40.33-117.729zm-45.604 223.795C333.734 422.398 296.066 438 256 438s-77.735-15.602-106.066-43.934C121.602 365.735 106 328.066 106 288s15.602-77.735 43.934-106.066C178.265 153.602 215.934 138 256 138s77.734 15.602 106.066 43.934C390.398 210.265 406 247.934 406 288s-15.602 77.735-43.934 106.066zM192 32h128v48H192z"/></svg>