<svg xmlns="http://www.w3.org/2000/svg" viewBox="0 0 512 512"><path d="M405.3 32H106.7C83.2 32 64 51.2 64 74.7v362.7c0 23.5 19.2 42.7 42.7 42.7h298.7c23.5 0 42.7-19.2 42.7-42.7V74.7C448 51.2 428.8 32 405.3 32zm-4 405.3H110.7c-2.2 0-4-1.8-4-4V78.7c0-2.2 1.8-4 4-4h290.7c2.2 0 4 1.8 4 4v354.7c-.1 2.1-1.9 3.9-4.1 3.9z"/><path d="M145 194v204c0 1.1.9 2 2 2h218c1.1 0 2-.9 2-2V194c0-1.1-.9-2-2-2H147c-1.1 0-2 .9-2 2zM145 114.7v34c0 1.1.9 2 2 2h171c1.1 0 2-.9 2-2v-34c0-1.1-.9-2-2-2H147c-1.1 0-2 .9-2 2z"/></svg>