<svg xmlns="http://www.w3.org/2000/svg" viewBox="0 0 512 512"><path d="M202.7 341.3V170.7c0-23.5 19-42.7 42.7-42.7h197v-21.3c0-23.5-18.9-42.7-42.3-42.7H92c-23.7 0-44 18.5-44 42v300c0 23.5 20.3 42 44 42h308c23.5 0 42.3-19.2 42.3-42.7V384h-197c-23.6 0-42.6-19.2-42.6-42.7z"/><path d="M245 186v140c0 8.8 7.2 16 16 16h187c8.8 0 16-7.2 16-16V186c0-8.8-7.2-16-16-16H261c-8.8 0-16 7.2-16 16zm77.1 101.9c-19.3 1.2-35.2-14.7-34-34 1-15.9 13.9-28.8 29.9-29.9 19.3-1.2 35.2 14.7 34 34-1.1 16-14 28.9-29.9 29.9z"/></svg>