<svg xmlns="http://www.w3.org/2000/svg" width="512" height="512"><path fill-opacity=".016" d="M0 256.002v256.002l256.25-.252 256.25-.252.252-255.75L513.004 0H0v256.002m.492.498c0 140.8.116 198.251.258 127.67.142-70.582.142-185.782 0-256C.608 57.951.492 115.7.492 256.5" fill="#1976D2" fill-rule="evenodd"/><path fill-opacity=".394" d="M244 42.164c-12.122.645-25.227 2.523-35.5 5.088l-5 1.248-.265 28.12-.266 28.12-4.734 1.778c-12.468 4.683-31.018 15.367-41.937 24.155l-4.202 3.382 4.019 11.723c2.211 6.447 6.261 16.447 9.001 22.222 5.144 10.842 14.782 27 16.105 27 .412 0 2.06-2.588 3.662-5.75 10.687-21.105 32.012-46.171 54.658-64.247 16.732-13.355 49.61-32.545 67.209-39.228l4.25-1.614V48.28l-10.75-2.105c-20.847-4.083-35.386-5.119-56.25-4.011m61.367 69.086c-10.513 11.042-22.734 28.48-29.691 42.364l-3.565 7.115 19.695.581c13.929.411 22.621 1.179 29.694 2.623 36.207 7.396 66.827 20.984 100.327 44.521 6.78 4.764 12.679 8.523 13.108 8.354.429-.17 7.325-4.087 15.325-8.705l14.545-8.398-1.498-5.102c-8.845-30.129-29.662-66.186-48.969-84.817l-3.848-3.714-22.495 13.042c-12.372 7.173-23.203 13.43-24.068 13.904-1.152.632-3.633-.679-9.257-4.891-10.292-7.707-22.287-14.753-32.936-19.346-4.821-2.079-9.138-3.781-9.592-3.781-.454 0-3.503 2.813-6.775 6.25m-209.335 2.783c-14.415 16.358-25.303 32.761-34.011 51.236-5.642 11.969-12.571 31.878-11.783 33.857.3.756 11.188 7.449 24.194 14.874 22.179 12.661 23.617 13.655 23.14 16-2.031 9.986-2.796 27.835-1.702 39.735.645 7.021 1.422 13.709 1.728 14.863.474 1.79 2.194 2.416 11.729 4.274 6.145 1.197 14.998 2.612 19.673 3.144 10.05 1.145 35.684 1.31 36.338.234.25-.413-1.352-3.675-3.56-7.25-6.51-10.537-14.312-27.605-18.734-40.984-11.326-34.26-14.358-71.355-9.444-115.516l.557-5-10.829-6.189c-5.955-3.404-12.926-7.358-15.491-8.787l-4.662-2.597-7.143 8.106M246.746 216.03c-11.368 2.849-22.698 12.425-28.037 23.696-2.978 6.286-3.209 7.53-3.209 17.274 0 9.696.24 11.007 3.138 17.123 5.355 11.302 13.373 18.612 25.076 22.862 8.621 3.131 22.075 2.567 30.567-1.282 8.081-3.663 17.024-12.473 20.953-20.643 4.049-8.418 5.039-21.625 2.265-30.206-3.749-11.594-12.005-20.856-23.302-26.143-5.571-2.606-8.058-3.159-15.18-3.37-4.684-.139-10.206.171-12.271.689m104.555 5.69l-3.2.399 3.579 5.595c5.451 8.522 15.807 30.646 19.324 41.286 7.556 22.858 10.883 42.779 11.69 70 .511 17.218-.541 39.66-2.29 48.859-.474 2.494.352 3.126 14.797 11.332l15.299 8.691 3.334-3.191c5.073-4.856 17.278-20.176 23.654-29.691C447.578 359.943 464 323.39 464 315.988c0-1.323-6.543-5.582-24.048-15.653-20.754-11.94-23.972-14.109-23.494-15.835 1.887-6.816 2.815-28.296 1.744-40.34-.628-7.062-1.425-13.578-1.771-14.48-1.884-4.908-46.202-10.324-65.13-7.96M65.073 305.591c-7.935 4.636-14.663 8.665-14.951 8.954-.855.855 5.756 20.138 10.784 31.455 8.522 19.182 22.722 40.796 36.734 55.91 5.844 6.304 5.983 6.384 8.401 4.822 1.353-.873 12.263-7.227 24.246-14.12l21.787-12.531 7.213 5.573C171.395 395.011 197.271 409 202.469 409c3.276 0 23.982-26.914 33.018-42.918 7.833-13.873 7.899-12.871-.81-12.312-4.084.262-13.444-.055-20.801-.704-42.659-3.767-83.103-19.725-123.566-48.755-5.605-4.021-10.33-7.275-10.5-7.231-.171.045-6.802 3.874-14.737 8.511m262.469 22.4c-15.193 27.353-41.832 55.121-71.542 74.576-12.197 7.987-28.633 16.928-42.25 22.983L203 430.33v35.354l9.75 2.13c17.218 3.762 25.354 4.588 44.75 4.545 18.952-.043 30.275-1.237 46.316-4.885L311 465.84V409.839l4.25-1.649c13.438-5.215 34.1-17.187 44.15-25.582l2.9-2.422-4.224-12.343c-2.323-6.789-6.409-16.843-9.079-22.343-5.182-10.674-14.641-26.521-15.798-26.468-.385.018-2.93 4.049-5.657 8.959" fill="#1976D2" fill-rule="evenodd"/><path fill-opacity=".296" d="M305.217 111.811c-12.496 14.214-21.959 27.768-28.619 40.995l-3.472 6.893 16.687.611c9.178.336 20.962 1.319 26.187 2.183 36.761 6.082 73.31 22.025 108.579 47.362l9.639 6.924 14.926-8.592c17.344-9.984 16.333-7.281 9.615-25.687-7.226-19.799-18.613-40.506-31.069-56.5-7.205-9.251-15.892-19-16.93-19-.486 0-11.412 6.075-24.278 13.5-12.867 7.425-23.701 13.5-24.076 13.5-.376 0-3.883-2.43-7.794-5.399-12.156-9.229-27.716-17.904-39.692-22.129l-3.823-1.349-5.88 6.688m-206.854.439c-18.303 18.96-35.045 47.046-44.43 74.536-2.307 6.757-4.023 12.435-3.814 12.617.21.181 10.956 6.439 23.881 13.906l23.5 13.576-.187 4.307-.88 20.308c-.46 10.628-.29 19.017.506 24.985.659 4.942 1.346 9.134 1.528 9.315.694.695 12.49 3.122 23.033 4.74 10.702 1.642 41.679 2.613 42.947 1.345.339-.338-1.495-4.163-4.075-8.5-7.087-11.914-13.164-25.451-17.905-39.885-11.348-34.549-14.021-68.972-9.15-117.833.137-1.376-3.429-3.929-14.317-10.247-7.975-4.628-14.74-8.415-15.034-8.417-.294-.002-2.815 2.359-5.603 5.247M247.5 216.347c-16.613 4.335-28.513 17.141-31.625 34.031-2.268 12.305 1.964 26.037 10.913 35.412 22.325 23.388 60.915 14.045 70.355-17.034 6.237-20.534-4.871-43.101-24.985-50.762-6.818-2.597-18.123-3.352-24.658-1.647m83.491 106.674c-2.232 5.39-16.418 26.245-24.133 35.479-22.244 26.625-55.049 50.5-92.108 67.034L204 430.33v35.39l10.75 2.121c18.163 3.584 29.371 4.467 49.202 3.876 16.981-.506 32.482-2.475 43.548-5.531l3-.829.265-27.946.265-27.946 9.993-4.327c11.017-4.77 23.512-12.029 33.588-19.514 6.426-4.773 6.55-4.952 5.892-8.5-1.045-5.627-7.186-21.591-12.552-32.629C342.778 333.854 334.339 320 333.03 320c-.433 0-1.35 1.359-2.039 3.021" fill="#1976D2" fill-rule="evenodd"/><path fill-opacity=".533" d="M250 216.137c-8.2 1.313-16.895 6.001-22.894 12.344-22.981 24.299-9.686 63.511 23.634 69.708 16.681 3.102 35.892-6.754 43.452-22.292 6.024-12.383 5.949-25.914-.211-37.769-8.446-16.257-25.753-24.91-43.981-21.991" fill="#1976D2" fill-rule="evenodd"/></svg>