<svg version="1.1" id="Layer_1" xmlns="http://www.w3.org/2000/svg" x="0" y="0" viewBox="0 0 144 24" xml:space="preserve"><style>.st0{fill:#00b4ff}.st1{fill:#fff}</style><path class="st0" d="M14.9 20.9V0H18v18h3V0h3.1v20.9h-9.2zM35.9 20.9v-6h-3v6h-3.1V0H39v20.9h-3.1zm-3-8.9h3V2.9h-3V12zM47.8 9h6.1v11.9h-9.2V18h6.1v-6.1h-6.1V0h9.2v2.9h-6.1V9zM65.8 20.9v-6h-3v6h-3.1V0h9.2v20.9h-3.1zM62.7 12h3V2.9h-3V12zM9.1 0H0v20.9h3.1V24h3v-3.1h3.1V0zm-3 18h-3V2.9h3V18zM74.6 0v20.9h3.1v-6l3 6h3.1l-3.1-6 3.1-2.9V0h-9.2zm3 2.9h3v7.8L79.3 12h-1.7V2.9z"/><path class="st1" d="M92.6 2.9h3V6h3.1V0h-9.2v10l3.1-.1zM89.5 20.9h9.2v-6h-3.1V18h-3v-7l-3.1-.1zM110.5 18h-3v-6.5l-3.1-.1v9.5h9.2v-9.1l-3.1-.1zM107.5 2.9h3v6.4l3.1-.1V0h-9.2v9.5l3.1-.1zM119.3 20.9h3.1v-8.8l-3.1-.1zM122.4 2.9h3v5.9l3.1-.1V0h-9.2v9l3.1-.1zM125.4 20.9h3.1v-8.6l-3.1-.1zM134.2 20.9h3.1v-8.3l-3.1-.1zM143.4 2.9V0h-9.2v8.5l3.1-.1V2.9z"/><path class="st0" d="M143.4 10.5c0 1.1-10.2.4-10.2 0-.1-.4 10.2-1.1 10.2 0z"/></svg>