<svg xmlns="http://www.w3.org/2000/svg" xml:space="preserve" viewBox="0 0 48 48"><style>.st0{display:none}.st2{display:inline;stroke-linejoin:round}.st2,.st3,.st4{fill:none;stroke:#ea5e13;stroke-width:2;stroke-miterlimit:10}.st3{display:inline}.st4{stroke-linecap:round}.st4,.st5{display:inline}.st6{fill:#ea5e13}.st7,.st8{fill:none;stroke:#ea5e13;stroke-width:2;stroke-miterlimit:10}.st7{stroke-linecap:round}.st8{stroke-linejoin:round}.st9{display:inline;fill:#ea5e13}</style><path id="Icon_outlined" d="M37 5.5c0 .6-.4 1-1 1-3 0-5.5 2.5-5.5 5.5 0 .6-.4 1-1 1s-1-.4-1-1c0-4.1 3.4-7.5 7.5-7.5.6 0 1 .4 1 1zm-2 13c0 .6.4 1 1 1 4.1 0 7.5-3.4 7.5-7.5 0-.6-.4-1-1-1s-1 .4-1 1c0 3-2.5 5.5-5.5 5.5-.6 0-1 .4-1 1zM25.5 13c.6 0 1-.4 1-1 0-5.2 4.3-9.5 9.5-9.5.6 0 1-.4 1-1s-.4-1-1-1C29.7.5 24.5 5.7 24.5 12c0 .6.4 1 1 1zM36 21.5c-.6 0-1 .4-1 1s.4 1 1 1c6.3 0 11.5-5.2 11.5-11.5 0-.6-.4-1-1-1s-1 .4-1 1c0 5.2-4.3 9.5-9.5 9.5zm12 19.7c0 .3-.1.5-.3.7l-5.8 5.8c-.2.2-.4.3-.7.3s-.5-.1-.7-.3L35 42.2l-5.6-5.6c-.4-.4-.4-1 0-1.4l.7-.7-3-3-10.2 10.2c-.2.2-.5.3-.7.3s-.5-.1-.7-.3l-2.4-2.4-7.4 7.4c-.2.2-.5.3-.7.3s-.6 0-.8-.2c-.4-.4-.4-1 0-1.4l7.4-7.4-1.6-1.6-4.2 4.2c-.2.2-.5.3-.7.3s-.5-.1-.7-.3c-.4-.4-.4-1 0-1.4L8.6 35l-2.4-2.4c-.1-.3-.2-.5-.2-.8s.1-.5.3-.7l10.2-10.2-3-3-.7.7c-.2.2-.5.3-.7.3s-.5-.1-.7-.3L5.8 13 .3 7.5c-.4-.4-.4-1 0-1.4L6.1.3c.4-.4 1-.4 1.4 0l11.1 11.1c.4.4.4 1 0 1.4l-3.7 3.7 3 3 1.9-1.9c.2-.2.4-.3.7-.3s.5.1.7.3l.7.7 2.2-2.2c.4-.4 1-.4 1.4 0l2.4 2.4 4.9-4.9c-.3-.5-.4-1.1-.4-1.7 0-1.9 1.6-3.5 3.5-3.5s3.5 1.6 3.5 3.5-1.6 3.5-3.5 3.5c-.6 0-1.2-.2-1.7-.4l-4.8 5 2.4 2.4c.4.4.4 1 0 1.4L29.6 26l.7.7c.4.4.4 1 0 1.4L28.4 30l3 3 .6-.6 3.1-3.1c.4-.4 1-.4 1.4 0l11.1 11.1c.3.3.4.6.4.8zM34.5 12c0 .8.7 1.5 1.5 1.5s1.5-.7 1.5-1.5-.7-1.5-1.5-1.5-1.5.7-1.5 1.5zm-11.2 7.8 4.9 4.9 1.5-1.5-4.9-4.9-1.5 1.5zM2.4 6.8l4.1 4.1 2-2c.2-.2.4-.3.7-.3s.5.1.7.3l4.9 4.9 1.7-1.7-9.7-9.7-4.4 4.4zm9.7 9.7 1.3-1.3L9.2 11l-1.3 1.3 4.2 4.2zM8.4 31.8l3.2 3.2 3.5-3.5-.9-.9c-.4-.4-.4-1 0-1.4l5.1-5.1c.4-.4 1-.4 1.4 0l3.1 3.1c.4.4.4 1 0 1.4l-2.3 2.3 1.6 1.6 5.2-5.2-7.8-7.8L8.4 31.8zm9.6-.1 3.6-3.6-1.6-1.8-3.7 3.7 1.7 1.7zm3.7 2.4-1.6-1.6-1.3 1.3c-.2.2-.4.3-.7.3s-.5-.1-.7-.3l-.9-.9-3.5 3.5 3.2 3.2 5.5-5.5zM37 38.8l-4.2-4.2-1.3 1.3 4.2 4.2 1.3-1.3zm8.6 2.4-9.7-9.7-1.7 1.7 4.9 4.9c.4.4.4 1 0 1.4l-2 2 4.1 4.1 4.4-4.4zm-18.9 4.1c-.6 0-1 .4-1 1s.4 1 1 1 1-.4 1-1c0-.5-.4-1-1-1zm-22-22c0-1.1-.9-2-2-2s-2 .9-2 2 .9 2 2 2 2-.9 2-2zm15-20c.6 0 1-.4 1-1s-.4-1-1-1-1 .4-1 1 .5 1 1 1z" class="st6"/></svg>