<svg xmlns="http://www.w3.org/2000/svg" xml:space="preserve" viewBox="0 0 48 48"><path fill="#ea5e13" d="M40.1 25c.4 1.7 2 3 3.9 3 2.2 0 4-1.8 4-4s-1.8-4-4-4c-1.9 0-3.4 1.3-3.9 3h-3.2c-.2-2.8-1.3-5.4-3.1-7.4L42 7.4c.6.4 1.3.6 2 .6 2.2 0 4-1.8 4-4s-1.8-4-4-4-4 1.8-4 4c0 .7.2 1.4.6 2l-8.1 8.1c-2-1.7-4.6-2.9-7.4-3.1V7.9c1.7-.4 3-2 3-3.9 0-2.2-1.8-4-4-4s-4 1.8-4 4c0 1.9 1.3 3.4 3 3.9v3.2c-2.8.2-5.4 1.3-7.4 3.1L7.4 6c.4-.6.6-1.3.6-2 0-2.2-1.8-4-4-4S0 1.8 0 4s1.8 4 4 4c.7 0 1.4-.2 2-.6l8.1 8.1c-1.7 2-2.9 4.6-3.1 7.4H7.9c-.4-1.7-2-3-3.9-3-2.2 0-4 1.8-4 4s1.8 4 4 4c1.9 0 3.4-1.3 3.9-3h3.2c.2 2.8 1.3 5.4 3.1 7.4L6 40.6c-.6-.4-1.3-.6-2-.6-2.2 0-4 1.8-4 4s1.8 4 4 4 4-1.8 4-4c0-.7-.2-1.4-.6-2l8.1-8.1c2 1.7 4.6 2.9 7.4 3.1v3.2c-1.7.4-3 2-3 3.9 0 2.2 1.8 4 4 4s4-1.8 4-4c0-1.9-1.3-3.4-3-3.9V37c2.8-.2 5.4-1.3 7.4-3.1l8.1 8.1c-.4.6-.6 1.3-.6 2 0 2.2 1.8 4 4 4s4-1.8 4-4-1.8-4-4-4c-.7 0-1.4.2-2 .6l-8.1-8.1c1.7-2 2.9-4.6 3.1-7.4h3.3zm3.9-3c1.1 0 2 .9 2 2s-.9 2-2 2-2-.9-2-2 .9-2 2-2zm0-20c1.1 0 2 .9 2 2s-.9 2-2 2c-.5 0-1-.2-1.3-.5 0 0 0-.1-.1-.1s-.1 0-.1-.1C42.2 5 42 4.5 42 4c0-1.1.9-2 2-2zM22 4c0-1.1.9-2 2-2s2 .9 2 2-.9 2-2 2-2-.9-2-2zM2 4c0-1.1.9-2 2-2s2 .9 2 2-.9 2-2 2-2-.9-2-2zm2 22c-1.1 0-2-.9-2-2s.9-2 2-2 2 .9 2 2-.9 2-2 2zm0 20c-1.1 0-2-.9-2-2s.9-2 2-2 2 .9 2 2-.9 2-2 2zm22-2c0 1.1-.9 2-2 2s-2-.9-2-2 .9-2 2-2 2 .9 2 2zm20 0c0 1.1-.9 2-2 2s-2-.9-2-2 .9-2 2-2 2 .9 2 2zm-22-9c-6.1 0-11-4.9-11-11s4.9-11 11-11 11 4.9 11 11-4.9 11-11 11zm-4.3-13.3L17.4 24l2.3 2.3c.4.4.4 1 0 1.4-.2.2-.4.3-.7.3s-.5-.1-.7-.3l-3-3c-.4-.4-.4-1 0-1.4l3-3c.4-.4 1-.4 1.4 0s.4 1 0 1.4zm10-1.4 3 3c.4.4.4 1 0 1.4l-3 3c-.2.2-.4.3-.7.3s-.5-.1-.7-.3c-.4-.4-.4-1 0-1.4l2.3-2.3-2.3-2.3c-.4-.4-.4-1 0-1.4s1-.4 1.4 0zm-2.8-.9-4 10c-.1.4-.5.6-.9.6-.1 0-.2 0-.4-.1-.5-.2-.8-.8-.6-1.3l4-10c.2-.5.8-.8 1.3-.6.6.3.8.9.6 1.4z"/></svg>