<?xml version="1.0" encoding="utf-8"?>
<!-- Generator: Adobe Illustrator 25.4.1, SVG Export Plug-In . SVG Version: 6.00 Build 0)  -->
<svg version="1.1" xmlns="http://www.w3.org/2000/svg" xmlns:xlink="http://www.w3.org/1999/xlink" x="0px" y="0px"
	 viewBox="0 0 48 48" style="enable-background:new 0 0 48 48;" xml:space="preserve">
<style type="text/css">
	.st0{display:none;}
	.st1{display:inline;fill:none;stroke:#EA5E13;stroke-width:2;stroke-linecap:round;stroke-linejoin:round;stroke-miterlimit:10;}
	.st2{display:inline;fill:none;stroke:#EA5E13;stroke-width:2;stroke-linejoin:round;stroke-miterlimit:10;}
	.st3{display:inline;fill:none;stroke:#EA5E13;stroke-width:2;stroke-miterlimit:10;}
	.st4{display:inline;fill:none;stroke:#EA5E13;stroke-width:2;stroke-linecap:round;stroke-miterlimit:10;}
	.st5{display:inline;}
	.st6{fill:#EA5E13;}
	.st7{fill:none;stroke:#EA5E13;stroke-width:2;stroke-linecap:round;stroke-miterlimit:10;}
	.st8{fill:none;stroke:#EA5E13;stroke-width:2;stroke-linejoin:round;stroke-miterlimit:10;}
	.st9{display:inline;fill:#EA5E13;}
	.st10{display:inline;fill:#FFFFFF;}
	
		.st11{display:inline;fill:#FFFFFF;stroke:#EA5E13;stroke-width:2;stroke-linecap:round;stroke-linejoin:round;stroke-miterlimit:10;}
</style>
<g id="Icons_stroke" class="st0">
	<rect x="11.8" y="20.1" transform="matrix(0.7071 0.7071 -0.7071 0.7071 26.3502 -4.2674)" class="st2" width="13" height="19.1"/>
	
		<rect x="22.1" y="19.4" transform="matrix(0.7071 0.7071 -0.7071 0.7071 22.9485 -12.4797)" class="st2" width="8.9" height="4.1"/>
	<rect x="16.8" y="25.4" transform="matrix(0.7071 0.7071 -0.7071 0.7071 26.0711 -4.9411)" class="st2" width="4.4" height="7.1"/>
	<line class="st3" x1="28" y1="20" x2="34.5" y2="13.5"/>
	<line class="st2" x1="31.5" y1="34.5" x2="27.1" y2="30.1"/>
	<line class="st2" x1="17.9" y1="20.9" x2="13.5" y2="16.5"/>
	<line class="st4" x1="10" y1="35" x2="5.2" y2="39.8"/>
	<line class="st4" x1="13" y1="38" x2="4.9" y2="46.1"/>
	<g class="st5">
		<path class="st6" d="M36,10.5c0.8,0,1.5,0.7,1.5,1.5s-0.7,1.5-1.5,1.5s-1.5-0.7-1.5-1.5S35.2,10.5,36,10.5 M36,8.5
			c-1.9,0-3.5,1.6-3.5,3.5s1.6,3.5,3.5,3.5s3.5-1.6,3.5-3.5S37.9,8.5,36,8.5L36,8.5z"/>
	</g>
	<g class="st5">
		<path class="st7" d="M29.5,12c0-3.6,2.9-6.5,6.5-6.5"/>
		<path class="st7" d="M42.5,12c0,3.6-2.9,6.5-6.5,6.5"/>
	</g>
	<g class="st5">
		<path class="st7" d="M25.5,12c0-5.8,4.7-10.5,10.5-10.5"/>
		<path class="st7" d="M46.5,12c0,5.8-4.7,10.5-10.5,10.5"/>
	</g>
	<g class="st5">
		
			<rect x="34.5" y="30.7" transform="matrix(0.7071 -0.7071 0.7071 0.7071 -15.9698 38.5545)" class="st8" width="8.2" height="15.7"/>
		
			<rect x="32.4" y="33.4" transform="matrix(0.7071 -0.7071 0.7071 0.7071 -16.3876 35.1596)" class="st8" width="3.8" height="7.9"/>
	</g>
	<g class="st5">
		<rect x="8.7" y="9.8" transform="matrix(0.7071 -0.7071 0.7071 0.7071 -6.6049 11.542)" class="st8" width="3.8" height="7.9"/>
		<rect x="5.4" y="1.6" transform="matrix(0.7071 -0.7071 0.7071 0.7071 -3.9125 9.4455)" class="st8" width="8.2" height="15.7"/>
	</g>
	<line class="st3" x1="16.5" y1="31.5" x2="11.6" y2="36.4"/>
	<line class="st3" x1="20.1" y1="31.1" x2="22.8" y2="33.8"/>
	<circle class="st9" cx="26.7" cy="46.3" r="1"/>
	<circle class="st9" cx="2.7" cy="23.3" r="2"/>
	<circle class="st9" cx="19.7" cy="2.3" r="1"/>
</g>
<g id="Icon_outlined">
	<path class="st6" d="M37,5.5c0,0.6-0.4,1-1,1c-3,0-5.5,2.5-5.5,5.5c0,0.6-0.4,1-1,1s-1-0.4-1-1c0-4.1,3.4-7.5,7.5-7.5
		C36.6,4.5,37,4.9,37,5.5z M35,18.5c0,0.6,0.4,1,1,1c4.1,0,7.5-3.4,7.5-7.5c0-0.6-0.4-1-1-1s-1,0.4-1,1c0,3-2.5,5.5-5.5,5.5
		C35.4,17.5,35,17.9,35,18.5z M25.5,13c0.6,0,1-0.4,1-1c0-5.2,4.3-9.5,9.5-9.5c0.6,0,1-0.4,1-1s-0.4-1-1-1
		c-6.3,0-11.5,5.2-11.5,11.5C24.5,12.6,24.9,13,25.5,13z M36,21.5c-0.6,0-1,0.4-1,1s0.4,1,1,1c6.3,0,11.5-5.2,11.5-11.5
		c0-0.6-0.4-1-1-1s-1,0.4-1,1C45.5,17.2,41.2,21.5,36,21.5z M48,41.2c0,0.3-0.1,0.5-0.3,0.7l-5.8,5.8c-0.2,0.2-0.4,0.3-0.7,0.3
		s-0.5-0.1-0.7-0.3L35,42.2c0,0,0,0,0,0l-5.6-5.6c-0.4-0.4-0.4-1,0-1.4l0.7-0.7l-3-3L16.9,41.7c-0.2,0.2-0.5,0.3-0.7,0.3
		s-0.5-0.1-0.7-0.3l-2.4-2.4l-7.4,7.4c-0.2,0.2-0.5,0.3-0.7,0.3S4.4,47,4.2,46.8c-0.4-0.4-0.4-1,0-1.4l7.4-7.4l-1.6-1.6l-4.2,4.2
		c-0.2,0.2-0.5,0.3-0.7,0.3s-0.5-0.1-0.7-0.3c-0.4-0.4-0.4-1,0-1.4l4.2-4.2l-2.4-2.4C6.1,32.3,6,32.1,6,31.8s0.1-0.5,0.3-0.7
		l10.2-10.2l-3-3l-0.7,0.7c-0.2,0.2-0.5,0.3-0.7,0.3s-0.5-0.1-0.7-0.3l0,0L5.8,13L0.3,7.5c-0.4-0.4-0.4-1,0-1.4l5.8-5.8
		c0.4-0.4,1-0.4,1.4,0l11.1,11.1c0.4,0.4,0.4,1,0,1.4l-3.7,3.7l3,3l1.9-1.9c0.2-0.2,0.4-0.3,0.7-0.3s0.5,0.1,0.7,0.3l0.7,0.7
		l2.2-2.2c0.4-0.4,1-0.4,1.4,0l2.4,2.4l4.9-4.9c-0.3-0.5-0.4-1.1-0.4-1.7c0-1.9,1.6-3.5,3.5-3.5s3.5,1.6,3.5,3.5
		c0,1.9-1.6,3.5-3.5,3.5c-0.6,0-1.2-0.2-1.7-0.4L29.4,20l2.4,2.4c0.4,0.4,0.4,1,0,1.4l-2.2,2.2l0.7,0.7c0.4,0.4,0.4,1,0,1.4
		l-1.9,1.9l3,3l0.6-0.6l3.1-3.1c0.4-0.4,1-0.4,1.4,0l11.1,11.1C47.9,40.7,48,41,48,41.2z M34.5,12c0,0.8,0.7,1.5,1.5,1.5
		s1.5-0.7,1.5-1.5s-0.7-1.5-1.5-1.5S34.5,11.2,34.5,12z M23.3,19.8l4.9,4.9l1.5-1.5l-4.9-4.9L23.3,19.8z M2.4,6.8l4.1,4.1l2-2
		c0.2-0.2,0.4-0.3,0.7-0.3s0.5,0.1,0.7,0.3l4.9,4.9l1.7-1.7L6.8,2.4L2.4,6.8z M12.1,16.5l1.3-1.3L9.2,11l-1.3,1.3L12.1,16.5z
		 M8.4,31.8l3.2,3.2l3.5-3.5l-0.9-0.9c-0.4-0.4-0.4-1,0-1.4l5.1-5.1c0.4-0.4,1-0.4,1.4,0l3.1,3.1c0.4,0.4,0.4,1,0,1.4l-2.3,2.3
		l1.6,1.6l5.2-5.2l-7.8-7.8L8.4,31.8z M18,31.7l3.6-3.6L20,26.3L16.3,30L18,31.7z M21.7,34.1l-1.6-1.6l-1.3,1.3
		c-0.2,0.2-0.4,0.3-0.7,0.3s-0.5-0.1-0.7-0.3l-0.9-0.9L13,36.4l3.2,3.2L21.7,34.1z M37,38.8l-4.2-4.2l-1.3,1.3l4.2,4.2L37,38.8z
		 M45.6,41.2l-9.7-9.7l-1.7,1.7l4.9,4.9c0.4,0.4,0.4,1,0,1.4l-2,2l4.1,4.1L45.6,41.2z M26.7,45.3c-0.6,0-1,0.4-1,1c0,0.6,0.4,1,1,1
		s1-0.4,1-1C27.7,45.8,27.3,45.3,26.7,45.3z M4.7,23.3c0-1.1-0.9-2-2-2s-2,0.9-2,2s0.9,2,2,2S4.7,24.4,4.7,23.3z M19.7,3.3
		c0.6,0,1-0.4,1-1c0-0.6-0.4-1-1-1s-1,0.4-1,1C18.7,2.9,19.2,3.3,19.7,3.3z"/>
</g>
<g id="Guides" class="st0">
</g>
</svg>
