<?xml version="1.0" encoding="utf-8"?>
<!-- Generator: Adobe Illustrator 25.4.1, SVG Export Plug-In . SVG Version: 6.00 Build 0)  -->
<svg version="1.1" xmlns="http://www.w3.org/2000/svg" xmlns:xlink="http://www.w3.org/1999/xlink" x="0px" y="0px"
	 viewBox="0 0 48 48" style="enable-background:new 0 0 48 48;" xml:space="preserve">
<style type="text/css">
	.st0{display:none;}
	.st1{display:inline;fill:none;stroke:#EA5E13;stroke-width:2;stroke-linecap:round;stroke-linejoin:round;stroke-miterlimit:10;}
	.st2{display:inline;fill:none;stroke:#EA5E13;stroke-width:2;stroke-linejoin:round;stroke-miterlimit:10;}
	.st3{display:inline;fill:none;stroke:#EA5E13;stroke-width:2;stroke-miterlimit:10;}
	.st4{display:inline;fill:none;stroke:#EA5E13;stroke-width:2;stroke-linecap:round;stroke-miterlimit:10;}
	.st5{display:inline;}
	.st6{fill:#EA5E13;}
	.st7{fill:none;stroke:#EA5E13;stroke-width:2;stroke-linecap:round;stroke-miterlimit:10;}
	.st8{fill:none;stroke:#EA5E13;stroke-width:2;stroke-linejoin:round;stroke-miterlimit:10;}
	.st9{display:inline;fill:#EA5E13;}
	.st10{display:inline;fill:#FFFFFF;}
	
		.st11{display:inline;fill:#FFFFFF;stroke:#EA5E13;stroke-width:2;stroke-linecap:round;stroke-linejoin:round;stroke-miterlimit:10;}
</style>
<g id="Icons_stroke" class="st0">
	<circle class="st4" cx="24" cy="36.9" r="10"/>
	<rect x="8" y="1" class="st1" width="32" height="6"/>
	<line class="st4" x1="18" y1="23" x2="18" y2="28.9"/>
	<line class="st4" x1="30" y1="23" x2="30" y2="28.7"/>
	<polygon class="st1" points="24,40.8 19.8,43 20.6,38.3 17.2,35 21.9,34.3 24,30 26.1,34.3 30.8,35 27.4,38.3 28.2,43 	"/>
	<path class="st1" d="M11,7v4c0,7.2,5.8,13,13,13s13-5.8,13-13V7"/>
	<polyline class="st1" points="31,29 45,29 45,34 31,44 	"/>
	<line class="st1" x1="45" y1="34" x2="33.6" y2="34"/>
	<polyline class="st1" points="17,29 3,29 3,34 17,44 	"/>
	<line class="st1" x1="3" y1="34" x2="14.4" y2="34"/>
	<line class="st1" x1="20" y1="7" x2="20" y2="23"/>
	<line class="st1" x1="28" y1="23" x2="28" y2="7"/>
</g>
<g id="Icon_outlined">
	<path class="st6" d="M29.2,42.8l-0.7-4.2l3-3c0.3-0.3,0.4-0.7,0.3-1C31.7,34.3,31.4,34,31,34l-4.2-0.6l-1.9-3.8
		c-0.3-0.7-1.5-0.7-1.8,0l-1.9,3.8L17,34c-0.4,0.1-0.7,0.3-0.8,0.7c-0.1,0.4,0,0.8,0.3,1l3,3l-0.7,4.2c-0.1,0.4,0.1,0.8,0.4,1
		c0.3,0.2,0.7,0.3,1.1,0.1l3.8-2l3.8,2c0.1,0.1,0.3,0.1,0.5,0.1c0.2,0,0.4-0.1,0.6-0.2C29.1,43.6,29.3,43.2,29.2,42.8z M26.7,37.6
		c-0.2,0.2-0.3,0.6-0.3,0.9l0.5,2.7l-2.4-1.3c-0.1-0.1-0.3-0.1-0.5-0.1s-0.3,0-0.5,0.1l-2.4,1.3l0.5-2.7c0.1-0.3-0.1-0.7-0.3-0.9
		l-2-1.9l2.7-0.4c0.3,0,0.6-0.3,0.8-0.5l1.2-2.5l1.2,2.5c0.1,0.3,0.4,0.5,0.8,0.5l2.7,0.4L26.7,37.6z M46,34v-5c0-0.6-0.4-1-1-1H31
		v-4.9c4.2-2.4,7-6.9,7-12.1V8h2c0.6,0,1-0.4,1-1V1c0-0.6-0.4-1-1-1H8C7.4,0,7,0.4,7,1v6c0,0.6,0.4,1,1,1h2v3c0,5.2,2.8,9.7,7,12.1
		V28H3c-0.6,0-1,0.4-1,1v5c0,0.1,0,0.2,0.1,0.3c0,0,0,0,0,0.1c0,0.1,0.1,0.2,0.2,0.3c0,0,0,0,0.1,0c0,0,0.1,0.1,0.1,0.1l13.8,9.8
		c2,2,4.7,3.2,7.8,3.2s5.8-1.2,7.8-3.2l13.8-9.8c0,0,0.1-0.1,0.1-0.1c0,0,0,0,0.1,0c0.1-0.1,0.1-0.2,0.2-0.3c0,0,0,0,0-0.1
		C46,34.2,46,34.1,46,34z M44,33h-9.7c-0.4-1.1-1-2.1-1.7-3H44V33z M27,8v14.6c-1,0.2-2,0.4-3,0.4s-2-0.1-3-0.4V8H27z M36,11
		c0,4.8-2.9,9-7,10.9V8h7V11z M9,2h30v4H9V2z M12,11V8h7v13.9C14.9,20,12,15.8,12,11z M24,25c1.8,0,3.4-0.3,5-0.9v3.1
		c-1.5-0.8-3.2-1.2-5-1.2s-3.5,0.4-5,1.2v-3.1C20.6,24.7,22.2,25,24,25z M15.5,30c-0.7,0.9-1.3,1.9-1.7,3H4v-3H15.5z M6.1,35h7.1
		c-0.1,0.6-0.2,1.3-0.2,1.9c0,1.2,0.2,2.3,0.5,3.4L6.1,35z M17.8,43.4c-0.1-0.1-0.1-0.1-0.2-0.2l0,0C16,41.5,15,39.3,15,36.9
		c0-5,4-9,9-9s9,4,9,9c0,2.4-1,4.6-2.5,6.2l0,0c-0.1,0.1-0.1,0.1-0.2,0.2c-1.6,1.6-3.8,2.5-6.2,2.5S19.4,44.9,17.8,43.4z M34.8,35
		h7.1l-7.4,5.3c0.3-1.1,0.5-2.2,0.5-3.4C35,36.3,34.9,35.6,34.8,35z"/>
</g>
<g id="Guides" class="st0">
</g>
</svg>
