<svg width="161" height="45" viewBox="0 0 161 45" fill="none" xmlns="http://www.w3.org/2000/svg">
<path fill-rule="evenodd" clip-rule="evenodd" d="M16.7977 5.08979C16.8959 4.72097 17.0923 4.52426 17.4114 4.52426C17.7305 4.52426 17.9269 4.72097 18.0251 5.08979L20.7498 15.589C21.4862 18.4167 23.2782 19.8428 26.1012 19.8428C27.7949 19.8428 29.0959 19.474 29.9796 18.6872C30.8634 17.9003 31.4279 16.8922 31.6489 15.6382L34.1773 1.35236C34.2263 1.15565 34.2509 0.983535 34.2509 0.860593C34.2754 0.737651 34.2754 0.590121 34.2754 0.442591H28.9487V0.762239C28.9487 0.885181 28.9487 1.03271 28.8996 1.18024L26.7394 14.1629C26.6657 14.5809 26.4448 14.8022 26.0766 14.8022C25.9048 14.8022 25.782 14.753 25.6593 14.6793C25.5611 14.5809 25.4629 14.4334 25.4138 14.2121L22.5909 3.86037C22.2227 2.55719 21.6581 1.59824 20.8726 0.958946C20.087 0.319649 18.9333 0 17.4114 0C15.8649 0 14.6866 0.319649 13.852 0.958946C13.0419 1.59824 12.4283 2.60637 12.0355 3.98332L9.1389 14.1875C9.0898 14.4088 9.01616 14.5809 8.89342 14.6547C8.79524 14.7284 8.64795 14.7776 8.47612 14.7776C8.08336 14.7776 7.86243 14.5809 7.81334 14.1383L5.825 1.15565C5.80045 1.03271 5.77591 0.885181 5.77591 0.762239C5.75136 0.614709 5.75136 0.516356 5.75136 0.418002H0.400024C0.400024 0.663886 0.424572 0.958946 0.473667 1.32777L2.85476 15.5644C2.95295 16.1791 3.12479 16.7447 3.39481 17.261C3.64028 17.7774 4.00849 18.2446 4.45035 18.6134C4.8922 18.9822 5.45679 19.2773 6.09502 19.4986C6.73325 19.7199 7.49422 19.8182 8.35338 19.8182C9.80168 19.8182 10.98 19.474 11.8882 18.7855C12.7965 18.097 13.4347 17.0152 13.852 15.5644L16.7977 5.08979ZM41.4188 19.4248V0.417986H36.3129V19.4248H41.4188ZM65.1561 0.417986V5.4586H56.8591V19.4248H51.7532V5.4586H43.4316V0.417986H65.1561ZM88.6971 19.4248V0.417986H83.5912V7.30273H72.2748V0.417986H67.169V19.4248H72.2748V12.0729H83.5912V19.4248H88.6971ZM34.3982 29.5061C34.0791 29.5061 33.8827 29.7028 33.7845 30.0716L30.8388 40.5462C30.4215 41.9969 29.7833 43.0788 28.875 43.7673C27.9668 44.4558 26.7885 44.8 25.3402 44.8C24.481 44.8 23.7201 44.7017 23.0818 44.4804C22.4436 44.2591 21.879 43.964 21.4371 43.5952C20.9953 43.2264 20.6271 42.7838 20.3816 42.2428C20.1116 41.7265 19.9398 41.1609 19.8416 40.5462L17.485 26.3096C17.4359 25.9653 17.4114 25.6457 17.4114 25.3998H22.7627C22.7627 25.4981 22.7627 25.5965 22.7873 25.744C22.7873 25.867 22.8118 26.0145 22.8363 26.1374L24.8247 39.1201C24.8738 39.5381 25.0947 39.7594 25.4875 39.7594C25.6593 39.7594 25.8066 39.7102 25.9048 39.6365C26.0275 39.5627 26.1012 39.3906 26.1502 39.1693L29.0468 28.9651C29.4396 27.5882 30.0533 26.58 30.8633 25.9407C31.698 25.3014 32.8762 24.9818 34.3982 24.9818C35.9201 24.9818 37.0738 25.3014 37.8594 25.9407C38.6449 26.58 39.2095 27.539 39.5777 28.8422L42.4006 39.1939C42.4497 39.4152 42.5479 39.5627 42.6461 39.661C42.7688 39.7348 42.8916 39.784 43.0634 39.784C43.4316 39.784 43.6526 39.5627 43.7262 39.1447L45.8864 26.162C45.9355 26.0145 45.9355 25.867 45.9355 25.744V25.4244H51.2377C51.2377 25.5719 51.2377 25.7194 51.2132 25.8424C51.2132 25.9653 51.1886 26.1374 51.1395 26.3341L48.6602 40.5708C48.4393 41.8248 47.8747 42.8329 46.991 43.6198C46.1073 44.4066 44.8063 44.7754 43.1125 44.7754C40.2896 44.7754 38.4976 43.3739 37.7612 40.5216L35.0119 30.047C34.9382 29.6782 34.7173 29.5061 34.3982 29.5061ZM58.4301 44.4066V25.3998H53.3242V44.4066H58.4301ZM82.1429 25.3998V30.4404H73.8459V44.4066H68.74V30.4404H60.4184V25.3998H82.1429ZM105.684 44.4066V25.3998H100.578V32.2845H89.2617V25.3998H84.1558V44.4066H89.2617V37.0793H100.578V44.4066H105.684Z" fill="#29292F"/>
<path fill-rule="evenodd" clip-rule="evenodd" d="M122.229 19.4248C120.535 19.4248 119.038 19.1543 117.786 18.5888C116.534 18.0478 115.478 17.2856 114.595 16.3267C113.834 15.4907 113.22 14.5071 112.803 13.4252C112.361 12.3433 112.164 11.1631 112.164 9.9091C112.164 8.53215 112.434 7.22897 112.974 6.02414C113.514 4.81931 114.275 3.7866 115.208 2.90142C116.043 2.11459 117.049 1.49988 118.203 1.05729C119.357 0.614697 120.707 0.393402 122.229 0.393402H126.205C127.727 0.393402 129.078 0.614697 130.231 1.05729C131.385 1.49988 132.367 2.11459 133.226 2.90142C134.183 3.7866 134.92 4.81931 135.46 6.02414C136 7.22897 136.27 8.50756 136.27 9.9091C136.27 11.1631 136.049 12.3433 135.632 13.4252C135.19 14.5071 134.601 15.4661 133.84 16.3267C132.956 17.2856 131.9 18.0478 130.649 18.5888C129.397 19.1543 127.924 19.4248 126.205 19.4248H122.229ZM122.229 5.45861C121.37 5.45861 120.658 5.58155 120.093 5.80284C119.529 6.02414 119.038 6.3192 118.645 6.71261C118.203 7.13061 117.884 7.62238 117.614 8.16333C117.368 8.72886 117.246 9.31898 117.246 9.95828C117.246 10.5484 117.344 11.0893 117.565 11.6057C117.761 12.1221 118.056 12.5646 118.424 12.9581C118.841 13.4006 119.357 13.7695 119.97 14.0154C120.584 14.2858 121.345 14.4088 122.253 14.4088H126.23C127.138 14.4088 127.875 14.2858 128.513 14.0154C129.127 13.7449 129.642 13.4006 130.059 12.9581C130.428 12.5646 130.722 12.1221 130.919 11.6057C131.115 11.0893 131.238 10.5484 131.238 9.95828C131.238 9.31898 131.115 8.72886 130.869 8.16333C130.624 7.59779 130.28 7.10603 129.838 6.71261C129.421 6.34379 128.93 6.04873 128.39 5.80284C127.826 5.58155 127.114 5.45861 126.255 5.45861H122.229ZM90.7835 1.05728C90.6363 0.909748 90.5381 0.786806 90.4644 0.688453C90.3908 0.590099 90.3417 0.491746 90.3171 0.417981H96.5767C96.6258 0.491746 96.6749 0.590099 96.724 0.688453C96.7977 0.811394 96.8959 0.934336 97.0186 1.05728L101.781 6.24542C101.904 6.36836 102.051 6.44213 102.174 6.44213C102.296 6.44213 102.444 6.36836 102.566 6.24542L107.304 1.05728C107.549 0.811395 107.697 0.590099 107.77 0.417981H113.907C113.87 0.493116 113.818 0.568251 113.774 0.632425C113.76 0.652255 113.747 0.671039 113.735 0.688453C113.662 0.786806 113.564 0.909748 113.416 1.05728L104.53 10.8926V19.4248H99.3997V10.573L90.7835 1.05728ZM142.186 19.0806C143.045 19.3018 144.051 19.4248 145.254 19.4248H153.748C156.129 19.4248 157.822 18.933 158.853 17.9741C159.884 17.0151 160.4 15.4661 160.4 13.3515V0.417981H155.294V12.7859C155.294 13.9662 154.656 14.5563 153.404 14.5563H145.524C144.321 14.5563 143.708 13.9662 143.708 12.7859V0.417981H138.602V13.3515C138.602 14.4088 138.725 15.3185 138.97 16.0808C139.191 16.843 139.584 17.4823 140.124 17.9741C140.664 18.4904 141.351 18.8593 142.186 19.0806ZM123.088 44.7754C122.425 44.7754 121.787 44.6279 121.198 44.3574C120.609 44.0869 120.167 43.6444 119.872 43.0297L114.128 31.0797C114.079 30.9322 113.956 30.8584 113.76 30.8584C113.637 30.8584 113.539 30.9076 113.441 30.9813C113.343 31.0551 113.293 31.2026 113.293 31.3502V44.3574H108.409V30.4896C108.409 29.4323 108.556 28.5471 108.875 27.8586C109.194 27.1701 109.611 26.6046 110.176 26.1374C110.618 25.7932 111.109 25.5227 111.649 25.3014C112.189 25.0801 112.803 24.9818 113.49 24.9818C114.693 24.9818 115.675 25.3014 116.411 25.9653C117.172 26.6292 117.786 27.4652 118.277 28.5225L122.572 37.8415C122.671 38.0874 122.818 38.2103 123.039 38.2103C123.26 38.2103 123.432 38.0874 123.505 37.8415L127.801 28.5225C128.292 27.4652 128.906 26.6292 129.642 25.9653C130.378 25.3014 131.36 24.9818 132.588 24.9818C133.251 24.9818 133.864 25.0801 134.429 25.3014C134.969 25.5227 135.46 25.7932 135.902 26.1374C136.466 26.58 136.908 27.1701 137.203 27.8586C137.522 28.5471 137.669 29.4323 137.669 30.4896V44.4066H132.784V31.3993C132.784 31.2272 132.735 31.1043 132.637 31.0305C132.539 30.9568 132.44 30.9076 132.318 30.9076C132.121 30.9076 131.999 30.9813 131.95 31.1289L126.279 43.0297C125.984 43.6198 125.543 44.0624 124.953 44.3574C124.389 44.6525 123.751 44.7754 123.088 44.7754ZM160.4 30.4404V25.4489H143.143C141.351 25.4489 140.443 26.3095 140.443 28.0061V41.8002C140.443 43.546 141.351 44.4312 143.119 44.4312H160.4V39.5627H145.991C145.696 39.5627 145.549 39.3906 145.549 39.0463V36.735H160.326V33.0713H145.549V30.9076C145.549 30.6125 145.696 30.4404 145.991 30.4404H160.4Z" fill="#1CB987"/>
</svg>
