<svg xmlns="http://www.w3.org/2000/svg" fill="none" viewBox="0 0 481 83"><path fill="#36495E" d="m36.5 82.2 11-19 11 19H76L47.5 32.9 19 82.2h17.5Z"/><path fill="url(#a)" d="M47.5 32.9v30.3l11 19H76L47.5 32.9Z"/><path fill="#36495E" d="m115.5 82.2-11-19-11 19H76l28.5-49.3L133 82.2h-17.5Z"/><path fill="url(#b)" d="M104.5 32.9v30.3l-11 19H76l28.5-49.3Z"/><path fill="url(#c)" d="M104.5 0 76 49.3 47.5 0 0 82.2h19l28.5-49.3L76 82.2l28.5-49.3L133 82.2h19L104.5 0Z"/><path fill="#fff" d="M178.9 34.7h10.8L178 70.3h-11.3l-11.6-35.6h10.8l4.8 18c1 4 1.6 6.8 1.7 8.4.1-1.1.3-2.6.7-4.3.3-1.7.6-3 .9-4l4.9-18.1Zm33.7 35.6-1.2-3.4h-.6c-.8 1.3-1.9 2.2-3.3 2.9-1.4.7-3.1 1-5 1-3 0-5.4-.9-7.1-2.6-1.7-1.8-2.5-4.2-2.5-7.5v-18h9.5v15.1c0 1.8.3 3.2.8 4.1.5.9 1.3 1.4 2.5 1.4 1.6 0 2.8-.6 3.5-1.9.7-1.3 1-3.5 1-6.5V42.7h9.5v27.6h-7.1Zm27 .5c-4.6 0-8.2-1.2-10.7-3.7-2.5-2.4-3.8-5.9-3.8-10.4 0-4.7 1.2-8.2 3.5-10.7 2.4-2.5 5.7-3.7 10.1-3.7 4.2 0 7.4 1.1 9.6 3.2 2.3 2.2 3.4 5.3 3.4 9.4v4.2h-17c.1 1.5.6 2.7 1.7 3.6 1.1.9 2.5 1.3 4.3 1.3 1.7 0 3.2-.2 4.6-.5 1.4-.3 2.9-.9 4.6-1.6v6.8c-1.5.8-3 1.3-4.6 1.6-1.6.3-3.5.5-5.7.5Zm-.5-22.1c-1.1 0-2.1.4-2.8 1.1-.8.7-1.2 1.8-1.3 3.3h8.2c0-1.3-.4-2.4-1.1-3.2-.7-.8-1.8-1.2-3-1.2Zm47 21.6-7.3-25.6h-.2c.3 4.4.5 7.8.5 10.2v15.4h-8.5V34.7h12.8l7.4 25.2h.2l7.3-25.2h12.8v35.6h-8.8V52c0-1 .1-3.4.3-7.3h-.2l-7.2 25.6h-9.1Zm50.1 0-1.8-3.6h-.2c-1.3 1.6-2.6 2.7-3.9 3.3-1.3.6-3 .9-5.2.9-2.6 0-4.6-.8-6.1-2.3-1.5-1.6-2.2-3.7-2.2-6.6 0-2.9 1-5.1 3.1-6.6 2-1.4 5-2.2 8.9-2.4l4.6-.1v-.4c0-2.3-1.1-3.4-3.4-3.4-2 0-4.6.7-7.7 2l-2.7-6.3c3.2-1.7 7.3-2.5 12.2-2.5 3.5 0 6.3.9 8.2 2.6 1.9 1.8 2.9 4.2 2.9 7.3v18.1h-6.7Zm-7.1-6.3c1.2 0 2.1-.4 3-1.1.9-.7 1.2-1.7 1.2-2.8V58l-2.2.1c-3.1.1-4.7 1.3-4.7 3.5 0 1.6.9 2.4 2.7 2.4Zm41.4-2.2c0 3-1 5.2-3 6.7s-4.9 2.3-8.7 2.3c-2 0-3.8-.1-5.3-.3-1.5-.2-3-.6-4.6-1.2v-7.6c1.5.6 3.1 1.2 4.9 1.6 1.8.4 3.3.6 4.7.6 2.1 0 3.1-.5 3.1-1.4 0-.5-.3-.9-.9-1.3-.6-.4-2.2-1.1-5-2.2-2.5-1-4.3-2.2-5.3-3.5-1-1.3-1.5-3-1.5-5 0-2.6 1-4.6 3-6 2-1.4 4.8-2.1 8.4-2.1 1.8 0 3.5.2 5.1.6 1.6.4 3.3 1 5 1.7l-2.6 6.1c-1.3-.6-2.6-1-4-1.4-1.4-.4-2.6-.6-3.5-.6-1.6 0-2.3.4-2.3 1.1 0 .5.3.9.8 1.2.5.3 2.1 1 4.7 2 1.9.8 3.4 1.6 4.3 2.3.9.7 1.6 1.7 2.1 2.7.5 1 .6 2.2.6 3.7Zm18.8 1.4c1.3 0 2.8-.3 4.6-.9v6.9c-1.3.6-2.5.9-3.7 1.2-1.2.2-2.5.4-4.1.4-3.2 0-5.5-.8-6.9-2.3-1.4-1.6-2.1-4-2.1-7.2V49.8h-3.3v-3.9l4.2-3 2.5-5.8h6.2v5.5h6.8v7.1h-6.8v10.7c0 2 .9 2.8 2.6 2.8Zm22.7 7.6c-4.6 0-8.2-1.2-10.7-3.7-2.5-2.4-3.8-5.9-3.8-10.4 0-4.7 1.2-8.2 3.5-10.7 2.4-2.5 5.7-3.7 10.1-3.7 4.2 0 7.4 1.1 9.6 3.2 2.3 2.2 3.4 5.3 3.4 9.4v4.2h-17c.1 1.5.6 2.7 1.7 3.6 1.1.9 2.5 1.3 4.3 1.3 1.7 0 3.2-.2 4.6-.5 1.4-.3 2.9-.9 4.6-1.6v6.8c-1.5.8-3 1.3-4.6 1.6-1.6.3-3.5.5-5.7.5Zm-.5-22.1c-1.1 0-2.1.4-2.8 1.1-.8.7-1.2 1.8-1.3 3.3h8.2c0-1.3-.4-2.4-1.1-3.2-.7-.8-1.8-1.2-3-1.2Zm34.7-6.5c.8 0 1.6.1 2.4.2l.5.1-.9 9c-.8-.2-1.9-.3-3.2-.3-2.1 0-3.6.5-4.5 1.4-.9.9-1.4 2.3-1.4 4.1v13.5h-9.5V42.7h7.1l1.5 4.4h.5c.8-1.5 1.9-2.6 3.3-3.5 1.3-.9 2.7-1.4 4.2-1.4Zm3.4.5h10l4.7 15.8c.2.8.4 1.8.5 3h.2c.1-1.1.3-2.1.6-2.9l4.8-15.9h9.7L469.2 72c-1.4 3.7-3.1 6.4-5.1 7.9-2 1.5-4.7 2.3-8 2.3-1.3 0-2.6-.1-3.9-.4v-7.5c.9.2 1.8.3 2.9.3.8 0 1.6-.2 2.2-.5.6-.3 1.2-.8 1.7-1.4.5-.6 1-1.6 1.5-2.9l-10.9-27.1Z"/><defs><linearGradient id="a" x1="61.762" x2="61.762" y1="82.244" y2="32.871" gradientUnits="userSpaceOnUse"><stop stop-color="#36495E"/><stop offset="1" stop-color="#0A1C33"/></linearGradient><linearGradient id="b" x1="90.267" x2="90.267" y1="82.244" y2="32.871" gradientUnits="userSpaceOnUse"><stop stop-color="#36495E"/><stop offset="1" stop-color="#0A1C33"/></linearGradient><linearGradient id="c" x1="76.014" x2="76.014" y1="82.244" y2="-.044" gradientUnits="userSpaceOnUse"><stop offset=".2" stop-color="#41B782"/><stop offset="1" stop-color="#86D169"/></linearGradient></defs></svg>