<svg xmlns="http://www.w3.org/2000/svg" xml:space="preserve" viewBox="0 0 48 48"><path id="Icon_outlined" fill="#ea5e13" d="M28.6 34.3v-.2c.2-1 .4-2 .4-3.1 0-7.2-5.8-13-13-13-3.5 0-6.7 1.4-9 3.6v-7.8c1.2-.4 2-1.5 2-2.8 0-1.7-1.3-3-3-3s-3 1.3-3 3c0 1.3.9 2.4 2 2.8V24.1c-1.3 2-2 4.4-2 6.9 0 1.1.1 2.1.4 3.1v.2c.2.7.4 1.4.7 2C1.6 39.1 0 42.9 0 47c0 .6.4 1 1 1s1-.4 1-1c0-3.4 1.2-6.4 3.2-8.8 2.2 3.2 5.7 5.5 9.8 5.8v3c0 .6.4 1 1 1s1-.4 1-1v-3.1c4.1-.3 7.7-2.5 9.8-5.8 2 2.4 3.2 5.5 3.2 8.8 0 .6.4 1 1 1s1-.4 1-1c0-4.1-1.6-7.9-4.1-10.7.2-.5.5-1.2.7-1.9zM16 20c5.7 0 10.4 4.4 10.9 10-2.3-3.7-6.4-6-10.9-6s-8.6 2.3-10.9 6c.5-5.6 5.2-10 10.9-10zM6 10c.6 0 1 .4 1 1s-.4 1-1 1-1-.4-1-1 .4-1 1-1zm10 32c-5 0-9.3-3.4-10.6-8 1.3-4.7 5.6-8 10.6-8s9.2 3.3 10.6 8c-1.3 4.6-5.6 8-10.6 8zm1-13c0 .6-.4 1-1 1-3.2 0-6 2.2-6.8 5.2-.1.5-.5.8-1 .8H8c-.5-.1-.9-.7-.7-1.2 1-4 4.6-6.8 8.7-6.8.6 0 1 .4 1 1zM47 0H20c-.6 0-1 .4-1 1v15c0 .6.4 1 1 1h6v3c0 .4.2.8.6.9.1.1.3.1.4.1.3 0 .5-.1.7-.3l3.7-3.7H47c.6 0 1-.4 1-1V1c0-.6-.4-1-1-1zm-1 15H31c-.3 0-.5.1-.7.3L28 17.6V16c0-.6-.4-1-1-1h-6V2h25v13zM23 6c0-.6.4-1 1-1h19c.6 0 1 .4 1 1s-.4 1-1 1H24c-.6 0-1-.4-1-1zm0 5c0-.6.4-1 1-1h15c.6 0 1 .4 1 1s-.4 1-1 1H24c-.6 0-1-.4-1-1zm21 32c0 .6-.4 1-1 1s-1-.4-1-1 .4-1 1-1 1 .4 1 1zm-3-15c0 1.1-.9 2-2 2s-2-.9-2-2 .9-2 2-2 2 .9 2 2zM12 6c0-.6.4-1 1-1s1 .4 1 1-.4 1-1 1-1-.4-1-1zM0 22c0-.6.4-1 1-1s1 .4 1 1-.4 1-1 1-1-.4-1-1z"/></svg>