<svg xmlns="http://www.w3.org/2000/svg" xmlns:xlink="http://www.w3.org/1999/xlink" viewBox="0 0 24 24" xml:space="preserve">
<!-- TODO: using fill here since the SVG isn't injected inline and won't otherwise get the correct color -->
<path fill="#00b4ff" d="M24,4v8c0,1.1-0.9,2-2,2h-0.4c-0.1-0.1-0.2-0.2-0.3-0.3c0,0-7.7-6.5-8.7-7.4c-1-0.8-2-0.6-2-0.6
	C9.1,5.8,8,7,8,8.4V14H2c-1.1,0-2-0.9-2-2V4c0-1.1,0.9-2,2-2h20C23.1,2,24,2.9,24,4 M10.8,7.7c0.2,0,0.4,0.1,0.5,0.2l0,0l8.7,7.4
	c0.4,0.3,0.4,0.8,0.1,1.1c-0.1,0.1-0.3,0.2-0.4,0.3L17.3,17l1.7,3.6c0.2,0.4,0,0.8-0.4,1l-2.8,1.3C15.7,23,15.6,23,15.5,23
	c-0.3,0-0.6-0.2-0.7-0.4L13.1,19l-1.9,1.5c-0.1,0.1-0.3,0.2-0.5,0.2c-0.4,0-0.8-0.3-0.8-0.8V8.4C10,8,10.3,7.7,10.8,7.7"/>
</svg>
