<?xml version="1.0" encoding="utf-8"?>
<svg version="1.1" xmlns="http://www.w3.org/2000/svg" xmlns:xlink="http://www.w3.org/1999/xlink" viewBox="0 0 24 24" xml:space="preserve">
<!-- TODO: using fill here since the SVG isn't injected inline and won't otherwise get the correct color -->
<path fill="#475d66" d="M12,4c3,0,5.5,1.6,6.9,4H12c-1.9,0-3.6,1.4-3.9,3.2L5.7,7.1C7.2,5.2,9.4,4,12,4z M12,9c1.7,0,3,1.3,3,3
	s-1.3,3-3,3s-3-1.3-3-3S10.3,9,12,9z M5.1,8l3.5,6h0c0.7,1.2,1.9,2,3.4,2c0.4,0,0.9-0.1,1.3-0.2l-2.4,4.1C7,19.4,4,16,4,12
	C4,10.5,4.4,9.2,5.1,8z M19.4,9c0.4,0.9,0.6,1.9,0.6,3c0,4.4-3.6,8-8,8l3.5-6h0c0.3-0.6,0.6-1.3,0.6-2c0-1.2-0.5-2.3-1.4-3H19.4z
	 M12,3c-5,0-9,4-9,9s4,9,9,9s9-4,9-9S17,3,12,3z M12,2c5.5,0,10,4.5,10,10s-4.5,10-10,10S2,17.5,2,12S6.5,2,12,2z"/>
</svg>
