<svg xmlns="http://www.w3.org/2000/svg" xml:space="preserve" viewBox="0 0 48 48"><path id="Icon_outlined" fill="#ea5e13" d="M1 10h25c.6 0 1-.4 1-1V1c0-.6-.4-1-1-1H1C.4 0 0 .4 0 1v8c0 .6.4 1 1 1zm1-8h23v6H2V2zm24 22H1c-.6 0-1 .4-1 1v22c0 .6.4 1 1 1h25c.6 0 1-.4 1-1V25c0-.6-.4-1-1-1zm-1 2v2H2v-2h23zM2 46V30h23v16H2zm20-10h-6c-.6 0-1 .4-1 1v6c0 .6.4 1 1 1h6c.6 0 1-.4 1-1v-6c0-.6-.4-1-1-1zm-1 6h-4v-4h4v4zm2-9c0 .6-.4 1-1 1H5c-.6 0-1-.4-1-1s.4-1 1-1h17c.6 0 1 .4 1 1zm-10 4c0 .6-.4 1-1 1H5c-.6 0-1-.4-1-1s.4-1 1-1h7c.6 0 1 .4 1 1zm22-1c-3.3 0-6 2.7-6 6s2.7 6 6 6 6-2.7 6-6-2.7-6-6-6zm0 10c-2.2 0-4-1.8-4-4s1.8-4 4-4 4 1.8 4 4-1.8 4-4 4zM47 1H33c-.6 0-1 .4-1 1v6c0 .6.4 1 1 1h14c.6 0 1-.4 1-1V2c0-.6-.4-1-1-1zm-1 6H34V3h12v4zM8 5c0 1.1-.9 2-2 2s-2-.9-2-2 .9-2 2-2 2 .9 2 2zm15 0c0 .6-.4 1-1 1H11c-.6 0-1-.4-1-1s.4-1 1-1h11c.6 0 1 .4 1 1zm24 7H23c-.6 0-1 .4-1 1v8c0 .6.4 1 1 1h24c.6 0 1-.4 1-1v-8c0-.6-.4-1-1-1zm-1 8H24v-6h22v6zm-20-3c0-.6.4-1 1-1h14c.6 0 1 .4 1 1s-.4 1-1 1H27c-.6 0-1-.4-1-1zM6 13c-2.2 0-4 1.8-4 4s1.8 4 4 4h8c2.2 0 4-1.8 4-4s-1.8-4-4-4H6zm-2 4c0-1.1.9-2 2-2h4.6c-.3.6-.6 1.3-.6 2s.2 1.4.6 2H6c-1.1 0-2-.9-2-2zm12 0c0 1.1-.9 2-2 2s-2-.9-2-2 .9-2 2-2 2 .9 2 2zm22 25c0 .6-.4 1-1 1h-1v1c0 .6-.4 1-1 1s-1-.4-1-1v-1h-1c-.6 0-1-.4-1-1s.4-1 1-1h1v-1c0-.6.4-1 1-1s1 .4 1 1v1h1c.6 0 1 .4 1 1zm9-15h-3v-2c0-.6-.4-1-1-1s-1 .4-1 1v2h-3c-.6 0-1 .4-1 1v4c0 .6.4 1 1 1h3v5c0 .6.4 1 1 1s1-.4 1-1v-5h3c.6 0 1-.4 1-1v-4c0-.6-.4-1-1-1zm-1 4h-6v-2h6v2zm-11 3c.6 0 1-.4 1-1v-5c0-.6-.4-1-1-1h-5c-.6 0-1 .4-1 1v5c0 .6.4 1 1 1h5zm-4-5h3v3h-3v-3z"/></svg>