<svg xmlns="http://www.w3.org/2000/svg" xml:space="preserve" viewBox="0 0 48 48"><path id="Icon_outlined" fill="#ea5e13" d="M9 16c0-.6.4-1 1-1h12.9c.6 0 1 .4 1 1s-.4 1-1 1H10c-.6 0-1-.4-1-1zm1-3h2.9c.6 0 1-.4 1-1s-.4-1-1-1H10c-.6 0-1 .4-1 1s.4 1 1 1zm0 27c-.6 0-1 .4-1 1s.4 1 1 1h2.9c.6 0 1-.4 1-1s-.4-1-1-1H10zm0-13h4.9c.6 0 1-.4 1-1s-.4-1-1-1H10c-.6 0-1 .4-1 1s.4 1 1 1zm9.9-14c.6 0 1-.4 1-1s-.4-1-1-1H17c-.6 0-1 .4-1 1s.4 1 1 1h2.9zM10 22h10.9c.6 0 1-.4 1-1s-.4-1-1-1H10c-.6 0-1 .4-1 1s.4 1 1 1zm23 3H20c-.6 0-1 .4-1 1s.4 1 1 1h13c.6 0 1-.4 1-1s-.4-1-1-1zm-23 7h14c.6 0 1-.4 1-1s-.4-1-1-1H10c-.6 0-1 .4-1 1s.4 1 1 1zm15 4c0-.6-.4-1-1-1H10c-.6 0-1 .4-1 1s.4 1 1 1h14c.6 0 1-.4 1-1zm-8 6h16c.6 0 1-.4 1-1s-.4-1-1-1H17c-.6 0-1 .4-1 1s.4 1 1 1zm17-6c0 .6-.4 1-1 1h-5c-.6 0-1-.4-1-1v-5c0-.6.4-1 1-1h5c.6 0 1 .4 1 1v5zm-2-4h-3v3h3v-3zm4 14H7V2h13.5l3.9 3.2 2.7-.4L21.4.2c-.1-.1-.3-.2-.5-.2H6c-.6 0-1 .4-1 1v46c0 .6.4 1 1 1h31c.6 0 1-.4 1-1V19.8l-2-1.1V46zM29.5 3.4l.9-1.8L28.7.2c-.4-.3-1.1-.3-1.4.2-.3.4-.3 1.1.2 1.4l2 1.6zm13.1 7.8-1-.8-1.4 1.4.8.7V47c0 .6.4 1 1 1s1-.4 1-1V12c0-.3-.1-.6-.4-.8zm-4.4 4.6c.1.4-.1.8-.4 1-.2.1-.4.2-.6.2-.2 0-.3 0-.5-.1l-3.8-2-3.8 2c-.3.2-.7.1-1.1-.1-.3-.2-.5-.6-.4-1l.7-4.2-3-3c-.3-.3-.4-.7-.3-1 .3-.3.6-.6 1-.6l4.2-.6 1.9-3.8c.3-.7 1.5-.7 1.8 0l1.9 3.8L40 7c.4.1.7.3.8.7.1.4 0 .8-.3 1l-3 3 .7 4.1zm-.5-7.1L35 8.3c-.3 0-.6-.3-.8-.5L33 5.3l-1.2 2.5c-.2.2-.4.4-.8.5l-2.7.4 2 1.9c.2.2.3.6.3.9l-.5 2.7 2.4-1.3c.1-.1.3-.1.5-.1s.3 0 .5.1l2.4 1.3-.5-2.7c-.1-.3.1-.7.3-.9l2-1.9zM32.9 20H25c-.6 0-1 .4-1 1s.4 1 1 1h7.9c.6 0 1-.4 1-1s-.5-1-1-1z"/></svg>