<svg xmlns="http://www.w3.org/2000/svg" xml:space="preserve" viewBox="0 0 48 48"><path id="Icon_outlined" fill="#ea5e13" d="m29.2 42.8-.7-4.2 3-3c.3-.3.4-.7.3-1-.1-.3-.4-.6-.8-.6l-4.2-.6-1.9-3.8c-.3-.7-1.5-.7-1.8 0l-1.9 3.8-4.2.6c-.4.1-.7.3-.8.7-.1.4 0 .8.3 1l3 3-.7 4.2c-.1.4.1.8.4 1 .3.2.7.3 1.1.1l3.8-2 3.8 2c.1.1.3.1.5.1s.4-.1.6-.2c.1-.3.3-.7.2-1.1zm-2.5-5.2c-.2.2-.3.6-.3.9l.5 2.7-2.4-1.3c-.1-.1-.3-.1-.5-.1s-.3 0-.5.1l-2.4 1.3.5-2.7c.1-.3-.1-.7-.3-.9l-2-1.9 2.7-.4c.3 0 .6-.3.8-.5l1.2-2.5 1.2 2.5c.1.3.4.5.8.5l2.7.4-2 1.9zM46 34v-5c0-.6-.4-1-1-1H31v-4.9c4.2-2.4 7-6.9 7-12.1V8h2c.6 0 1-.4 1-1V1c0-.6-.4-1-1-1H8c-.6 0-1 .4-1 1v6c0 .6.4 1 1 1h2v3c0 5.2 2.8 9.7 7 12.1V28H3c-.6 0-1 .4-1 1v5c0 .1 0 .2.1.3v.1c0 .1.1.2.2.3h.1l.1.1 13.8 9.8c2 2 4.7 3.2 7.8 3.2s5.8-1.2 7.8-3.2l13.8-9.8.1-.1h.1c.1-.1.1-.2.2-.3v-.1c-.1-.1-.1-.2-.1-.3zm-2-1h-9.7c-.4-1.1-1-2.1-1.7-3H44v3zM27 8v14.6c-1 .2-2 .4-3 .4s-2-.1-3-.4V8h6zm9 3c0 4.8-2.9 9-7 10.9V8h7v3zM9 2h30v4H9V2zm3 9V8h7v13.9c-4.1-1.9-7-6.1-7-10.9zm12 14c1.8 0 3.4-.3 5-.9v3.1c-1.5-.8-3.2-1.2-5-1.2s-3.5.4-5 1.2v-3.1c1.6.6 3.2.9 5 .9zm-8.5 5c-.7.9-1.3 1.9-1.7 3H4v-3h11.5zm-9.4 5h7.1c-.1.6-.2 1.3-.2 1.9 0 1.2.2 2.3.5 3.4L6.1 35zm11.7 8.4-.2-.2C16 41.5 15 39.3 15 36.9c0-5 4-9 9-9s9 4 9 9c0 2.4-1 4.6-2.5 6.2l-.2.2c-1.6 1.6-3.8 2.5-6.2 2.5s-4.7-.9-6.3-2.4zm17-8.4h7.1l-7.4 5.3c.3-1.1.5-2.2.5-3.4 0-.6-.1-1.3-.2-1.9z"/></svg>