<?xml version="1.0" encoding="utf-8"?>
<!-- Generator: Adobe Illustrator 26.0.3, SVG Export Plug-In . SVG Version: 6.00 Build 0)  -->
<svg version="1.1" id="Layer_1" xmlns="http://www.w3.org/2000/svg" xmlns:xlink="http://www.w3.org/1999/xlink" x="0px" y="0px"
	 viewBox="0 0 24 24" style="enable-background:new 0 0 24 24;" xml:space="preserve">
<style type="text/css">
	.st0{fill-rule:evenodd;clip-rule:evenodd;}
</style>
<path class="st0" d="M10.6,12.2l-2.1,2.1l2.1,2.1l2.1-2.1l1.1,1.1l-2.1,2.1c0.5,0.5,0.5,1.6,0,2.1l-1.5,1.5l-3.7,0l-1.6,1.6
	l-2.7-2.7l1.6-1.6l0-3.7l1.5-1.5c0.5-0.5,1.6-0.5,2.1,0l0,0l2.1-2.1L10.6,12.2z M11.7,8.9c-0.5-0.5-0.5-1.6,0-2.1l2.9-2.9l3.7,0
	l1.6-1.6L22.6,5L21,6.6l0,3.7l-2.9,2.9c-0.5,0.5-1.6,0.5-2.1,0l0,0L11.7,8.9z"/>
</svg>
