<svg xmlns="http://www.w3.org/2000/svg" xml:space="preserve" viewBox="0 0 24 24">
  <!-- TODO: using fill here since the SVG isn't injected inline and won't otherwise get the correct color -->
  <path fill="#00b4ff" fill-rule="evenodd" d="m10.6 12.2-2.1 2.1 2.1 2.1 2.1-2.1 1.1 1.1-2.1 2.1c.5.5.5 1.6 0 2.1l-1.5 1.5H6.5l-1.6 1.6L2.2 20l1.6-1.6v-3.7l1.5-1.5c.5-.5 1.6-.5 2.1 0l2.1-2.1 1.1 1.1zm1.1-3.3c-.5-.5-.5-1.6 0-2.1l2.9-2.9h3.7l1.6-1.6L22.6 5 21 6.6v3.7l-2.9 2.9c-.5.5-1.6.5-2.1 0l-4.3-4.3z" clip-rule="evenodd"/>
</svg>
