<?xml version="1.0" encoding="utf-8"?>
<!-- Generator: Adobe Illustrator 25.4.1, SVG Export Plug-In . SVG Version: 6.00 Build 0)  -->
<svg version="1.1" xmlns="http://www.w3.org/2000/svg" xmlns:xlink="http://www.w3.org/1999/xlink" x="0px" y="0px"
	 viewBox="0 0 48 48" style="enable-background:new 0 0 48 48;" xml:space="preserve">
<style type="text/css">
	.st0{display:none;}
	.st1{display:inline;fill:none;stroke:#EA5E13;stroke-width:2;stroke-linecap:round;stroke-linejoin:round;stroke-miterlimit:10;}
	.st2{display:inline;fill:none;stroke:#EA5E13;stroke-width:2;stroke-linejoin:round;stroke-miterlimit:10;}
	.st3{display:inline;fill:none;stroke:#EA5E13;stroke-width:2;stroke-miterlimit:10;}
	.st4{display:inline;fill:none;stroke:#EA5E13;stroke-width:2;stroke-linecap:round;stroke-miterlimit:10;}
	.st5{display:inline;}
	.st6{fill:#EA5E13;}
	.st7{fill:none;stroke:#EA5E13;stroke-width:2;stroke-linecap:round;stroke-miterlimit:10;}
	.st8{fill:none;stroke:#EA5E13;stroke-width:2;stroke-linejoin:round;stroke-miterlimit:10;}
	.st9{display:inline;fill:#EA5E13;}
	.st10{display:inline;fill:#FFFFFF;}
	
		.st11{display:inline;fill:#FFFFFF;stroke:#EA5E13;stroke-width:2;stroke-linecap:round;stroke-linejoin:round;stroke-miterlimit:10;}
</style>
<g id="Icons_stroke" class="st0">
	<polygon class="st1" points="37,47 6,47 6,1 20.9,1 37,14 	"/>
	<line class="st1" x1="10" y1="16" x2="22.9" y2="16"/>
	<line class="st1" x1="10" y1="12" x2="12.9" y2="12"/>
	<line class="st1" x1="10" y1="41" x2="12.9" y2="41"/>
	<line class="st1" x1="10" y1="26" x2="14.9" y2="26"/>
	<line class="st1" x1="17" y1="12" x2="19.9" y2="12"/>
	<line class="st1" x1="10" y1="21" x2="20.9" y2="21"/>
	<line class="st1" x1="20" y1="26" x2="33" y2="26"/>
	<line class="st1" x1="10" y1="31" x2="24" y2="31"/>
	<line class="st1" x1="10" y1="36" x2="24" y2="36"/>
	<line class="st1" x1="17" y1="41" x2="33" y2="41"/>
	<polyline class="st1" points="42,47 42,12 28,1 	"/>
	<rect x="28" y="31" class="st1" width="5" height="5"/>
	<polygon class="st10" points="33,17.2 24.8,21.5 26.4,12.3 19.7,5.9 28.9,4.5 31.1,0 37.1,4.5 44.5,7.6 39.6,12.3 39.8,20.8 	"/>
	<polygon class="st11" points="33,13.8 28.8,16 29.6,11.3 26.2,8 30.9,7.3 33,3 35.1,7.3 39.8,8 36.4,11.3 37.2,16 	"/>
	<line class="st1" x1="25" y1="21" x2="32.9" y2="21"/>
</g>
<g id="Icon_outlined">
	<path class="st6" d="M9,16c0-0.6,0.4-1,1-1h12.9c0.6,0,1,0.4,1,1s-0.4,1-1,1H10C9.4,17,9,16.6,9,16z M10,13h2.9c0.6,0,1-0.4,1-1
		s-0.4-1-1-1H10c-0.6,0-1,0.4-1,1S9.4,13,10,13z M10,40c-0.6,0-1,0.4-1,1s0.4,1,1,1h2.9c0.6,0,1-0.4,1-1s-0.4-1-1-1H10z M10,27h4.9
		c0.6,0,1-0.4,1-1s-0.4-1-1-1H10c-0.6,0-1,0.4-1,1S9.4,27,10,27z M19.9,13c0.6,0,1-0.4,1-1s-0.4-1-1-1H17c-0.6,0-1,0.4-1,1
		s0.4,1,1,1H19.9z M10,22h10.9c0.6,0,1-0.4,1-1s-0.4-1-1-1H10c-0.6,0-1,0.4-1,1S9.4,22,10,22z M33,25H20c-0.6,0-1,0.4-1,1s0.4,1,1,1
		h13c0.6,0,1-0.4,1-1S33.6,25,33,25z M10,32h14c0.6,0,1-0.4,1-1s-0.4-1-1-1H10c-0.6,0-1,0.4-1,1S9.4,32,10,32z M25,36
		c0-0.6-0.4-1-1-1H10c-0.6,0-1,0.4-1,1s0.4,1,1,1h14C24.6,37,25,36.6,25,36z M17,42h16c0.6,0,1-0.4,1-1s-0.4-1-1-1H17
		c-0.6,0-1,0.4-1,1S16.4,42,17,42z M34,36c0,0.6-0.4,1-1,1h-5c-0.6,0-1-0.4-1-1v-5c0-0.6,0.4-1,1-1h5c0.6,0,1,0.4,1,1V36z M32,32h-3
		v3h3V32z M36,46H7V2h13.5l3.9,3.2l2.7-0.4l-5.7-4.6C21.3,0.1,21.1,0,20.9,0H6C5.4,0,5,0.4,5,1v46c0,0.6,0.4,1,1,1h31
		c0.6,0,1-0.4,1-1V19.8l-2-1.1V46z M29.5,3.4l0.9-1.8l-1.7-1.4c-0.4-0.3-1.1-0.3-1.4,0.2c-0.3,0.4-0.3,1.1,0.2,1.4L29.5,3.4z
		 M42.6,11.2l-1-0.8l-1.4,1.4l0.8,0.7V47c0,0.6,0.4,1,1,1s1-0.4,1-1V12C43,11.7,42.9,11.4,42.6,11.2z M38.2,15.8
		c0.1,0.4-0.1,0.8-0.4,1c-0.2,0.1-0.4,0.2-0.6,0.2c-0.2,0-0.3,0-0.5-0.1l-3.8-2l-3.8,2c-0.3,0.2-0.7,0.1-1.1-0.1
		c-0.3-0.2-0.5-0.6-0.4-1l0.7-4.2l-3-3c-0.3-0.3-0.4-0.7-0.3-1C25.3,7.3,25.6,7,26,7l4.2-0.6l1.9-3.8c0.3-0.7,1.5-0.7,1.8,0l1.9,3.8
		L40,7c0.4,0.1,0.7,0.3,0.8,0.7c0.1,0.4,0,0.8-0.3,1l-3,3L38.2,15.8z M37.7,8.7L35,8.3c-0.3,0-0.6-0.3-0.8-0.5L33,5.3l-1.2,2.5
		C31.6,8,31.4,8.2,31,8.3l-2.7,0.4l2,1.9c0.2,0.2,0.3,0.6,0.3,0.9l-0.5,2.7l2.4-1.3c0.1-0.1,0.3-0.1,0.5-0.1s0.3,0,0.5,0.1l2.4,1.3
		l-0.5-2.7c-0.1-0.3,0.1-0.7,0.3-0.9L37.7,8.7z M32.9,20H25c-0.6,0-1,0.4-1,1s0.4,1,1,1h7.9c0.6,0,1-0.4,1-1S33.4,20,32.9,20z"/>
</g>
<g id="Guides" class="st0">
</g>
</svg>
