<svg xmlns="http://www.w3.org/2000/svg" xml:space="preserve" viewBox="0 0 280 280">
  <g fill="#00B4FF">
    <path d="M160.331 139.996c0 11.225-9.099 20.324-20.324 20.324-11.225 0-20.324-9.1-20.324-20.324 0-11.225 9.1-20.324 20.324-20.324 11.224 0 20.324 9.099 20.324 20.324zM230.226 87.9a104.168 104.168 0 0 0-15.965-20.872l-23.496 13.566a78.262 78.262 0 0 0-24.532-14.218c-8.022 8.13-14.394 17.213-18.987 27.092 26.155-1.78 53.167 7.686 78.244 27.278l14.787-8.538A104.205 104.205 0 0 0 230.226 87.9zm-90.214 156.277a104.226 104.226 0 0 0 26.059-3.39v-27.131a78.259 78.259 0 0 0 24.579-14.136c-3.03-11.012-7.71-21.072-13.969-29.99-11.536 23.541-33.24 42.201-62.746 54.122v17.075a104.208 104.208 0 0 0 26.077 3.45zM49.78 87.911a104.172 104.172 0 0 0-10.093 24.263l23.496 13.566a78.262 78.262 0 0 0-.047 28.354c11.051 2.882 22.104 3.859 32.956 2.897-14.619-21.761-19.927-49.887-15.498-81.401l-14.787-8.538A104.14 104.14 0 0 0 49.78 87.911zm180.452 104.17a104.172 104.172 0 0 0 10.093-24.263l-23.496-13.566a78.262 78.262 0 0 0 .047-28.354c-11.051-2.882-22.104-3.859-32.956-2.897 14.619 21.761 19.927 49.887 15.498 81.401l14.787 8.538a104.14 104.14 0 0 0 16.027-20.859zm-180.446.011a104.205 104.205 0 0 0 15.965 20.872l23.496-13.566a78.262 78.262 0 0 0 24.532 14.218c8.022-8.13 14.394-17.213 18.987-27.092-26.155 1.78-53.167-7.686-78.244-27.278l-14.787 8.538a104.205 104.205 0 0 0 10.051 24.308zM140 35.815a104.22 104.22 0 0 0-26.059 3.39v27.131a78.259 78.259 0 0 0-24.579 14.136c3.03 11.012 7.71 21.072 13.969 29.99 11.536-23.541 33.24-42.201 62.746-54.122V39.266A104.156 104.156 0 0 0 140 35.815z"/>
    <path d="M140 17.909c67.321 0 122.091 54.77 122.091 122.091S207.321 262.091 140 262.091 17.909 207.321 17.909 140 72.679 17.909 140 17.909M140 0C62.68 0 0 62.68 0 140s62.68 140 140 140 140-62.68 140-140S217.32 0 140 0z"/>
  </g>
</svg>
