<?xml version="1.0" encoding="utf-8"?>
<!-- Generator: Adobe Illustrator 25.4.1, SVG Export Plug-In . SVG Version: 6.00 Build 0)  -->
<svg version="1.1" xmlns="http://www.w3.org/2000/svg" xmlns:xlink="http://www.w3.org/1999/xlink" x="0px" y="0px"
	 viewBox="0 0 48 48" style="enable-background:new 0 0 48 48;" xml:space="preserve">
<style type="text/css">
	.st0{display:none;}
	.st1{display:inline;fill:none;stroke:#EA5E13;stroke-width:2;stroke-linecap:round;stroke-linejoin:round;stroke-miterlimit:10;}
	.st2{display:inline;fill:none;stroke:#EA5E13;stroke-width:2;stroke-linejoin:round;stroke-miterlimit:10;}
	.st3{display:inline;fill:none;stroke:#EA5E13;stroke-width:2;stroke-miterlimit:10;}
	.st4{display:inline;fill:none;stroke:#EA5E13;stroke-width:2;stroke-linecap:round;stroke-miterlimit:10;}
	.st5{display:inline;}
	.st6{fill:#EA5E13;}
	.st7{fill:none;stroke:#EA5E13;stroke-width:2;stroke-linecap:round;stroke-miterlimit:10;}
	.st8{fill:none;stroke:#EA5E13;stroke-width:2;stroke-linejoin:round;stroke-miterlimit:10;}
	.st9{display:inline;fill:#EA5E13;}
	.st10{display:inline;fill:#FFFFFF;}
	
		.st11{display:inline;fill:#FFFFFF;stroke:#EA5E13;stroke-width:2;stroke-linecap:round;stroke-linejoin:round;stroke-miterlimit:10;}
</style>
<g id="Icons_stroke" class="st0">
	<path class="st1" d="M31,47c0-8.3-6.7-15-15-15S1,38.7,1,47"/>
	<circle class="st11" cx="16" cy="31" r="12"/>
	<path class="st1" d="M4.4,34c1.3-5.2,6-9,11.6-9s10.3,3.8,11.6,9"/>
	<path class="st1" d="M8.3,35c0.9-3.5,4-6,7.7-6"/>
	<line class="st1" x1="6" y1="24" x2="6" y2="14"/>
	<polygon class="st1" points="47,16 31,16 27,20 27,16 20,16 20,1 47,1 	"/>
	<line class="st1" x1="24" y1="6" x2="43" y2="6"/>
	<line class="st1" x1="24" y1="11" x2="39" y2="11"/>
	<circle class="st1" cx="6" cy="11" r="2"/>
	<line class="st1" x1="16" y1="43" x2="16" y2="47"/>
	<circle class="st9" cx="43" cy="43" r="1"/>
	<circle class="st9" cx="39" cy="28" r="2"/>
	<circle class="st9" cx="13" cy="6" r="1"/>
	<circle class="st9" cx="1" cy="22" r="1"/>
</g>
<g id="Icon_outlined">
	<path class="st6" d="M28.6,34.3c0-0.1,0-0.1,0-0.2c0.2-1,0.4-2,0.4-3.1c0-7.2-5.8-13-13-13c-3.5,0-6.7,1.4-9,3.6V14
		c0-0.1,0-0.1,0-0.2c1.2-0.4,2-1.5,2-2.8c0-1.7-1.3-3-3-3s-3,1.3-3,3c0,1.3,0.9,2.4,2,2.8c0,0.1,0,0.1,0,0.2v10c0,0,0,0.1,0,0.1
		c-1.3,2-2,4.4-2,6.9c0,1.1,0.1,2.1,0.4,3.1c0,0.1,0,0.1,0,0.2c0.2,0.7,0.4,1.4,0.7,2C1.6,39.1,0,42.9,0,47c0,0.6,0.4,1,1,1
		s1-0.4,1-1c0-3.4,1.2-6.4,3.2-8.8c2.2,3.2,5.7,5.5,9.8,5.8V47c0,0.6,0.4,1,1,1s1-0.4,1-1v-3.1c4.1-0.3,7.7-2.5,9.8-5.8
		c2,2.4,3.2,5.5,3.2,8.8c0,0.6,0.4,1,1,1s1-0.4,1-1c0-4.1-1.6-7.9-4.1-10.7C28.1,35.7,28.4,35,28.6,34.3z M16,20
		c5.7,0,10.4,4.4,10.9,10c-2.3-3.7-6.4-6-10.9-6s-8.6,2.3-10.9,6C5.6,24.4,10.3,20,16,20z M6,10c0.6,0,1,0.4,1,1s-0.4,1-1,1
		s-1-0.4-1-1S5.4,10,6,10z M16,42c-5,0-9.3-3.4-10.6-8c1.3-4.7,5.6-8,10.6-8s9.2,3.3,10.6,8C25.3,38.6,21,42,16,42z M17,29
		c0,0.6-0.4,1-1,1c-3.2,0-6,2.2-6.8,5.2c-0.1,0.5-0.5,0.8-1,0.8c-0.1,0-0.2,0-0.2,0c-0.5-0.1-0.9-0.7-0.7-1.2c1-4,4.6-6.8,8.7-6.8
		C16.6,28,17,28.4,17,29z M47,0H20c-0.6,0-1,0.4-1,1v15c0,0.6,0.4,1,1,1h6v3c0,0.4,0.2,0.8,0.6,0.9C26.7,21,26.9,21,27,21
		c0.3,0,0.5-0.1,0.7-0.3l3.7-3.7H47c0.6,0,1-0.4,1-1V1C48,0.4,47.6,0,47,0z M46,15H31c-0.3,0-0.5,0.1-0.7,0.3L28,17.6V16
		c0-0.6-0.4-1-1-1h-6V2h25V15z M23,6c0-0.6,0.4-1,1-1h19c0.6,0,1,0.4,1,1s-0.4,1-1,1H24C23.4,7,23,6.6,23,6z M23,11c0-0.6,0.4-1,1-1
		h15c0.6,0,1,0.4,1,1s-0.4,1-1,1H24C23.4,12,23,11.6,23,11z M44,43c0,0.6-0.4,1-1,1s-1-0.4-1-1c0-0.6,0.4-1,1-1S44,42.4,44,43z
		 M41,28c0,1.1-0.9,2-2,2s-2-0.9-2-2c0-1.1,0.9-2,2-2S41,26.9,41,28z M12,6c0-0.6,0.4-1,1-1s1,0.4,1,1c0,0.6-0.4,1-1,1S12,6.6,12,6z
		 M0,22c0-0.6,0.4-1,1-1s1,0.4,1,1c0,0.6-0.4,1-1,1S0,22.6,0,22z"/>
</g>
<g id="Guides" class="st0">
</g>
</svg>
