<?xml version="1.0" encoding="utf-8"?>
<!-- Generator: Adobe Illustrator 25.4.1, SVG Export Plug-In . SVG Version: 6.00 Build 0)  -->
<svg version="1.1" xmlns="http://www.w3.org/2000/svg" xmlns:xlink="http://www.w3.org/1999/xlink" x="0px" y="0px"
	 viewBox="0 0 48 48" style="enable-background:new 0 0 48 48;" xml:space="preserve">
<style type="text/css">
	.st0{display:none;}
	.st1{display:inline;fill:none;stroke:#EA5E13;stroke-width:2;stroke-linecap:round;stroke-linejoin:round;stroke-miterlimit:10;}
	.st2{display:inline;fill:none;stroke:#EA5E13;stroke-width:2;stroke-linejoin:round;stroke-miterlimit:10;}
	.st3{display:inline;fill:none;stroke:#EA5E13;stroke-width:2;stroke-miterlimit:10;}
	.st4{display:inline;fill:none;stroke:#EA5E13;stroke-width:2;stroke-linecap:round;stroke-miterlimit:10;}
	.st5{display:inline;}
	.st6{fill:#EA5E13;}
	.st7{fill:none;stroke:#EA5E13;stroke-width:2;stroke-linecap:round;stroke-miterlimit:10;}
	.st8{fill:none;stroke:#EA5E13;stroke-width:2;stroke-linejoin:round;stroke-miterlimit:10;}
	.st9{display:inline;fill:#EA5E13;}
	.st10{display:inline;fill:#FFFFFF;}
	
		.st11{display:inline;fill:#FFFFFF;stroke:#EA5E13;stroke-width:2;stroke-linecap:round;stroke-linejoin:round;stroke-miterlimit:10;}
</style>
<g id="Icons_stroke" class="st0">
	<circle class="st1" cx="24" cy="24" r="12"/>
	<line class="st1" x1="24" y1="36" x2="24" y2="41"/>
	<line class="st1" x1="24" y1="7" x2="24" y2="12"/>
	<line class="st1" x1="32.5" y1="32.5" x2="41.9" y2="41.9"/>
	<line class="st1" x1="6.1" y1="6.1" x2="15.5" y2="15.5"/>
	<line class="st1" x1="32.5" y1="15.5" x2="41.9" y2="6.1"/>
	<line class="st1" x1="6.1" y1="41.9" x2="15.5" y2="32.5"/>
	<line class="st1" x1="36" y1="24" x2="41" y2="24"/>
	<line class="st1" x1="7" y1="24" x2="12" y2="24"/>
	<circle class="st1" cx="44" cy="4" r="3"/>
	<circle class="st1" cx="4" cy="4" r="3"/>
	<circle class="st1" cx="4" cy="44" r="3"/>
	<circle class="st1" cx="44" cy="44" r="3"/>
	<circle class="st1" cx="24" cy="4" r="3"/>
	<circle class="st1" cx="24" cy="44" r="3"/>
	<circle class="st1" cx="4" cy="24" r="3"/>
	<circle class="st1" cx="44" cy="24" r="3"/>
	<polyline class="st1" points="19,27 16,24 19,21 	"/>
	<polyline class="st1" points="29,21 32,24 29,27 	"/>
	<line class="st1" x1="26" y1="19" x2="22" y2="29"/>
</g>
<g id="Icon_outlined">
	<path class="st6" d="M40.1,25c0.4,1.7,2,3,3.9,3c2.2,0,4-1.8,4-4c0-2.2-1.8-4-4-4c-1.9,0-3.4,1.3-3.9,3h-3.2
		c-0.2-2.8-1.3-5.4-3.1-7.4L42,7.4C42.6,7.8,43.3,8,44,8c2.2,0,4-1.8,4-4s-1.8-4-4-4s-4,1.8-4,4c0,0.7,0.2,1.4,0.6,2l-8.1,8.1
		c-2-1.7-4.6-2.9-7.4-3.1V7.9c1.7-0.4,3-2,3-3.9c0-2.2-1.8-4-4-4s-4,1.8-4,4c0,1.9,1.3,3.4,3,3.9v3.2c-2.8,0.2-5.4,1.3-7.4,3.1
		L7.4,6C7.8,5.4,8,4.7,8,4c0-2.2-1.8-4-4-4S0,1.8,0,4s1.8,4,4,4c0.7,0,1.4-0.2,2-0.6l8.1,8.1c-1.7,2-2.9,4.6-3.1,7.4H7.9
		c-0.4-1.7-2-3-3.9-3c-2.2,0-4,1.8-4,4c0,2.2,1.8,4,4,4c1.9,0,3.4-1.3,3.9-3h3.2c0.2,2.8,1.3,5.4,3.1,7.4L6,40.6
		C5.4,40.2,4.7,40,4,40c-2.2,0-4,1.8-4,4s1.8,4,4,4s4-1.8,4-4c0-0.7-0.2-1.4-0.6-2l8.1-8.1c2,1.7,4.6,2.9,7.4,3.1v3.2
		c-1.7,0.4-3,2-3,3.9c0,2.2,1.8,4,4,4s4-1.8,4-4c0-1.9-1.3-3.4-3-3.9v-3.2c2.8-0.2,5.4-1.3,7.4-3.1l8.1,8.1c-0.4,0.6-0.6,1.3-0.6,2
		c0,2.2,1.8,4,4,4s4-1.8,4-4s-1.8-4-4-4c-0.7,0-1.4,0.2-2,0.6l-8.1-8.1c1.7-2,2.9-4.6,3.1-7.4H40.1z M44,22c1.1,0,2,0.9,2,2
		c0,1.1-0.9,2-2,2s-2-0.9-2-2C42,22.9,42.9,22,44,22z M44,2c1.1,0,2,0.9,2,2s-0.9,2-2,2c-0.5,0-1-0.2-1.3-0.5c0,0,0-0.1-0.1-0.1
		s-0.1,0-0.1-0.1C42.2,5,42,4.5,42,4C42,2.9,42.9,2,44,2z M22,4c0-1.1,0.9-2,2-2s2,0.9,2,2s-0.9,2-2,2S22,5.1,22,4z M2,4
		c0-1.1,0.9-2,2-2s2,0.9,2,2S5.1,6,4,6S2,5.1,2,4z M4,26c-1.1,0-2-0.9-2-2c0-1.1,0.9-2,2-2s2,0.9,2,2C6,25.1,5.1,26,4,26z M4,46
		c-1.1,0-2-0.9-2-2s0.9-2,2-2s2,0.9,2,2S5.1,46,4,46z M26,44c0,1.1-0.9,2-2,2s-2-0.9-2-2s0.9-2,2-2S26,42.9,26,44z M46,44
		c0,1.1-0.9,2-2,2s-2-0.9-2-2s0.9-2,2-2S46,42.9,46,44z M24,35c-6.1,0-11-4.9-11-11s4.9-11,11-11s11,4.9,11,11S30.1,35,24,35z
		 M19.7,21.7L17.4,24l2.3,2.3c0.4,0.4,0.4,1,0,1.4C19.5,27.9,19.3,28,19,28s-0.5-0.1-0.7-0.3l-3-3c-0.4-0.4-0.4-1,0-1.4l3-3
		c0.4-0.4,1-0.4,1.4,0S20.1,21.3,19.7,21.7z M29.7,20.3l3,3c0.4,0.4,0.4,1,0,1.4l-3,3C29.5,27.9,29.3,28,29,28s-0.5-0.1-0.7-0.3
		c-0.4-0.4-0.4-1,0-1.4l2.3-2.3l-2.3-2.3c-0.4-0.4-0.4-1,0-1.4S29.3,19.9,29.7,20.3z M26.9,19.4l-4,10C22.8,29.8,22.4,30,22,30
		c-0.1,0-0.2,0-0.4-0.1c-0.5-0.2-0.8-0.8-0.6-1.3l4-10c0.2-0.5,0.8-0.8,1.3-0.6C26.9,18.3,27.1,18.9,26.9,19.4z"/>
</g>
<g id="Guides" class="st0">
</g>
</svg>
